<svg width="28" height="30" viewBox="0 0 28 30" fill="none" xmlns="http://www.w3.org/2000/svg">
<path d="M21.9998 20.333L27.3332 14.9997L21.9998 9.66634V13.6663H15.2532C14.7998 9.53301 12.2398 6.03967 8.6665 4.26634C8.61317 2.07967 6.85317 0.333008 4.6665 0.333008C2.45317 0.333008 0.666504 2.11967 0.666504 4.33301C0.666504 6.54634 2.45317 8.33301 4.6665 8.33301C5.93317 8.33301 7.03984 7.73301 7.77317 6.81301C10.3065 8.19967 12.1332 10.693 12.5598 13.6663H8.4265C7.8665 12.1197 6.39984 10.9997 4.6665 10.9997C2.45317 10.9997 0.666504 12.7863 0.666504 14.9997C0.666504 17.213 2.45317 18.9997 4.6665 18.9997C6.39984 18.9997 7.8665 17.8797 8.4265 16.333H12.5598C12.1332 19.3063 10.3065 21.7997 7.7865 23.1863C7.03984 22.2663 5.93317 21.6663 4.6665 21.6663C2.45317 21.6663 0.666504 23.453 0.666504 25.6663C0.666504 27.8797 2.45317 29.6663 4.6665 29.6663C6.85317 29.6663 8.61317 27.9197 8.65317 25.733C12.2265 23.9597 14.7865 20.4663 15.2398 16.333H21.9998V20.333Z" fill="#E29478"/>
</svg>
