<svg width="14" height="24" viewBox="0 0 14 24" fill="none" xmlns="http://www.w3.org/2000/svg">
<path d="M7.40016 10.5333C4.3735 9.74667 3.40016 8.93333 3.40016 7.66667C3.40016 6.21333 4.74683 5.2 7.00016 5.2C8.8935 5.2 9.84016 5.92 10.1868 7.06667C10.3468 7.6 10.7868 8 11.3468 8H11.7468C12.6268 8 13.2535 7.13333 12.9468 6.30667C12.3868 4.73333 11.0802 3.42667 9.00016 2.92V2C9.00016 0.893333 8.10683 0 7.00016 0C5.8935 0 5.00016 0.893333 5.00016 2V2.88C2.4135 3.44 0.333496 5.12 0.333496 7.69333C0.333496 10.7733 2.88016 12.3067 6.60016 13.2C9.9335 14 10.6002 15.1733 10.6002 16.4133C10.6002 17.3333 9.94683 18.8 7.00016 18.8C4.80016 18.8 3.66683 18.0133 3.22683 16.8933C3.02683 16.3733 2.5735 16 2.02683 16H1.6535C0.760162 16 0.133496 16.9067 0.466829 17.7333C1.22683 19.5867 3.00016 20.68 5.00016 21.1067V22C5.00016 23.1067 5.8935 24 7.00016 24C8.10683 24 9.00016 23.1067 9.00016 22V21.1333C11.6002 20.64 13.6668 19.1333 13.6668 16.4C13.6668 12.6133 10.4268 11.32 7.40016 10.5333Z" fill="#0080A7"/>
</svg>
