<svg width="28" height="28" viewBox="0 0 28 28" fill="none" xmlns="http://www.w3.org/2000/svg">
<path d="M24.6665 0.666992H3.33317C1.99984 0.666992 0.666504 1.86699 0.666504 3.33366V7.34699C0.666504 8.30699 1.23984 9.13366 1.99984 9.60033V24.667C1.99984 26.1337 3.4665 27.3337 4.6665 27.3337H23.3332C24.5332 27.3337 25.9998 26.1337 25.9998 24.667V9.60033C26.7598 9.13366 27.3332 8.30699 27.3332 7.34699V3.33366C27.3332 1.86699 25.9998 0.666992 24.6665 0.666992ZM23.3332 24.667H4.6665V10.0003H23.3332V24.667ZM24.6665 7.33366H3.33317V3.33366H24.6665V7.33366Z" fill="#0080A7"/>
<path d="M17.9998 14.0003H9.99984V16.667H17.9998V14.0003Z" fill="#0080A7"/>
</svg>
