<svg width="161" height="40" viewBox="0 0 161 40" fill="none" xmlns="http://www.w3.org/2000/svg">
<path d="M2.97248 24.8954L8.8824 0.848145H14.0179L9.12016 20.8069H14.4119L13.393 24.8954H2.97248Z" fill="#222222"/>
<path d="M17.2481 24.8954L23.1581 0.848145H28.117L22.2002 24.8954H17.2481Z" fill="#222222"/>
<path d="M34.4494 24.9206C33.6699 25.0512 33.2301 25.118 33.1316 25.118C31.0614 25.118 29.623 24.564 28.818 23.4559C28.0131 22.3446 27.8789 20.7159 28.4172 18.5713L31.2499 6.94887C31.7696 4.87753 32.7053 3.30612 34.0554 2.23622C35.409 1.16313 37.1123 0.625 39.1638 0.625C41.2153 0.625 42.6486 1.16313 43.4638 2.23622C44.2789 3.30612 44.4284 4.87753 43.9121 6.94887L41.0794 18.5713C40.5801 20.5455 39.714 22.1121 38.4777 23.2712L40.3594 24.5895L37.9139 27.4425L34.4494 24.9206ZM34.2049 20.6983C34.7025 20.6983 35.0761 20.4755 35.3257 20.0297C35.5737 19.5807 35.7894 19.0012 35.9711 18.2911L38.7494 7.03166C38.8853 6.4171 38.9124 5.9331 38.8309 5.57965C38.7528 5.22302 38.4862 5.0447 38.0294 5.0447C37.2142 5.0447 36.647 5.69906 36.3311 7.00618L33.5188 18.3739C33.3592 19.0457 33.3048 19.6014 33.3558 20.0424C33.405 20.4802 33.6886 20.6983 34.2049 20.6983Z" fill="#222222"/>
<path d="M50.2428 25.1183C48.1319 25.1183 46.7054 24.5611 45.9632 23.4434C45.216 22.3225 45.1107 20.6604 45.644 18.4569L49.9779 0.848145H54.964L50.664 18.2595C50.4823 19.0237 50.4161 19.6223 50.467 20.0554C50.5163 20.4853 50.8016 20.6986 51.3229 20.6986C51.8392 20.6986 52.2298 20.4884 52.4981 20.0681C52.7647 19.6478 52.9889 19.046 53.1706 18.2595L57.4706 0.848145H62.4567L58.1295 18.4569C57.5895 20.6604 56.669 22.3225 55.3648 23.4434C54.0605 24.5611 52.3521 25.1183 50.2428 25.1183Z" fill="#222222"/>
<path d="M60.908 24.8954L66.8179 0.848145H71.7768L65.8601 24.8954H60.908Z" fill="#222222"/>
<path d="M76.4925 0.848145H83.5708C85.405 0.848145 86.6634 1.32419 87.3478 2.27468C88.0356 3.22676 88.1595 4.63578 87.7214 6.50333L85.0042 17.7564C84.4285 20.1254 83.5471 21.9086 82.3617 23.1059C81.1797 24.3 79.5511 24.8954 77.4775 24.8954H70.5826L76.4925 0.848145ZM77.6881 20.6413C78.6255 20.6413 79.2029 20.213 79.4203 19.3549L82.4636 6.94912C82.6028 6.41098 82.6572 6.00499 82.6266 5.73274C82.5994 5.46208 82.4806 5.27899 82.2734 5.18506C82.0645 5.09271 81.7113 5.04495 81.2137 5.04495H80.6431L76.7914 20.6413H77.6881Z" fill="#222222"/>
<path d="M1.03822 31.1633H84.4122" stroke="#222222"/>
<mask id="mask0_591_2585" style="mask-type:luminance" maskUnits="userSpaceOnUse" x="88" y="0" width="73" height="40">
<path d="M88.3318 0.673096H161V39.6018H88.3318V0.673096Z" fill="white"/>
</mask>
<g mask="url(#mask0_591_2585)">
<mask id="mask1_591_2585" style="mask-type:luminance" maskUnits="userSpaceOnUse" x="88" y="0" width="73" height="40">
<path d="M95.3235 0.673096H160.89L153.898 39.6018H88.3318L95.3235 0.673096Z" fill="white"/>
</mask>
<g mask="url(#mask1_591_2585)">
<path d="M88.3318 0.673096H160.837V39.6018H88.3318V0.673096Z" fill="#0081A7"/>
</g>
</g>
<path d="M0.590992 35.4036H1.82732C2.12961 35.4036 2.39114 35.4513 2.60852 35.5437C2.82589 35.6376 2.99232 35.7713 3.1112 35.9449C3.22838 36.12 3.28782 36.3238 3.28782 36.5563C3.28782 36.8795 3.2097 37.1644 3.05685 37.4096C2.90231 37.6516 2.68494 37.8411 2.40473 37.9764C2.12791 38.1086 1.80864 38.1738 1.44691 38.1738H0L0.590992 35.4036ZM1.46729 37.6453C1.69825 37.6453 1.89695 37.6007 2.06508 37.5115C2.2366 37.4192 2.36736 37.2934 2.45907 37.1358C2.54908 36.975 2.59493 36.7951 2.59493 36.5945C2.59493 36.3875 2.5219 36.2235 2.37755 36.1041C2.2315 35.9863 2.02432 35.9258 1.7526 35.9258H1.1684L0.801575 37.6453H1.46729Z" fill="#222222"/>
<path d="M4.6504 35.913L4.52133 36.518H5.90031L5.79163 37.0148H4.41265L4.27679 37.658H5.89352L5.77804 38.1738H3.4888L4.07979 35.4036H6.31469L6.19921 35.913H4.6504Z" fill="#222222"/>
<path d="M8.42859 37.5816H7.04961L6.66241 38.1738H5.93556L7.85119 35.4036H8.5237L9.25055 38.1738H8.56445L8.42859 37.5816ZM8.31311 37.0912L8.06177 36.0213L7.36888 37.0912H8.31311Z" fill="#222222"/>
<path d="M10.1491 35.4036H10.842L10.3597 37.6516H11.8405L11.7251 38.1738H9.55808L10.1491 35.4036Z" fill="#222222"/>
<path d="M13.2707 35.913L13.1417 36.518H14.5206L14.412 37.0148H13.033L12.8971 37.658H14.5138L14.3984 38.1738H12.1091L12.7001 35.4036H14.935L14.8195 35.913H13.2707Z" fill="#222222"/>
<path d="M17.8982 36.2633C17.8982 36.5228 17.8235 36.7457 17.674 36.932C17.5246 37.1151 17.3157 37.244 17.0491 37.3205L17.5654 38.1738H16.8453L16.3834 37.3969H15.7992L15.6293 38.1738H14.9433L15.5342 35.4036H16.7366C17.1034 35.4036 17.3887 35.48 17.5925 35.6328C17.7963 35.7825 17.8982 35.9926 17.8982 36.2633ZM16.4853 36.8874C16.7111 36.8874 16.8878 36.8396 17.0151 36.7409C17.1408 36.6438 17.2053 36.5037 17.2053 36.3206C17.2053 36.1901 17.1578 36.0914 17.0627 36.0277C16.9676 35.9608 16.8283 35.9258 16.6483 35.9258H16.1117L15.9011 36.8874H16.4853Z" fill="#222222"/>
<path d="M19.0801 38.2191C18.8441 38.2191 18.6199 38.1904 18.4076 38.1363C18.1936 38.0774 18.0221 38.0025 17.8914 37.9134L18.1699 37.4166C18.3057 37.5106 18.4569 37.5822 18.625 37.6332C18.7965 37.6841 18.9714 37.7096 19.1481 37.7096C19.3332 37.7096 19.4809 37.6809 19.5896 37.6204C19.7017 37.5615 19.7594 37.4835 19.7594 37.3848C19.7594 37.3004 19.7136 37.2367 19.6236 37.1938C19.537 37.1524 19.3994 37.1046 19.2092 37.0536C19.019 37.0027 18.8628 36.9549 18.7405 36.9072C18.6182 36.8562 18.5112 36.783 18.4212 36.6843C18.3346 36.5824 18.2921 36.4534 18.2921 36.2958C18.2921 36.1047 18.3465 35.9392 18.4552 35.7991C18.5673 35.6558 18.7269 35.5443 18.9307 35.4679C19.1345 35.3915 19.3722 35.3533 19.644 35.3533C19.8426 35.3533 20.0312 35.3756 20.2078 35.417C20.3878 35.4552 20.5423 35.5125 20.6697 35.5889L20.4116 36.0856C20.2978 36.014 20.1738 35.9615 20.0379 35.9264C19.9021 35.8882 19.7594 35.8691 19.61 35.8691C19.4147 35.8691 19.2601 35.901 19.1481 35.9646C19.0343 36.0283 18.9782 36.1095 18.9782 36.2066C18.9782 36.2703 19.0003 36.3245 19.0462 36.3659C19.0954 36.4041 19.1566 36.4359 19.2296 36.4614C19.3009 36.4869 19.4062 36.5171 19.5421 36.5505C19.7272 36.5983 19.8817 36.6461 20.004 36.697C20.1263 36.7448 20.2299 36.8148 20.3165 36.9072C20.4014 37.0011 20.4455 37.1237 20.4455 37.2765C20.4455 37.4676 20.3878 37.6364 20.2757 37.7796C20.1619 37.9198 20.0006 38.028 19.7934 38.1044C19.5896 38.1809 19.3519 38.2191 19.0801 38.2191Z" fill="#222222"/>
<path d="M24.0436 35.4036L23.4526 38.1738H22.7733L23.0111 37.0466H21.6728L21.4283 38.1738H20.7422L21.3332 35.4036H22.0261L21.7883 36.4926H23.1265L23.3643 35.4036H24.0436Z" fill="#222222"/>
<path d="M24.7459 35.4036H25.4387L24.841 38.1738H24.1549L24.7459 35.4036Z" fill="#222222"/>
<path d="M27.3267 35.4036C27.697 35.4036 27.9823 35.48 28.1827 35.6328C28.3865 35.7825 28.4884 35.9926 28.4884 36.2633C28.4884 36.4973 28.4289 36.7011 28.3117 36.8747C28.1929 37.045 28.0264 37.1772 27.809 37.2695C27.5951 37.3635 27.342 37.4096 27.0482 37.4096H26.3893L26.2263 38.1738H25.5402L26.1312 35.4036H27.3267ZM27.0754 36.8874C27.3064 36.8874 27.483 36.8396 27.6053 36.7409C27.7309 36.6438 27.7955 36.5037 27.7955 36.3206C27.7955 36.1901 27.7479 36.0914 27.6528 36.0277C27.5577 35.9608 27.4218 35.9258 27.2452 35.9258H26.7086L26.498 36.8874H27.0754Z" fill="#222222"/>
<path d="M33.7467 35.4036L33.1625 38.1738H32.5171L32.8636 36.5244L31.7359 37.8809H31.4302L30.8257 36.5117L30.4724 38.1738H29.8271L30.4181 35.4036H30.9751L31.7156 37.1294L33.1625 35.4036H33.7467Z" fill="#222222"/>
<path d="M35.9666 37.5816H34.5876L34.2004 38.1738H33.4735L35.3892 35.4036H36.0617L36.7885 38.1738H36.1024L35.9666 37.5816ZM35.8511 37.0912L35.5997 36.0213L34.9068 37.0912H35.8511Z" fill="#222222"/>
<path d="M40.3974 35.4036L39.8065 38.1738H39.2494L38.1422 36.4416L37.7753 38.1738H37.096L37.687 35.4036H38.2509L39.3581 37.1422L39.7249 35.4036H40.3974Z" fill="#222222"/>
<path d="M42.6146 37.5816H41.2356L40.8484 38.1738H40.1215L42.0372 35.4036H42.7097L43.4365 38.1738H42.7504L42.6146 37.5816ZM42.4991 37.0912L42.2478 36.0213L41.5549 37.0912H42.4991Z" fill="#222222"/>
<path d="M46.0535 36.7416H46.6784L46.4339 37.8879C46.2844 37.9946 46.1095 38.0774 45.9108 38.1363C45.7155 38.1904 45.5117 38.2191 45.2995 38.2191C45.004 38.2191 44.7458 38.1713 44.525 38.0726C44.3077 37.9707 44.1378 37.829 44.0156 37.6459C43.8967 37.4644 43.839 37.2543 43.839 37.0154C43.839 36.7018 43.9154 36.42 44.0699 36.1684C44.2228 35.9137 44.4401 35.7147 44.722 35.5698C45.0074 35.4265 45.33 35.3533 45.6934 35.3533C45.9788 35.3533 46.2233 35.3963 46.4271 35.4806C46.6343 35.5618 46.8024 35.6812 46.9298 35.8373L46.4407 36.2066C46.3405 36.1016 46.2267 36.0251 46.101 35.9774C45.9788 35.9264 45.8327 35.901 45.6663 35.901C45.4387 35.901 45.24 35.9487 45.0685 36.0411C44.8953 36.135 44.7628 36.264 44.6677 36.4295C44.576 36.5919 44.5318 36.7734 44.5318 36.9772C44.5318 37.1938 44.6032 37.3657 44.7492 37.4931C44.8987 37.6173 45.1109 37.6778 45.3878 37.6778C45.5644 37.6778 45.7274 37.6443 45.8769 37.5759L46.0535 36.7416Z" fill="#222222"/>
<path d="M48.1619 35.913L48.0328 36.518H49.4118L49.3031 37.0148H47.9241L47.7882 37.658H49.405L49.2895 38.1738H47.0003L47.5912 35.4036H49.8261L49.7107 35.913H48.1619Z" fill="#222222"/>
<path d="M53.7539 35.4036L53.1697 38.1738H52.5244L52.8709 36.5244L51.7432 37.8809H51.4375L50.8329 36.5117L50.4797 38.1738H49.8344L50.4254 35.4036H50.9824L51.7228 37.1294L53.1697 35.4036H53.7539Z" fill="#222222"/>
<path d="M55.0296 35.913L54.9005 36.518H56.2795L56.1708 37.0148H54.7918L54.656 37.658H56.2727L56.1572 38.1738H53.868L54.459 35.4036H56.6939L56.5784 35.913H55.0296Z" fill="#222222"/>
<path d="M60.0034 35.4036L59.4124 38.1738H58.8553L57.7481 36.4416L57.3813 38.1738H56.702L57.293 35.4036H57.8568L58.964 37.1422L59.3309 35.4036H60.0034Z" fill="#222222"/>
<path d="M61.2083 35.9258H60.2573L60.3728 35.4036H62.9473L62.8386 35.9258H61.8944L61.4121 38.1738H60.726L61.2083 35.9258Z" fill="#222222"/>
<path d="M64.9527 38.2191C64.7167 38.2191 64.4925 38.1904 64.2802 38.1363C64.0662 38.0774 63.8947 38.0025 63.7639 37.9134L64.0425 37.4166C64.1783 37.5106 64.3295 37.5822 64.4976 37.6332C64.6691 37.6841 64.844 37.7096 65.0206 37.7096C65.2058 37.7096 65.3535 37.6809 65.4622 37.6204C65.5743 37.5615 65.632 37.4835 65.632 37.3848C65.632 37.3004 65.5862 37.2367 65.4962 37.1938C65.4095 37.1524 65.272 37.1046 65.0818 37.0536C64.8916 37.0027 64.7353 36.9549 64.6131 36.9072C64.4908 36.8562 64.3838 36.783 64.2938 36.6843C64.2072 36.5824 64.1647 36.4534 64.1647 36.2958C64.1647 36.1047 64.2191 35.9392 64.3278 35.7991C64.4398 35.6558 64.5995 35.5443 64.8033 35.4679C65.0071 35.3915 65.2448 35.3533 65.5165 35.3533C65.7152 35.3533 65.9037 35.3756 66.0804 35.417C66.2604 35.4552 66.4149 35.5125 66.5423 35.5889L66.2841 36.0856C66.1704 36.014 66.0464 35.9615 65.9105 35.9264C65.7747 35.8882 65.632 35.8691 65.4826 35.8691C65.2873 35.8691 65.1327 35.901 65.0206 35.9646C64.9069 36.0283 64.8508 36.1095 64.8508 36.2066C64.8508 36.2703 64.8729 36.3245 64.9188 36.3659C64.968 36.4041 65.0291 36.4359 65.1022 36.4614C65.1735 36.4869 65.2788 36.5171 65.4146 36.5505C65.5997 36.5983 65.7543 36.6461 65.8766 36.697C65.9988 36.7448 66.1024 36.8148 66.189 36.9072C66.274 37.0011 66.3181 37.1237 66.3181 37.2765C66.3181 37.4676 66.2604 37.6364 66.1483 37.7796C66.0345 37.9198 65.8732 38.028 65.666 38.1044C65.4622 38.1809 65.2244 38.2191 64.9527 38.2191Z" fill="#222222"/>
<path d="M68.2383 37.2122L68.0345 38.1738H67.3484L67.559 37.1867L66.7982 35.4036H67.4843L68.0073 36.639L69.067 35.4036H69.7735L68.2383 37.2122Z" fill="#222222"/>
<path d="M70.5025 38.2191C70.2664 38.2191 70.0422 38.1904 69.83 38.1363C69.616 38.0774 69.4445 38.0025 69.3137 37.9134L69.5922 37.4166C69.7281 37.5106 69.8792 37.5822 70.0473 37.6332C70.2189 37.6841 70.3938 37.7096 70.5704 37.7096C70.7555 37.7096 70.9033 37.6809 71.012 37.6204C71.124 37.5615 71.1818 37.4835 71.1818 37.3848C71.1818 37.3004 71.1359 37.2367 71.0459 37.1938C70.9593 37.1524 70.8217 37.1046 70.6315 37.0536C70.4413 37.0027 70.2851 36.9549 70.1628 36.9072C70.0405 36.8562 69.9336 36.783 69.8436 36.6843C69.7569 36.5824 69.7145 36.4534 69.7145 36.2958C69.7145 36.1047 69.7688 35.9392 69.8775 35.7991C69.9896 35.6558 70.1492 35.5443 70.353 35.4679C70.5568 35.3915 70.7946 35.3533 71.0663 35.3533C71.265 35.3533 71.4535 35.3756 71.6301 35.417C71.8101 35.4552 71.9647 35.5125 72.092 35.5889L71.8339 36.0856C71.7201 36.014 71.5961 35.9615 71.4603 35.9264C71.3244 35.8882 71.1818 35.8691 71.0323 35.8691C70.837 35.8691 70.6825 35.901 70.5704 35.9646C70.4566 36.0283 70.4006 36.1095 70.4006 36.2066C70.4006 36.2703 70.4227 36.3245 70.4685 36.3659C70.5178 36.4041 70.5789 36.4359 70.6519 36.4614C70.7232 36.4869 70.8285 36.5171 70.9644 36.5505C71.1495 36.5983 71.304 36.6461 71.4263 36.697C71.5486 36.7448 71.6522 36.8148 71.7388 36.9072C71.8237 37.0011 71.8679 37.1237 71.8679 37.2765C71.8679 37.4676 71.8101 37.6364 71.698 37.7796C71.5843 37.9198 71.4229 38.028 71.2157 38.1044C71.012 38.1809 70.7742 38.2191 70.5025 38.2191Z" fill="#222222"/>
<path d="M73.2582 35.9258H72.3072L72.4227 35.4036H74.9972L74.8885 35.9258H73.9443L73.462 38.1738H72.7759L73.2582 35.9258Z" fill="#222222"/>
<path d="M75.9364 35.913L75.8074 36.518H77.1863L77.0777 37.0148H75.6987L75.5628 37.658H77.1796L77.0641 38.1738H74.7748L75.3658 35.4036H77.6007L77.4852 35.913H75.9364Z" fill="#222222"/>
<path d="M81.5283 35.4036L80.9441 38.1738H80.2988L80.6452 36.5244L79.5176 37.8809H79.2119L78.6073 36.5117L78.2541 38.1738H77.6088L78.1997 35.4036H78.7568L79.4972 37.1294L80.9441 35.4036H81.5283Z" fill="#222222"/>
<path d="M82.6748 38.2191C82.4387 38.2191 82.2146 38.1904 82.0023 38.1363C81.7883 38.0774 81.6168 38.0025 81.486 37.9134L81.7645 37.4166C81.9004 37.5106 82.0515 37.5822 82.2197 37.6332C82.3912 37.6841 82.5661 37.7096 82.7427 37.7096C82.9278 37.7096 83.0756 37.6809 83.1843 37.6204C83.2964 37.5615 83.3541 37.4835 83.3541 37.3848C83.3541 37.3004 83.3082 37.2367 83.2182 37.1938C83.1316 37.1524 82.9941 37.1046 82.8039 37.0536C82.6137 37.0027 82.4574 36.9549 82.3351 36.9072C82.2129 36.8562 82.1059 36.783 82.0159 36.6843C81.9293 36.5824 81.8868 36.4534 81.8868 36.2958C81.8868 36.1047 81.9411 35.9392 82.0498 35.7991C82.1619 35.6558 82.3216 35.5443 82.5253 35.4679C82.7291 35.3915 82.9669 35.3533 83.2386 35.3533C83.4373 35.3533 83.6258 35.3756 83.8024 35.417C83.9824 35.4552 84.137 35.5125 84.2644 35.5889L84.0062 36.0856C83.8924 36.014 83.7685 35.9615 83.6326 35.9264C83.4967 35.8882 83.3541 35.8691 83.2046 35.8691C83.0093 35.8691 82.8548 35.901 82.7427 35.9646C82.6289 36.0283 82.5729 36.1095 82.5729 36.2066C82.5729 36.2703 82.595 36.3245 82.6408 36.3659C82.6901 36.4041 82.7512 36.4359 82.8242 36.4614C82.8956 36.4869 83.0009 36.5171 83.1367 36.5505C83.3218 36.5983 83.4764 36.6461 83.5986 36.697C83.7209 36.7448 83.8245 36.8148 83.9111 36.9072C83.996 37.0011 84.0402 37.1237 84.0402 37.2765C84.0402 37.4676 83.9824 37.6364 83.8704 37.7796C83.7566 37.9198 83.5952 38.028 83.3881 38.1044C83.1843 38.1809 82.9465 38.2191 82.6748 38.2191Z" fill="#222222"/>
<path d="M106.332 10.667H111.861C113.288 10.667 114.268 11.0395 114.803 11.7815C115.341 12.525 115.441 13.6251 115.102 15.0803L112.975 23.8688C112.527 25.7204 111.838 27.1135 110.91 28.0465C109.986 28.9763 108.716 29.4412 107.099 29.4412H101.719L106.332 10.667ZM107.262 26.1168C107.996 26.1168 108.448 25.7825 108.621 25.1106L110.999 15.4306C111.107 15.0103 111.148 14.695 111.121 14.4817C111.097 14.2699 111.005 14.1282 110.842 14.055C110.679 13.9834 110.403 13.9467 110.014 13.9467H109.572L106.57 26.1168H107.262Z" fill="white"/>
<path d="M113.677 29.4412L118.29 10.667H124.397L123.256 22.1175L127.759 10.667H133.914L129.295 29.4412H125.633L128.968 15.9146L123.323 29.4412H119.737L120.62 15.9146L117.291 29.4412H113.677Z" fill="white"/>
<path d="M136.24 29.6132C134.42 29.6132 133.211 29.1913 132.613 28.3459C132.015 27.5021 131.95 26.1408 132.416 24.2637L132.857 22.4232H136.797L136.213 24.7668C135.982 25.6966 136.186 26.1615 136.824 26.1615C137.181 26.1615 137.456 26.0644 137.646 25.8686C137.84 25.6743 137.993 25.3432 138.102 24.8751C138.259 24.2637 138.307 23.759 138.244 23.3594C138.18 22.9566 138.062 22.6207 137.891 22.3532C137.723 22.0825 137.397 21.6622 136.913 21.0922L135.588 19.4746C134.559 18.2519 134.224 16.8986 134.583 15.4116C134.972 13.8067 135.663 12.5872 136.655 11.7497C137.65 10.9091 138.903 10.4888 140.411 10.4888C142.213 10.4888 143.402 10.9393 143.978 11.8389C144.552 12.7352 144.599 14.1363 144.12 16.0421H140.038L140.343 14.7556C140.406 14.5057 140.384 14.3082 140.275 14.1634C140.167 14.0201 139.978 13.9468 139.711 13.9468C139.402 13.9468 139.148 14.028 138.944 14.1888C138.74 14.3465 138.608 14.563 138.55 14.8384C138.39 15.4546 138.608 16.0898 139.202 16.7426L141.016 18.8378C141.437 19.3345 141.771 19.8058 142.021 20.2516C142.269 20.6974 142.429 21.2228 142.497 21.8246C142.568 22.428 142.503 23.1461 142.3 23.9771C141.833 25.8288 141.121 27.2314 140.167 28.1867C139.211 29.1388 137.901 29.6132 136.24 29.6132Z" fill="white"/>
</svg>
