<svg width="201" height="52" viewBox="0 0 201 52" fill="none" xmlns="http://www.w3.org/2000/svg">
<path d="M4.17773 32.1555L11.5191 0.292969H17.8986L11.8145 26.7382H18.388L17.1222 32.1555H4.17773Z" fill="#222222"/>
<path d="M21.9209 32.1555L29.2623 0.292969H35.4223L28.0725 32.1555H21.9209Z" fill="#222222"/>
<path d="M43.2924 32.1916C42.3241 32.3646 41.7777 32.4532 41.6553 32.4532C39.0837 32.4532 37.2969 31.7191 36.297 30.2508C35.297 28.7784 35.1304 26.6203 35.7991 23.7788L39.3179 8.3791C39.9634 5.63459 41.1258 3.55247 42.803 2.13486C44.4843 0.713026 46.6002 0 49.1486 0C51.697 0 53.4775 0.713026 54.4901 2.13486C55.5027 3.55247 55.6884 5.63459 55.0471 8.3791L51.5283 23.7788C50.908 26.3946 49.8321 28.4704 48.2963 30.0061L50.6338 31.7528L47.596 35.5331L43.2924 32.1916ZM42.9886 26.5971C43.6067 26.5971 44.0708 26.3018 44.3809 25.7111C44.6889 25.1162 44.9569 24.3483 45.1826 23.4075L48.6339 8.4888C48.8027 7.67452 48.8364 7.03322 48.7351 6.5649C48.6381 6.09236 48.3069 5.85609 47.7394 5.85609C46.7268 5.85609 46.0222 6.72311 45.6298 8.45505L42.1363 23.5172C41.938 24.4074 41.8705 25.1436 41.9338 25.728C41.995 26.3081 42.3473 26.5971 42.9886 26.5971Z" fill="#222222"/>
<path d="M62.9116 32.4508C60.2893 32.4508 58.5173 31.7125 57.5954 30.2316C56.6671 28.7465 56.5363 26.5441 57.1988 23.6245L62.5825 0.292969H68.7762L63.4347 23.3629C63.209 24.3755 63.1267 25.1687 63.19 25.7425C63.2512 26.3121 63.6056 26.5948 64.2533 26.5948C64.8946 26.5948 65.3798 26.3163 65.7131 25.7594C66.0443 25.2025 66.3228 24.4051 66.5485 23.3629L71.89 0.292969H78.0838L72.7085 23.6245C72.0377 26.5441 70.8943 28.7465 69.2741 30.2316C67.6539 31.7125 65.5317 32.4508 62.9116 32.4508Z" fill="#222222"/>
<path d="M76.1494 32.1555L83.4908 0.292969H89.6508L82.301 32.1555H76.1494Z" fill="#222222"/>
<path d="M95.5357 0.292969H104.329C106.607 0.292969 108.17 0.923722 109.02 2.18312C109.875 3.44463 110.029 5.31157 109.484 7.78607L106.109 22.6963C105.394 25.8353 104.299 28.198 102.827 29.7844C101.358 31.3665 99.3351 32.1555 96.7593 32.1555H88.1943L95.5357 0.292969ZM97.0209 26.5188C98.1854 26.5188 98.9026 25.9513 99.1727 24.8143L102.953 8.37674C103.126 7.66371 103.194 7.12578 103.156 6.76505C103.122 6.40642 102.974 6.16383 102.717 6.03936C102.457 5.91701 102.019 5.85372 101.4 5.85372H100.692L95.907 26.5188H97.0209Z" fill="#222222"/>
<path d="M1.80371 40.46H105.371" stroke="#222222"/>
<mask id="mask0_601_3259" style="mask-type:luminance" maskUnits="userSpaceOnUse" x="110" y="0" width="91" height="52">
<path d="M110.23 0.0654297H200.499V51.6459H110.23V0.0654297Z" fill="white"/>
</mask>
<g mask="url(#mask0_601_3259)">
<mask id="mask1_601_3259" style="mask-type:luminance" maskUnits="userSpaceOnUse" x="110" y="0" width="91" height="52">
<path d="M118.916 0.0654297H200.362L191.677 51.6459H110.23L118.916 0.0654297Z" fill="white"/>
</mask>
<g mask="url(#mask1_601_3259)">
<path d="M110.23 0.0654297H200.297V51.6459H110.23V0.0654297Z" fill="white"/>
</g>
</g>
<path d="M1.23512 46.0752H2.7709C3.14641 46.0752 3.47129 46.1385 3.74132 46.2608C4.01135 46.3853 4.21809 46.5625 4.36576 46.7924C4.51132 47.0245 4.58516 47.2945 4.58516 47.6025C4.58516 48.0307 4.48812 48.4083 4.29825 48.7332C4.10628 49.0539 3.83625 49.3049 3.48817 49.4842C3.1443 49.6593 2.7477 49.7458 2.29835 49.7458H0.500977L1.23512 46.0752ZM2.32367 49.0454C2.61057 49.0454 2.8574 48.9864 3.06625 48.8682C3.27932 48.7459 3.44175 48.5792 3.55567 48.3704C3.66748 48.1573 3.72444 47.9189 3.72444 47.6531C3.72444 47.3789 3.63373 47.1616 3.45441 47.0034C3.27299 46.8473 3.01562 46.7671 2.67808 46.7671H1.95238L1.49671 49.0454H2.32367Z" fill="#222222"/>
<path d="M6.27402 46.7502L6.11369 47.5519H7.82668L7.69167 48.2101H5.97868L5.80991 49.0623H7.81824L7.67479 49.7458H4.83105L5.56519 46.0752H8.34142L8.19797 46.7502H6.27402Z" fill="#222222"/>
<path d="M10.9856 48.961H9.27257L8.79158 49.7458H7.88867L10.2683 46.0752H11.1037L12.0066 49.7458H11.1543L10.9856 48.961ZM10.8421 48.3113L10.5299 46.8937L9.66917 48.3113H10.8421Z" fill="#222222"/>
<path d="M13.115 46.0752H13.9757L13.3766 49.0539H15.2162L15.0727 49.7458H12.3809L13.115 46.0752Z" fill="#222222"/>
<path d="M16.983 46.7502L16.8227 47.5519H18.5357L18.4007 48.2101H16.6877L16.5189 49.0623H18.5272L18.3838 49.7458H15.54L16.2742 46.0752H19.0504L18.907 46.7502H16.983Z" fill="#222222"/>
<path d="M22.7264 47.2143C22.7264 47.5582 22.6335 47.8535 22.4479 48.1004C22.2623 48.343 22.0028 48.5138 21.6716 48.6151L22.3129 49.7458H21.4184L20.8446 48.7163H20.1189L19.9079 49.7458H19.0557L19.7898 46.0752H21.2834C21.7391 46.0752 22.0935 46.1765 22.3466 46.379C22.5998 46.5773 22.7264 46.8557 22.7264 47.2143ZM20.9712 48.0413C21.2518 48.0413 21.4712 47.978 21.6294 47.8472C21.7855 47.7185 21.8656 47.5329 21.8656 47.2903C21.8656 47.1173 21.8066 46.9865 21.6884 46.9021C21.5703 46.8135 21.3973 46.7671 21.1737 46.7671H20.5071L20.2455 48.0413H20.9712Z" fill="#222222"/>
<path d="M24.2091 49.8079C23.9159 49.8079 23.6374 49.7699 23.3737 49.6982C23.1079 49.6202 22.8949 49.521 22.7324 49.4029L23.0784 48.7447C23.2472 48.8692 23.4349 48.9641 23.6438 49.0316C23.8568 49.0991 24.0741 49.1329 24.2935 49.1329C24.5235 49.1329 24.707 49.0949 24.842 49.0147C24.9813 48.9367 25.053 48.8333 25.053 48.7025C25.053 48.5907 24.996 48.5063 24.8842 48.4494C24.7766 48.3945 24.6057 48.3312 24.3695 48.2637C24.1332 48.1962 23.9391 48.1329 23.7872 48.0697C23.6353 48.0022 23.5024 47.9051 23.3906 47.7743C23.283 47.6393 23.2303 47.4684 23.2303 47.2596C23.2303 47.0064 23.2978 46.7871 23.4328 46.6014C23.572 46.4116 23.7703 46.2639 24.0235 46.1626C24.2766 46.0614 24.572 46.0107 24.9095 46.0107C25.1563 46.0107 25.3905 46.0403 25.6099 46.0951C25.8335 46.1458 26.0255 46.2217 26.1837 46.323L25.8631 46.9811C25.7217 46.8862 25.5677 46.8166 25.399 46.7702C25.2302 46.7195 25.053 46.6942 24.8673 46.6942C24.6247 46.6942 24.4328 46.7364 24.2935 46.8208C24.1522 46.9052 24.0826 47.0128 24.0826 47.1415C24.0826 47.2258 24.11 47.2976 24.1669 47.3524C24.2281 47.403 24.3041 47.4452 24.3948 47.479C24.4834 47.5127 24.6142 47.5528 24.783 47.5971C25.0129 47.6604 25.2049 47.7237 25.3568 47.7912C25.5087 47.8545 25.6373 47.9473 25.7449 48.0697C25.8504 48.1941 25.9053 48.3566 25.9053 48.5591C25.9053 48.8122 25.8335 49.0358 25.6943 49.2257C25.553 49.4113 25.3525 49.5548 25.0952 49.656C24.842 49.7573 24.5467 49.8079 24.2091 49.8079Z" fill="#222222"/>
<path d="M30.3833 46.0752L29.6491 49.7458H28.8053L29.1006 48.2522H27.4383L27.1345 49.7458H26.2822L27.0164 46.0752H27.8771L27.5817 47.5181H29.2441L29.5394 46.0752H30.3833Z" fill="#222222"/>
<path d="M31.2488 46.0752H32.1095L31.3669 49.7458H30.5146L31.2488 46.0752Z" fill="#222222"/>
<path d="M34.4576 46.0752C34.9175 46.0752 35.2719 46.1765 35.5208 46.379C35.774 46.5773 35.9005 46.8557 35.9005 47.2143C35.9005 47.5245 35.8267 47.7945 35.6811 48.0244C35.5335 48.2501 35.3267 48.4252 35.0567 48.5476C34.7909 48.672 34.4766 48.7332 34.1116 48.7332H33.2931L33.0906 49.7458H32.2383L32.9724 46.0752H34.4576ZM34.1454 48.0413C34.4323 48.0413 34.6517 47.978 34.8036 47.8472C34.9597 47.7185 35.0398 47.5329 35.0398 47.2903C35.0398 47.1173 34.9808 46.9865 34.8626 46.9021C34.7445 46.8135 34.5757 46.7671 34.3563 46.7671H33.6897L33.4281 48.0413H34.1454Z" fill="#222222"/>
<path d="M42.4148 46.0752L41.6891 49.7458H40.8875L41.3179 47.5603L39.9171 49.3576H39.5374L38.7863 47.5434L38.3475 49.7458H37.5459L38.28 46.0752H38.972L39.8918 48.3619L41.6891 46.0752H42.4148Z" fill="#222222"/>
<path d="M45.1652 48.961H43.4523L42.9713 49.7458H42.0684L44.448 46.0752H45.2834L46.1863 49.7458H45.334L45.1652 48.961ZM45.0218 48.3113L44.7096 46.8937L43.8489 48.3113H45.0218Z" fill="#222222"/>
<path d="M50.6948 46.0752L49.9607 49.7458H49.2687L47.8933 47.4506L47.4376 49.7458H46.5938L47.3279 46.0752H48.0283L49.4037 48.3788L49.8594 46.0752H50.6948Z" fill="#222222"/>
<path d="M53.4358 48.961H51.7228L51.2418 49.7458H50.3389L52.7185 46.0752H53.5539L54.4568 49.7458H53.6045L53.4358 48.961ZM53.2923 48.3113L52.9801 46.8937L52.1194 48.3113H53.2923Z" fill="#222222"/>
<path d="M57.7099 47.8503H58.4862L58.1824 49.3691C57.9968 49.5105 57.7795 49.6202 57.5327 49.6982C57.2901 49.7699 57.0369 49.8079 56.7732 49.8079C56.4062 49.8079 56.0855 49.7446 55.8113 49.6138C55.5412 49.4788 55.3303 49.2911 55.1784 49.0485C55.0307 48.808 54.959 48.5295 54.959 48.2131C54.959 47.7975 55.0539 47.4241 55.2459 47.0908C55.4358 46.7533 55.7058 46.4896 56.056 46.2976C56.4104 46.1078 56.8112 46.0107 57.2627 46.0107C57.6171 46.0107 57.9209 46.0677 58.174 46.1795C58.4314 46.2871 58.6402 46.4453 58.7985 46.652L58.1909 47.1415C58.0664 47.0022 57.9251 46.901 57.769 46.8377C57.6171 46.7702 57.4357 46.7364 57.2289 46.7364C56.9462 46.7364 56.6994 46.7997 56.4863 46.9221C56.2712 47.0465 56.1066 47.2174 55.9885 47.4368C55.8745 47.652 55.8197 47.8925 55.8197 48.1625C55.8197 48.4494 55.9083 48.6772 56.0897 48.846C56.2754 49.0105 56.5391 49.0907 56.8829 49.0907C57.1023 49.0907 57.3049 49.0464 57.4905 48.9557L57.7099 47.8503Z" fill="#222222"/>
<path d="M60.3414 46.7502L60.1811 47.5519H61.8941L61.7591 48.2101H60.0461L59.8773 49.0623H61.8856L61.7422 49.7458H58.8984L59.6326 46.0752H62.4088L62.2654 46.7502H60.3414Z" fill="#222222"/>
<path d="M67.283 46.0752L66.5573 49.7458H65.7557L66.186 47.5603L64.7852 49.3576H64.4055L63.6545 47.5434L63.2157 49.7458H62.4141L63.1482 46.0752H63.8402L64.7599 48.3619L66.5573 46.0752H67.283Z" fill="#222222"/>
<path d="M68.8697 46.7502L68.7094 47.5519H70.4224L70.2874 48.2101H68.5744L68.4056 49.0623H70.4139L70.2705 49.7458H67.4268L68.1609 46.0752H70.9371L70.7937 46.7502H68.8697Z" fill="#222222"/>
<path d="M75.0434 46.0752L74.3093 49.7458H73.6174L72.2419 47.4506L71.7862 49.7458H70.9424L71.6765 46.0752H72.3769L73.7524 48.3788L74.208 46.0752H75.0434Z" fill="#222222"/>
<path d="M76.5495 46.7671H75.3682L75.5116 46.0752H78.7098L78.5748 46.7671H77.4018L76.8027 49.7458H75.9504L76.5495 46.7671Z" fill="#222222"/>
<path d="M81.1759 49.8079C80.8827 49.8079 80.6042 49.7699 80.3405 49.6982C80.0747 49.6202 79.8617 49.521 79.6992 49.4029L80.0452 48.7447C80.214 48.8692 80.4017 48.9641 80.6106 49.0316C80.8236 49.0991 81.0409 49.1329 81.2603 49.1329C81.4903 49.1329 81.6738 49.0949 81.8088 49.0147C81.948 48.9367 82.0198 48.8333 82.0198 48.7025C82.0198 48.5907 81.9628 48.5063 81.851 48.4494C81.7434 48.3945 81.5725 48.3312 81.3363 48.2637C81.1 48.1962 80.9059 48.1329 80.754 48.0697C80.6021 48.0022 80.4692 47.9051 80.3574 47.7743C80.2498 47.6393 80.1971 47.4684 80.1971 47.2596C80.1971 47.0064 80.2646 46.7871 80.3996 46.6014C80.5388 46.4116 80.7371 46.2639 80.9903 46.1626C81.2434 46.0614 81.5388 46.0107 81.8763 46.0107C82.1231 46.0107 82.3573 46.0403 82.5767 46.0951C82.8003 46.1458 82.9923 46.2217 83.1505 46.323L82.8299 46.9811C82.6885 46.8862 82.5345 46.8166 82.3657 46.7702C82.197 46.7195 82.0198 46.6942 81.8341 46.6942C81.5915 46.6942 81.3996 46.7364 81.2603 46.8208C81.119 46.9052 81.0494 47.0128 81.0494 47.1415C81.0494 47.2258 81.0768 47.2976 81.1337 47.3524C81.1949 47.403 81.2709 47.4452 81.3616 47.479C81.4502 47.5127 81.581 47.5528 81.7497 47.5971C81.9797 47.6604 82.1717 47.7237 82.3236 47.7912C82.4754 47.8545 82.6041 47.9473 82.7117 48.0697C82.8172 48.1941 82.8721 48.3566 82.8721 48.5591C82.8721 48.8122 82.8003 49.0358 82.6611 49.2257C82.5198 49.4113 82.3193 49.5548 82.062 49.656C81.8088 49.7573 81.5135 49.8079 81.1759 49.8079Z" fill="#222222"/>
<path d="M85.2616 48.4716L85.0084 49.7458H84.1562L84.4178 48.4379L83.4727 46.0752H84.3249L84.9747 47.7122L86.2911 46.0752H87.1687L85.2616 48.4716Z" fill="#222222"/>
<path d="M88.0744 49.8079C87.7811 49.8079 87.5027 49.7699 87.239 49.6982C86.9732 49.6202 86.7601 49.521 86.5977 49.4029L86.9436 48.7447C87.1124 48.8692 87.3002 48.9641 87.509 49.0316C87.7221 49.0991 87.9394 49.1329 88.1588 49.1329C88.3887 49.1329 88.5722 49.0949 88.7073 49.0147C88.8465 48.9367 88.9182 48.8333 88.9182 48.7025C88.9182 48.5907 88.8613 48.5063 88.7494 48.4494C88.6419 48.3945 88.471 48.3312 88.2347 48.2637C87.9984 48.1962 87.8043 48.1329 87.6525 48.0697C87.5006 48.0022 87.3677 47.9051 87.2559 47.7743C87.1483 47.6393 87.0955 47.4684 87.0955 47.2596C87.0955 47.0064 87.163 46.7871 87.298 46.6014C87.4373 46.4116 87.6356 46.2639 87.8887 46.1626C88.1419 46.0614 88.4372 46.0107 88.7748 46.0107C89.0216 46.0107 89.2557 46.0403 89.4751 46.0951C89.6988 46.1458 89.8907 46.2217 90.049 46.323L89.7283 46.9811C89.587 46.8862 89.433 46.8166 89.2642 46.7702C89.0954 46.7195 88.9182 46.6942 88.7326 46.6942C88.49 46.6942 88.298 46.7364 88.1588 46.8208C88.0174 46.9052 87.9478 47.0128 87.9478 47.1415C87.9478 47.2258 87.9752 47.2976 88.0322 47.3524C88.0934 47.403 88.1693 47.4452 88.26 47.479C88.3486 47.5127 88.4794 47.5528 88.6482 47.5971C88.8781 47.6604 89.0701 47.7237 89.222 47.7912C89.3739 47.8545 89.5026 47.9473 89.6102 48.0697C89.7156 48.1941 89.7705 48.3566 89.7705 48.5591C89.7705 48.8122 89.6988 49.0358 89.5595 49.2257C89.4182 49.4113 89.2178 49.5548 88.9604 49.656C88.7073 49.7573 88.4119 49.8079 88.0744 49.8079Z" fill="#222222"/>
<path d="M91.49 46.7671H90.3086L90.452 46.0752H93.6502L93.5152 46.7671H92.3422L91.7431 49.7458H90.8908L91.49 46.7671Z" fill="#222222"/>
<path d="M94.8463 46.7502L94.686 47.5519H96.3989L96.2639 48.2101H94.5509L94.3822 49.0623H96.3905L96.2471 49.7458H93.4033L94.1375 46.0752H96.9137L96.7702 46.7502H94.8463Z" fill="#222222"/>
<path d="M101.788 46.0752L101.062 49.7458H100.261L100.691 47.5603L99.2901 49.3576H98.9104L98.1594 47.5434L97.7206 49.7458H96.9189L97.6531 46.0752H98.345L99.2648 48.3619L101.062 46.0752H101.788Z" fill="#222222"/>
<path d="M103.211 49.8079C102.918 49.8079 102.639 49.7699 102.376 49.6982C102.11 49.6202 101.897 49.521 101.734 49.4029L102.08 48.7447C102.249 48.8692 102.437 48.9641 102.646 49.0316C102.859 49.0991 103.076 49.1329 103.295 49.1329C103.525 49.1329 103.709 49.0949 103.844 49.0147C103.983 48.9367 104.055 48.8333 104.055 48.7025C104.055 48.5907 103.998 48.5063 103.886 48.4494C103.779 48.3945 103.608 48.3312 103.371 48.2637C103.135 48.1962 102.941 48.1329 102.789 48.0697C102.637 48.0022 102.504 47.9051 102.393 47.7743C102.285 47.6393 102.232 47.4684 102.232 47.2596C102.232 47.0064 102.3 46.7871 102.435 46.6014C102.574 46.4116 102.772 46.2639 103.025 46.1626C103.279 46.0614 103.574 46.0107 103.911 46.0107C104.158 46.0107 104.392 46.0403 104.612 46.0951C104.835 46.1458 105.027 46.2217 105.186 46.323L104.865 46.9811C104.724 46.8862 104.57 46.8166 104.401 46.7702C104.232 46.7195 104.055 46.6942 103.869 46.6942C103.627 46.6942 103.435 46.7364 103.295 46.8208C103.154 46.9052 103.085 47.0128 103.085 47.1415C103.085 47.2258 103.112 47.2976 103.169 47.3524C103.23 47.403 103.306 47.4452 103.397 47.479C103.485 47.5127 103.616 47.5528 103.785 47.5971C104.015 47.6604 104.207 47.7237 104.359 47.7912C104.511 47.8545 104.639 47.9473 104.747 48.0697C104.852 48.1941 104.907 48.3566 104.907 48.5591C104.907 48.8122 104.835 49.0358 104.696 49.2257C104.555 49.4113 104.354 49.5548 104.097 49.656C103.844 49.7573 103.549 49.8079 103.211 49.8079Z" fill="#222222"/>
<path d="M132.595 13.3125H139.464C141.236 13.3125 142.453 13.8061 143.118 14.7892C143.786 15.7743 143.911 17.232 143.489 19.1602L140.848 30.8048C140.291 33.2582 139.434 35.1041 138.282 36.3403C137.135 37.5722 135.557 38.1882 133.548 38.1882H126.865L132.595 13.3125ZM133.751 33.7835C134.662 33.7835 135.223 33.3405 135.439 32.4503L138.392 19.6243C138.527 19.0673 138.578 18.6496 138.544 18.367C138.514 18.0864 138.401 17.8986 138.198 17.8016C137.995 17.7067 137.652 17.6582 137.169 17.6582H136.62L132.89 33.7835H133.751Z" fill="#0080A7"/>
<path d="M141.709 38.1882L147.439 13.3125H155.025L153.607 28.4843L159.202 13.3125H166.847L161.109 38.1882H156.561L160.704 20.2656L153.691 38.1882H149.236L150.333 20.2656L146.198 38.1882H141.709Z" fill="#0080A7"/>
<path d="M169.725 38.4082C167.463 38.4082 165.961 37.8492 165.219 36.729C164.476 35.6109 164.396 33.8073 164.974 31.3201L165.523 28.8815H170.417L169.691 31.9867C169.404 33.2187 169.657 33.8347 170.451 33.8347C170.894 33.8347 171.235 33.706 171.472 33.4465C171.712 33.1892 171.902 32.7504 172.037 32.1302C172.233 31.3201 172.292 30.6514 172.214 30.1219C172.134 29.5882 171.989 29.1431 171.775 28.7887C171.567 28.43 171.162 27.8731 170.56 27.1179L168.915 24.9746C167.636 23.3545 167.221 21.5614 167.666 19.5911C168.149 17.4646 169.008 15.8487 170.24 14.7391C171.476 13.6253 173.033 13.0684 174.906 13.0684C177.144 13.0684 178.621 13.6654 179.336 14.8573C180.049 16.0449 180.108 17.9013 179.513 20.4264H174.442L174.822 18.7219C174.9 18.3907 174.872 18.1292 174.737 17.9372C174.602 17.7473 174.368 17.6503 174.037 17.6503C173.653 17.6503 173.337 17.7579 173.083 17.9709C172.83 18.1798 172.666 18.4667 172.594 18.8316C172.396 19.648 172.666 20.4897 173.404 21.3546L175.657 24.1308C176.18 24.789 176.596 25.4134 176.906 26.0041C177.214 26.5947 177.412 27.2909 177.497 28.0883C177.585 28.8878 177.505 29.8392 177.252 30.9404C176.672 33.3938 175.788 35.2523 174.602 36.518C173.415 37.7795 171.788 38.4082 169.725 38.4082Z" fill="#0080A7"/>
</svg>
