<svg width="24" height="28" viewBox="0 0 24 28" fill="none" xmlns="http://www.w3.org/2000/svg">
<path d="M22 2.66699L20 0.666992L18 2.66699L16 0.666992L14 2.66699L12 0.666992L10 2.66699L8 0.666992L6 2.66699L4 0.666992L2 2.66699L0 0.666992V27.3337L2 25.3337L4 27.3337L6 25.3337L8 27.3337L10 25.3337L12 27.3337L14 25.3337L16 27.3337L18 25.3337L20 27.3337L22 25.3337L24 27.3337V0.666992L22 2.66699ZM21.3333 23.4537H2.66667V4.54699H21.3333V23.4537ZM4 18.0003H20V20.667H4V18.0003ZM4 12.667H20V15.3337H4V12.667ZM4 7.33366H20V10.0003H4V7.33366Z" fill="#002733"/>
</svg>
