<svg width="14" height="14" viewBox="0 0 14 14" fill="none" xmlns="http://www.w3.org/2000/svg">
<path d="M13.6663 2.45301L6.05967 10.0663L3.23301 7.23967L4.17301 6.29967L6.05967 8.18634L12.7263 1.51967L13.6663 2.45301ZM12.193 5.81301C12.2797 6.19301 12.333 6.59301 12.333 6.99967C12.333 9.94634 9.94634 12.333 6.99967 12.333C4.05301 12.333 1.66634 9.94634 1.66634 6.99967C1.66634 4.05301 4.05301 1.66634 6.99967 1.66634C8.05301 1.66634 9.02634 1.97301 9.85301 2.49967L10.813 1.53967C9.73301 0.779674 8.41967 0.333008 6.99967 0.333008C3.31967 0.333008 0.333008 3.31967 0.333008 6.99967C0.333008 10.6797 3.31967 13.6663 6.99967 13.6663C10.6797 13.6663 13.6663 10.6797 13.6663 6.99967C13.6663 6.20634 13.5197 5.44634 13.2663 4.73967L12.193 5.81301Z" fill="white"/>
</svg>
