<svg width="124" height="125" viewBox="0 0 124 125" fill="none" xmlns="http://www.w3.org/2000/svg">
<path d="M90.6 106.965L92.5939 104.943V95.6068L81.327 106.965H90.6ZM90.7922 47.0967H33.208C32.211 47.0967 31.4062 47.908 31.4062 48.9131V105.149C31.4062 106.154 32.211 106.965 33.208 106.965H61.868L92.5939 75.9897V48.9131C92.5939 47.908 91.7892 47.0967 90.7922 47.0967ZM40.5111 61.192C37.7244 61.192 35.4662 58.9154 35.4662 56.1061C35.4662 53.2967 37.7244 51.0201 40.5111 51.0201C43.2979 51.0201 45.5561 53.2967 45.5561 56.1061C45.5561 58.9154 43.2979 61.192 40.5111 61.192ZM76.234 106.965L92.5939 90.4604V81.124L66.9609 106.965H76.234Z" fill="#DB2828"/>
<path d="M90.7922 43.4639H33.208C30.2291 43.4639 27.8027 45.91 27.8027 48.9131V105.149C27.8027 108.152 30.2291 110.598 33.208 110.598H90.8042C93.7831 110.598 96.2095 108.152 96.2095 105.149V48.9131C96.1975 45.91 93.7711 43.4639 90.7922 43.4639ZM92.5939 104.943L90.6 106.953H81.327L92.5939 95.5947V104.943ZM92.5939 90.4604L76.234 106.965H66.9609L92.5939 81.124V90.4604ZM92.5939 75.9775L61.868 106.965H33.208C32.211 106.965 31.4062 106.154 31.4062 105.149V48.9131C31.4062 47.908 32.211 47.0967 33.208 47.0967H90.8042C91.8012 47.0967 92.606 47.908 92.606 48.9131V75.9775H92.5939Z" fill="#222222"/>
<path d="M35.0579 35.2777H88.7022C90.0596 35.2777 91.1767 34.1637 91.1767 32.7832V28.8598C91.1767 27.4914 90.0716 26.3652 88.7022 26.3652H35.0579C33.7006 26.3652 32.5835 27.4793 32.5835 28.8598V32.7832C32.5835 34.1637 33.7006 35.2777 35.0579 35.2777Z" fill="#DB2828"/>
<path d="M35.0579 38.9111H88.7023C92.0535 38.9111 94.7802 36.1623 94.7802 32.7838V28.8604C94.7802 25.4818 92.0535 22.733 88.7023 22.733H70.8168V19.7783C70.8168 17.974 69.3634 16.5088 67.5736 16.5088H56.4388C54.649 16.5088 53.1956 17.974 53.1956 19.7783V22.733H35.0579C31.7066 22.733 28.98 25.4818 28.98 28.8604V32.7838C28.98 36.1623 31.7066 38.9111 35.0579 38.9111ZM32.5835 28.8604C32.5835 27.492 33.6886 26.3658 35.0579 26.3658H88.6902C90.0476 26.3658 91.1646 27.4799 91.1646 28.8604V32.7838C91.1646 34.1521 90.0596 35.2783 88.6902 35.2783H35.0579C33.7006 35.2783 32.5835 34.1643 32.5835 32.7838V28.8604ZM67.2133 20.1537V22.7451H56.7991V20.1537H67.2133Z" fill="#222222"/>
<path d="M56.7871 20.1533H67.2013V22.7447H56.7871V20.1533Z" fill="#DB2828"/>
<path d="M35.4663 56.1064C35.4663 56.7743 35.5968 57.4357 35.8503 58.0527C36.1039 58.6698 36.4755 59.2305 36.9439 59.7027C37.4124 60.175 37.9685 60.5496 38.5806 60.8052C39.1927 61.0608 39.8487 61.1924 40.5112 61.1924C41.1737 61.1924 41.8298 61.0608 42.4418 60.8052C43.0539 60.5496 43.6101 60.175 44.0785 59.7027C44.547 59.2305 44.9186 58.6698 45.1721 58.0527C45.4257 57.4357 45.5562 56.7743 45.5562 56.1064C45.5562 55.4386 45.4257 54.7772 45.1721 54.1601C44.9186 53.5431 44.547 52.9824 44.0785 52.5101C43.6101 52.0379 43.0539 51.6632 42.4418 51.4077C41.8298 51.1521 41.1737 51.0205 40.5112 51.0205C39.8487 51.0205 39.1927 51.1521 38.5806 51.4077C37.9685 51.6632 37.4124 52.0379 36.9439 52.5101C36.4755 52.9824 36.1039 53.5431 35.8503 54.1601C35.5968 54.7772 35.4663 55.4386 35.4663 56.1064Z" fill="white"/>
</svg>
