<svg width="16" height="16" viewBox="0 0 16 16" fill="none" xmlns="http://www.w3.org/2000/svg">
<g clip-path="url(#clip0_761_8898)">
<rect width="16" height="16" fill="white"/>
<path fill-rule="evenodd" clip-rule="evenodd" d="M0 0H6.85714V7.46667H0V0Z" fill="#1A47B8"/>
<path fill-rule="evenodd" clip-rule="evenodd" d="M6.85714 0V1.06667H16V0H6.85714ZM6.85714 2.13333V3.2H16V2.13333H6.85714ZM6.85714 4.26667V5.33333H16V4.26667H6.85714ZM6.85714 6.4V7.46667H16V6.4H6.85714ZM0 8.53333V9.6H16V8.53333H0ZM0 10.6667V11.7333H16V10.6667H0ZM0 12.8V13.8667H16V12.8H0ZM0 14.9333V16H16V14.9333H0Z" fill="#F93939"/>
<path fill-rule="evenodd" clip-rule="evenodd" d="M0.761963 1.06641V2.13307H1.52387V1.06641H0.761963ZM2.28577 1.06641V2.13307H3.04768V1.06641H2.28577ZM3.80958 1.06641V2.13307H4.57149V1.06641H3.80958ZM5.33339 1.06641V2.13307H6.0953V1.06641H5.33339ZM4.57149 2.13307V3.19974H5.33339V2.13307H4.57149ZM3.04768 2.13307V3.19974H3.80958V2.13307H3.04768ZM1.52387 2.13307V3.19974H2.28577V2.13307H1.52387ZM0.761963 3.19974V4.26641H1.52387V3.19974H0.761963ZM2.28577 3.19974V4.26641H3.04768V3.19974H2.28577ZM3.80958 3.19974V4.26641H4.57149V3.19974H3.80958ZM5.33339 3.19974V4.26641H6.0953V3.19974H5.33339ZM0.761963 5.33307V6.39974H1.52387V5.33307H0.761963ZM2.28577 5.33307V6.39974H3.04768V5.33307H2.28577ZM3.80958 5.33307V6.39974H4.57149V5.33307H3.80958ZM5.33339 5.33307V6.39974H6.0953V5.33307H5.33339ZM4.57149 4.26641V5.33307H5.33339V4.26641H4.57149ZM3.04768 4.26641V5.33307H3.80958V4.26641H3.04768ZM1.52387 4.26641V5.33307H2.28577V4.26641H1.52387Z" fill="white"/>
</g>
<defs>
<clipPath id="clip0_761_8898">
<rect width="16" height="16" fill="white"/>
</clipPath>
</defs>
</svg>
