<svg width="17" height="16" viewBox="0 0 17 16" fill="none" xmlns="http://www.w3.org/2000/svg">
<path d="M11.4998 13.147H3.49984V5.00033H8.1665V3.66699H3.49984C2.7665 3.66699 2.1665 4.26699 2.1665 5.00033V13.0003C2.1665 13.7337 2.7665 14.3337 3.49984 14.3337H11.4998C12.2332 14.3337 12.8332 13.7337 12.8332 13.0003V8.33366H11.4998V13.147Z" fill="white"/>
<path d="M12.8332 1.66699H11.4998V3.66699H9.49984C9.5065 3.67366 9.49984 5.00033 9.49984 5.00033H11.4998V6.99366C11.5065 7.00033 12.8332 6.99366 12.8332 6.99366V5.00033H14.8332V3.66699H12.8332V1.66699Z" fill="white"/>
<path d="M10.1665 6.33366H4.83317V7.66699H10.1665V6.33366Z" fill="white"/>
<path d="M4.83317 8.33366V9.66699H10.1665V8.33366H4.83317Z" fill="white"/>
<path d="M10.1665 10.3337H4.83317V11.667H10.1665V10.3337Z" fill="white"/>
</svg>
