<svg width="14" height="14" viewBox="0 0 14 14" fill="none" xmlns="http://www.w3.org/2000/svg">
<path d="M13.6667 2.4535L6.06 10.0668L3.23333 7.24016L4.17333 6.30016L6.06 8.18683L12.7267 1.52016L13.6667 2.4535ZM12.1933 5.8135C12.28 6.1935 12.3333 6.5935 12.3333 7.00016C12.3333 9.94683 9.94667 12.3335 7 12.3335C4.05333 12.3335 1.66667 9.94683 1.66667 7.00016C1.66667 4.0535 4.05333 1.66683 7 1.66683C8.05333 1.66683 9.02667 1.9735 9.85333 2.50016L10.8133 1.54016C9.73333 0.780163 8.42 0.333496 7 0.333496C3.32 0.333496 0.333334 3.32016 0.333334 7.00016C0.333334 10.6802 3.32 13.6668 7 13.6668C10.68 13.6668 13.6667 10.6802 13.6667 7.00016C13.6667 6.20683 13.52 5.44683 13.2667 4.74016L12.1933 5.8135Z" fill="white"/>
</svg>
