<svg width="32" height="22" viewBox="0 0 32 22" fill="none" xmlns="http://www.w3.org/2000/svg">
<path d="M24.75 8.375V2.25C24.75 1.2875 23.9625 0.5 23 0.5H2C1.0375 0.5 0.25 1.2875 0.25 2.25V19.75C0.25 20.7125 1.0375 21.5 2 21.5H23C23.9625 21.5 24.75 20.7125 24.75 19.75V13.625L28.7575 17.6325C29.86 18.735 31.75 17.9475 31.75 16.39V5.5925C31.75 4.035 29.86 3.2475 28.7575 4.35L24.75 8.375ZM17.75 12.75H14.25V16.25C14.25 17.2125 13.4625 18 12.5 18C11.5375 18 10.75 17.2125 10.75 16.25V12.75H7.25C6.2875 12.75 5.5 11.9625 5.5 11C5.5 10.0375 6.2875 9.25 7.25 9.25H10.75V5.75C10.75 4.7875 11.5375 4 12.5 4C13.4625 4 14.25 4.7875 14.25 5.75V9.25H17.75C18.7125 9.25 19.5 10.0375 19.5 11C19.5 11.9625 18.7125 12.75 17.75 12.75Z" fill="#B3B3B3"/>
</svg>
