<svg width="12" height="8" viewBox="0 0 12 8" fill="none" xmlns="http://www.w3.org/2000/svg">
<path d="M0.666667 4.66667C1.03333 4.66667 1.33333 4.36667 1.33333 4C1.33333 3.63333 1.03333 3.33333 0.666667 3.33333C0.3 3.33333 0 3.63333 0 4C0 4.36667 0.3 4.66667 0.666667 4.66667ZM0.666667 7.33333C1.03333 7.33333 1.33333 7.03333 1.33333 6.66667C1.33333 6.3 1.03333 6 0.666667 6C0.3 6 0 6.3 0 6.66667C0 7.03333 0.3 7.33333 0.666667 7.33333ZM0.666667 2C1.03333 2 1.33333 1.7 1.33333 1.33333C1.33333 0.966668 1.03333 0.666668 0.666667 0.666668C0.3 0.666668 0 0.966668 0 1.33333C0 1.7 0.3 2 0.666667 2ZM3.33333 4.66667H11.3333C11.7 4.66667 12 4.36667 12 4C12 3.63333 11.7 3.33333 11.3333 3.33333H3.33333C2.96667 3.33333 2.66667 3.63333 2.66667 4C2.66667 4.36667 2.96667 4.66667 3.33333 4.66667ZM3.33333 7.33333H11.3333C11.7 7.33333 12 7.03333 12 6.66667C12 6.3 11.7 6 11.3333 6H3.33333C2.96667 6 2.66667 6.3 2.66667 6.66667C2.66667 7.03333 2.96667 7.33333 3.33333 7.33333ZM2.66667 1.33333C2.66667 1.7 2.96667 2 3.33333 2H11.3333C11.7 2 12 1.7 12 1.33333C12 0.966668 11.7 0.666668 11.3333 0.666668H3.33333C2.96667 0.666668 2.66667 0.966668 2.66667 1.33333ZM0.666667 4.66667C1.03333 4.66667 1.33333 4.36667 1.33333 4C1.33333 3.63333 1.03333 3.33333 0.666667 3.33333C0.3 3.33333 0 3.63333 0 4C0 4.36667 0.3 4.66667 0.666667 4.66667ZM0.666667 7.33333C1.03333 7.33333 1.33333 7.03333 1.33333 6.66667C1.33333 6.3 1.03333 6 0.666667 6C0.3 6 0 6.3 0 6.66667C0 7.03333 0.3 7.33333 0.666667 7.33333ZM0.666667 2C1.03333 2 1.33333 1.7 1.33333 1.33333C1.33333 0.966668 1.03333 0.666668 0.666667 0.666668C0.3 0.666668 0 0.966668 0 1.33333C0 1.7 0.3 2 0.666667 2ZM3.33333 4.66667H11.3333C11.7 4.66667 12 4.36667 12 4C12 3.63333 11.7 3.33333 11.3333 3.33333H3.33333C2.96667 3.33333 2.66667 3.63333 2.66667 4C2.66667 4.36667 2.96667 4.66667 3.33333 4.66667ZM3.33333 7.33333H11.3333C11.7 7.33333 12 7.03333 12 6.66667C12 6.3 11.7 6 11.3333 6H3.33333C2.96667 6 2.66667 6.3 2.66667 6.66667C2.66667 7.03333 2.96667 7.33333 3.33333 7.33333ZM2.66667 1.33333C2.66667 1.7 2.96667 2 3.33333 2H11.3333C11.7 2 12 1.7 12 1.33333C12 0.966668 11.7 0.666668 11.3333 0.666668H3.33333C2.96667 0.666668 2.66667 0.966668 2.66667 1.33333Z" fill="#6D6D6D"/>
</svg>
