<svg width="26" height="18" viewBox="0 0 26 18" fill="none" xmlns="http://www.w3.org/2000/svg">
<rect width="26" height="18" rx="9" fill="#FF4234"/>
<path d="M4.664 12V6.04H5.32L8.744 10.856L8.448 10.888V6.04H9.24V12H8.584L5.176 7.152L5.448 7.12V12H4.664ZM12.3143 12.096C11.8983 12.096 11.5276 11.9973 11.2023 11.8C10.8769 11.6027 10.6209 11.3333 10.4343 10.992C10.2476 10.6453 10.1543 10.2587 10.1543 9.832C10.1543 9.4 10.2449 9.016 10.4263 8.68C10.6129 8.344 10.8636 8.08 11.1783 7.888C11.4983 7.69067 11.8556 7.592 12.2503 7.592C12.5703 7.592 12.8529 7.65067 13.0983 7.768C13.3489 7.88 13.5596 8.03467 13.7303 8.232C13.9063 8.424 14.0396 8.64533 14.1303 8.896C14.2263 9.14133 14.2743 9.39733 14.2743 9.664C14.2743 9.72267 14.2689 9.78933 14.2583 9.864C14.2529 9.93333 14.2449 10 14.2343 10.064H10.6983V9.424H13.8023L13.4503 9.712C13.4983 9.43467 13.4716 9.18667 13.3703 8.968C13.2689 8.74933 13.1196 8.576 12.9223 8.448C12.7249 8.32 12.5009 8.256 12.2503 8.256C11.9996 8.256 11.7703 8.32 11.5623 8.448C11.3543 8.576 11.1916 8.76 11.0743 9C10.9623 9.23467 10.9169 9.51467 10.9383 9.84C10.9169 10.1547 10.9649 10.432 11.0823 10.672C11.2049 10.9067 11.3756 11.0907 11.5943 11.224C11.8183 11.352 12.0609 11.416 12.3223 11.416C12.6103 11.416 12.8529 11.3493 13.0503 11.216C13.2476 11.0827 13.4076 10.912 13.5303 10.704L14.1543 11.024C14.0689 11.2213 13.9356 11.4027 13.7543 11.568C13.5783 11.728 13.3676 11.856 13.1223 11.952C12.8823 12.048 12.6129 12.096 12.3143 12.096ZM16.0843 12L14.6043 7.688H15.4283L16.6043 11.296L16.3163 11.288L17.4683 7.688H18.1723L19.3243 11.288L19.0363 11.296L20.2203 7.688H21.0363L19.5563 12H18.8443L17.7083 8.4H17.9323L16.7963 12H16.0843Z" fill="white"/>
</svg>
