<svg width="75" height="16" viewBox="0 0 75 16" fill="none" xmlns="http://www.w3.org/2000/svg">
<path d="M7.49996 11.2969L4.90621 12.8594C4.79163 12.9323 4.67184 12.9635 4.54684 12.9531C4.42184 12.9427 4.31246 12.901 4.21871 12.8281C4.12496 12.7552 4.05204 12.6642 3.99996 12.555C3.94788 12.4458 3.93746 12.3233 3.96871 12.1875L4.65621 9.23438L2.35934 7.25C2.25517 7.15625 2.19017 7.04938 2.16434 6.92937C2.1385 6.80937 2.14621 6.69229 2.18746 6.57813C2.22871 6.46396 2.29121 6.37021 2.37496 6.29688C2.45871 6.22354 2.57329 6.17667 2.71871 6.15625L5.74996 5.89062L6.92184 3.10938C6.97392 2.98438 7.05475 2.89062 7.16434 2.82812C7.27392 2.76562 7.38579 2.73437 7.49996 2.73438C7.61413 2.73438 7.726 2.76562 7.83559 2.82812C7.94517 2.89062 8.026 2.98438 8.07809 3.10938L9.24996 5.89062L12.2812 6.15625C12.427 6.17708 12.5416 6.22396 12.625 6.29688C12.7083 6.36979 12.7708 6.46354 12.8125 6.57813C12.8541 6.69271 12.862 6.81 12.8362 6.93C12.8104 7.05 12.7452 7.15667 12.6406 7.25L10.3437 9.23438L11.0312 12.1875C11.0625 12.3229 11.052 12.4454 11 12.555C10.9479 12.6646 10.875 12.7556 10.7812 12.8281C10.6875 12.9006 10.5781 12.9423 10.4531 12.9531C10.3281 12.964 10.2083 12.9327 10.0937 12.8594L7.49996 11.2969Z" fill="#FF9100"/>
<path d="M22.5 11.2969L19.9062 12.8594C19.7916 12.9323 19.6718 12.9635 19.5468 12.9531C19.4218 12.9427 19.3125 12.901 19.2187 12.8281C19.125 12.7552 19.052 12.6642 19 12.555C18.9479 12.4458 18.9375 12.3233 18.9687 12.1875L19.6562 9.23438L17.3593 7.25C17.2552 7.15625 17.1902 7.04938 17.1643 6.92937C17.1385 6.80937 17.1462 6.69229 17.1875 6.57813C17.2287 6.46396 17.2912 6.37021 17.375 6.29688C17.4587 6.22354 17.5733 6.17667 17.7187 6.15625L20.75 5.89062L21.9218 3.10938C21.9739 2.98438 22.0548 2.89062 22.1643 2.82812C22.2739 2.76562 22.3858 2.73437 22.5 2.73438C22.6141 2.73438 22.726 2.76562 22.8356 2.82812C22.9452 2.89062 23.026 2.98438 23.0781 3.10938L24.25 5.89062L27.2812 6.15625C27.427 6.17708 27.5416 6.22396 27.625 6.29688C27.7083 6.36979 27.7708 6.46354 27.8125 6.57813C27.8541 6.69271 27.862 6.81 27.8362 6.93C27.8104 7.05 27.7452 7.15667 27.6406 7.25L25.3437 9.23438L26.0312 12.1875C26.0625 12.3229 26.052 12.4454 26 12.555C25.9479 12.6646 25.875 12.7556 25.7812 12.8281C25.6875 12.9006 25.5781 12.9423 25.4531 12.9531C25.3281 12.964 25.2083 12.9327 25.0937 12.8594L22.5 11.2969Z" fill="#FF9100"/>
<path d="M37.5 11.2969L34.9062 12.8594C34.7916 12.9323 34.6718 12.9635 34.5468 12.9531C34.4218 12.9427 34.3125 12.901 34.2187 12.8281C34.125 12.7552 34.052 12.6642 34 12.555C33.9479 12.4458 33.9375 12.3233 33.9687 12.1875L34.6562 9.23438L32.3593 7.25C32.2552 7.15625 32.1902 7.04938 32.1643 6.92937C32.1385 6.80937 32.1462 6.69229 32.1875 6.57813C32.2287 6.46396 32.2912 6.37021 32.375 6.29688C32.4587 6.22354 32.5733 6.17667 32.7187 6.15625L35.75 5.89062L36.9218 3.10938C36.9739 2.98438 37.0548 2.89062 37.1643 2.82812C37.2739 2.76562 37.3858 2.73437 37.5 2.73438C37.6141 2.73438 37.726 2.76562 37.8356 2.82812C37.9452 2.89062 38.026 2.98438 38.0781 3.10938L39.25 5.89062L42.2812 6.15625C42.427 6.17708 42.5416 6.22396 42.625 6.29688C42.7083 6.36979 42.7708 6.46354 42.8125 6.57813C42.8541 6.69271 42.862 6.81 42.8362 6.93C42.8104 7.05 42.7452 7.15667 42.6406 7.25L40.3437 9.23438L41.0312 12.1875C41.0625 12.3229 41.052 12.4454 41 12.555C40.9479 12.6646 40.875 12.7556 40.7812 12.8281C40.6875 12.9006 40.5781 12.9423 40.4531 12.9531C40.3281 12.964 40.2083 12.9327 40.0937 12.8594L37.5 11.2969Z" fill="#FF9100"/>
<path d="M52.5 11.2969L49.9062 12.8594C49.7916 12.9323 49.6718 12.9635 49.5468 12.9531C49.4218 12.9427 49.3125 12.901 49.2187 12.8281C49.125 12.7552 49.052 12.6642 49 12.555C48.9479 12.4458 48.9375 12.3233 48.9687 12.1875L49.6562 9.23438L47.3593 7.25C47.2552 7.15625 47.1902 7.04938 47.1643 6.92937C47.1385 6.80937 47.1462 6.69229 47.1875 6.57813C47.2287 6.46396 47.2912 6.37021 47.375 6.29688C47.4587 6.22354 47.5733 6.17667 47.7187 6.15625L50.75 5.89062L51.9218 3.10938C51.9739 2.98438 52.0548 2.89062 52.1643 2.82812C52.2739 2.76562 52.3858 2.73437 52.5 2.73438C52.6141 2.73438 52.726 2.76562 52.8356 2.82812C52.9452 2.89062 53.026 2.98438 53.0781 3.10938L54.25 5.89062L57.2812 6.15625C57.427 6.17708 57.5416 6.22396 57.625 6.29688C57.7083 6.36979 57.7708 6.46354 57.8125 6.57813C57.8541 6.69271 57.862 6.81 57.8362 6.93C57.8104 7.05 57.7452 7.15667 57.6406 7.25L55.3437 9.23438L56.0312 12.1875C56.0625 12.3229 56.052 12.4454 56 12.555C55.9479 12.6646 55.875 12.7556 55.7812 12.8281C55.6875 12.9006 55.5781 12.9423 55.4531 12.9531C55.3281 12.964 55.2083 12.9327 55.0937 12.8594L52.5 11.2969Z" fill="#FF9100"/>
<path d="M67.5 11.2969L64.9062 12.8594C64.7916 12.9323 64.6718 12.9635 64.5468 12.9531C64.4218 12.9427 64.3125 12.901 64.2187 12.8281C64.125 12.7552 64.052 12.6642 64 12.555C63.9479 12.4458 63.9375 12.3233 63.9687 12.1875L64.6562 9.23438L62.3593 7.25C62.2552 7.15625 62.1902 7.04938 62.1643 6.92937C62.1385 6.80937 62.1462 6.69229 62.1875 6.57813C62.2287 6.46396 62.2912 6.37021 62.375 6.29688C62.4587 6.22354 62.5733 6.17667 62.7187 6.15625L65.75 5.89062L66.9218 3.10938C66.9739 2.98438 67.0548 2.89062 67.1643 2.82812C67.2739 2.76562 67.3858 2.73437 67.5 2.73438C67.6141 2.73438 67.726 2.76562 67.8356 2.82812C67.9452 2.89062 68.026 2.98438 68.0781 3.10938L69.25 5.89062L72.2812 6.15625C72.427 6.17708 72.5416 6.22396 72.625 6.29688C72.7083 6.36979 72.7708 6.46354 72.8125 6.57813C72.8541 6.69271 72.862 6.81 72.8362 6.93C72.8104 7.05 72.7452 7.15667 72.6406 7.25L70.3437 9.23438L71.0312 12.1875C71.0625 12.3229 71.052 12.4454 71 12.555C70.9479 12.6646 70.875 12.7556 70.7812 12.8281C70.6875 12.9006 70.5781 12.9423 70.4531 12.9531C70.3281 12.964 70.2083 12.9327 70.0937 12.8594L67.5 11.2969Z" fill="#FF9100"/>
</svg>
