<svg width="45" height="16" viewBox="0 0 45 16" fill="none" xmlns="http://www.w3.org/2000/svg">
<path d="M7.49996 11.2969L4.90621 12.8594C4.79163 12.9323 4.67184 12.9635 4.54684 12.9531C4.42184 12.9427 4.31246 12.901 4.21871 12.8281C4.12496 12.7552 4.05204 12.6642 3.99996 12.555C3.94788 12.4458 3.93746 12.3233 3.96871 12.1875L4.65621 9.23438L2.35934 7.25C2.25517 7.15625 2.19017 7.04938 2.16434 6.92937C2.1385 6.80937 2.14621 6.69229 2.18746 6.57813C2.22871 6.46396 2.29121 6.37021 2.37496 6.29688C2.45871 6.22354 2.57329 6.17667 2.71871 6.15625L5.74996 5.89062L6.92184 3.10938C6.97392 2.98438 7.05475 2.89062 7.16434 2.82812C7.27392 2.76562 7.38579 2.73437 7.49996 2.73438C7.61413 2.73438 7.726 2.76562 7.83559 2.82812C7.94517 2.89062 8.026 2.98438 8.07809 3.10938L9.24996 5.89062L12.2812 6.15625C12.427 6.17708 12.5416 6.22396 12.625 6.29688C12.7083 6.36979 12.7708 6.46354 12.8125 6.57813C12.8541 6.69271 12.862 6.81 12.8362 6.93C12.8104 7.05 12.7452 7.15667 12.6406 7.25L10.3437 9.23438L11.0312 12.1875C11.0625 12.3229 11.052 12.4454 11 12.555C10.9479 12.6646 10.875 12.7556 10.7812 12.8281C10.6875 12.9006 10.5781 12.9423 10.4531 12.9531C10.3281 12.964 10.2083 12.9327 10.0937 12.8594L7.49996 11.2969Z" fill="#FF9100"/>
<path d="M22.5 11.2969L19.9062 12.8594C19.7916 12.9323 19.6718 12.9635 19.5468 12.9531C19.4218 12.9427 19.3125 12.901 19.2187 12.8281C19.125 12.7552 19.052 12.6642 19 12.555C18.9479 12.4458 18.9375 12.3233 18.9687 12.1875L19.6562 9.23438L17.3593 7.25C17.2552 7.15625 17.1902 7.04938 17.1643 6.92937C17.1385 6.80937 17.1462 6.69229 17.1875 6.57813C17.2287 6.46396 17.2912 6.37021 17.375 6.29688C17.4587 6.22354 17.5733 6.17667 17.7187 6.15625L20.75 5.89062L21.9218 3.10938C21.9739 2.98438 22.0548 2.89062 22.1643 2.82812C22.2739 2.76562 22.3858 2.73437 22.5 2.73438C22.6141 2.73438 22.726 2.76562 22.8356 2.82812C22.9452 2.89062 23.026 2.98438 23.0781 3.10938L24.25 5.89062L27.2812 6.15625C27.427 6.17708 27.5416 6.22396 27.625 6.29688C27.7083 6.36979 27.7708 6.46354 27.8125 6.57813C27.8541 6.69271 27.862 6.81 27.8362 6.93C27.8104 7.05 27.7452 7.15667 27.6406 7.25L25.3437 9.23438L26.0312 12.1875C26.0625 12.3229 26.052 12.4454 26 12.555C25.9479 12.6646 25.875 12.7556 25.7812 12.8281C25.6875 12.9006 25.5781 12.9423 25.4531 12.9531C25.3281 12.964 25.2083 12.9327 25.0937 12.8594L22.5 11.2969Z" fill="#FF9100"/>
<path d="M37.5 11.2969L34.9062 12.8594C34.7916 12.9323 34.6718 12.9635 34.5468 12.9531C34.4218 12.9427 34.3125 12.901 34.2187 12.8281C34.125 12.7552 34.052 12.6642 34 12.555C33.9479 12.4458 33.9375 12.3233 33.9687 12.1875L34.6562 9.23438L32.3593 7.25C32.2552 7.15625 32.1902 7.04938 32.1643 6.92937C32.1385 6.80937 32.1462 6.69229 32.1875 6.57813C32.2287 6.46396 32.2912 6.37021 32.375 6.29688C32.4587 6.22354 32.5733 6.17667 32.7187 6.15625L35.75 5.89062L36.9218 3.10938C36.9739 2.98438 37.0548 2.89062 37.1643 2.82812C37.2739 2.76562 37.3858 2.73437 37.5 2.73438C37.6141 2.73438 37.726 2.76562 37.8356 2.82812C37.9452 2.89062 38.026 2.98438 38.0781 3.10938L39.25 5.89062L42.2812 6.15625C42.427 6.17708 42.5416 6.22396 42.625 6.29688C42.7083 6.36979 42.7708 6.46354 42.8125 6.57813C42.8541 6.69271 42.862 6.81 42.8362 6.93C42.8104 7.05 42.7452 7.15667 42.6406 7.25L40.3437 9.23438L41.0312 12.1875C41.0625 12.3229 41.052 12.4454 41 12.555C40.9479 12.6646 40.875 12.7556 40.7812 12.8281C40.6875 12.9006 40.5781 12.9423 40.4531 12.9531C40.3281 12.964 40.2083 12.9327 40.0937 12.8594L37.5 11.2969Z" fill="#FF9100"/>
</svg>
