<svg width="11" height="11" viewBox="0 0 11 11" fill="none" xmlns="http://www.w3.org/2000/svg">
<path d="M5.49996 9.29688L2.90621 10.8594C2.79163 10.9323 2.67184 10.9635 2.54684 10.9531C2.42184 10.9427 2.31246 10.901 2.21871 10.8281C2.12496 10.7552 2.05204 10.6642 1.99996 10.555C1.94788 10.4458 1.93746 10.3233 1.96871 10.1875L2.65621 7.23438L0.359336 5.25C0.25517 5.15625 0.19017 5.04938 0.164336 4.92937C0.138503 4.80937 0.146211 4.69229 0.187461 4.57813C0.228711 4.46396 0.291211 4.37021 0.374961 4.29688C0.458711 4.22354 0.573295 4.17667 0.718711 4.15625L3.74996 3.89062L4.92184 1.10938C4.97392 0.984375 5.05475 0.890625 5.16434 0.828125C5.27392 0.765625 5.38579 0.734375 5.49996 0.734375C5.61413 0.734375 5.726 0.765625 5.83559 0.828125C5.94517 0.890625 6.026 0.984375 6.07809 1.10938L7.24996 3.89062L10.2812 4.15625C10.427 4.17708 10.5416 4.22396 10.625 4.29688C10.7083 4.36979 10.7708 4.46354 10.8125 4.57813C10.8541 4.69271 10.862 4.81 10.8362 4.93C10.8104 5.05 10.7452 5.15667 10.6406 5.25L8.34371 7.23438L9.03121 10.1875C9.06246 10.3229 9.05204 10.4454 8.99996 10.555C8.94788 10.6646 8.87496 10.7556 8.78121 10.8281C8.68746 10.9006 8.57809 10.9423 8.45309 10.9531C8.32809 10.964 8.20829 10.9327 8.09371 10.8594L5.49996 9.29688Z" fill="#FF9100"/>
</svg>
