<svg width="10" height="8" viewBox="0 0 10 8" fill="none" xmlns="http://www.w3.org/2000/svg">
<path d="M5.0001 4.66666C4.26676 4.66666 3.66676 5.26666 3.66676 5.99999C3.66676 6.73332 4.26676 7.33332 5.0001 7.33332C5.73343 7.33332 6.33343 6.73332 6.33343 5.99999C6.33343 5.26666 5.73343 4.66666 5.0001 4.66666ZM0.586765 3.57999C0.166765 3.15999 0.193431 2.43999 0.673431 2.08666C1.88676 1.19332 3.3801 0.666656 5.0001 0.666656C6.6201 0.666656 8.11343 1.19332 9.32677 2.08666C9.80676 2.43999 9.83343 3.15332 9.41343 3.57999C9.0601 3.93999 8.5001 3.95999 8.09343 3.65999C7.2201 3.03332 6.15343 2.66666 5.0001 2.66666C3.84676 2.66666 2.7801 3.03332 1.90676 3.65999C1.5001 3.95332 0.940098 3.93332 0.586765 3.57999Z" fill="#1E1E1E"/>
</svg>
