<svg width="30" height="35" viewBox="0 0 30 35" fill="none" xmlns="http://www.w3.org/2000/svg">
<path d="M18 34.54L17.884 30H15C10.8307 30 7.28867 28.5427 4.374 25.628C1.45933 22.7133 0.00133425 19.1707 9.13659e-07 15C-0.00133242 10.8293 1.45667 7.28733 4.374 4.374C7.29133 1.46067 10.8333 0.00266667 15 0C17.0853 0 19.0373 0.390667 20.856 1.172C22.6747 1.952 24.2633 3.02133 25.622 4.38C26.9807 5.73867 28.05 7.32667 28.83 9.144C29.61 10.964 30 12.916 30 15C30 17.0387 29.7007 18.9967 29.102 20.874C28.5033 22.7513 27.6753 24.5253 26.618 26.196C25.5607 27.8667 24.294 29.4067 22.818 30.816C21.342 32.2253 19.736 33.466 18 34.538M20 30.7C22.3667 28.7 24.292 26.3587 25.776 23.676C27.26 20.9933 28.0013 18.1013 28 15C28 11.3667 26.7413 8.292 24.224 5.776C21.7067 3.26 18.632 2.00133 15 2C11.368 1.99867 8.29333 3.25733 5.776 5.776C3.25867 8.29467 2 11.3693 2 15C2 18.6307 3.25867 21.706 5.776 24.226C8.29333 26.746 11.368 28.004 15 28H20V30.7ZM15.066 25.142C15.4793 25.142 15.828 25 16.112 24.716C16.396 24.432 16.538 24.0833 16.538 23.67C16.538 23.2567 16.396 22.908 16.112 22.624C15.828 22.34 15.4793 22.1973 15.066 22.196C14.6527 22.196 14.304 22.3387 14.02 22.624C13.7347 22.908 13.592 23.2567 13.592 23.67C13.592 24.0833 13.734 24.432 14.018 24.716C14.3033 25 14.6527 25.142 15.066 25.142ZM14.192 19.292H15.962C16.0127 18.472 16.17 17.8233 16.434 17.346C16.698 16.87 17.3247 16.1367 18.314 15.146C18.89 14.5727 19.346 13.9867 19.682 13.388C20.0167 12.7907 20.184 12.1053 20.184 11.332C20.184 9.888 19.686 8.754 18.69 7.93C17.694 7.106 16.4893 6.69333 15.076 6.692C13.84 6.692 12.7933 7.03 11.936 7.706C11.076 8.382 10.446 9.188 10.046 10.124L11.692 10.762C11.9613 10.17 12.3547 9.63067 12.872 9.144C13.3907 8.65867 14.1253 8.416 15.076 8.416C16.2067 8.416 17.042 8.72333 17.582 9.338C18.122 9.954 18.392 10.626 18.392 11.354C18.392 12.0233 18.2187 12.5893 17.872 13.052C17.5267 13.5147 17.082 14.018 16.538 14.562C15.5767 15.4087 14.9453 16.1687 14.644 16.842C14.3427 17.5153 14.192 18.332 14.192 19.292Z" fill="#001B48"/>
</svg>
