<svg width="67" height="67" viewBox="0 0 67 67" fill="none" xmlns="http://www.w3.org/2000/svg">
<path d="M59.8335 0.583496H7.16683C3.546 0.583496 0.583496 3.546 0.583496 7.16683V66.4168L13.7502 53.2502H59.8335C63.4543 53.2502 66.4168 50.2877 66.4168 46.6668V7.16683C66.4168 3.546 63.4543 0.583496 59.8335 0.583496ZM36.7918 40.0835H30.2085V33.5002H36.7918V40.0835ZM42.7168 23.6252C41.7293 24.9418 40.4127 25.6002 39.096 26.2585C38.1085 26.9168 37.7793 27.246 37.4502 27.9043C36.7918 28.5627 36.7918 29.221 36.7918 30.2085H30.2085C30.2085 28.5627 30.5377 27.5752 31.196 26.5877C31.8543 25.9293 33.171 24.9418 34.8168 23.9543C35.8043 23.6252 36.4627 22.9668 36.7918 22.3085C37.121 21.6502 37.4502 20.6627 37.4502 20.0043C37.4502 19.0168 37.121 18.3585 36.4627 17.7002C35.8043 17.0418 34.8168 16.7127 33.8293 16.7127C32.8418 16.7127 32.1835 17.0418 31.5252 17.371C30.8668 17.7002 30.5377 18.3585 30.5377 19.346H23.9543C24.2835 17.0418 25.271 15.0668 26.9168 13.7502C28.5627 12.4335 30.8668 12.1043 33.8293 12.1043C36.7918 12.1043 39.4252 12.7627 41.071 14.0793C42.7168 15.396 43.7043 17.371 43.7043 19.6752C44.0335 20.9918 43.7043 22.3085 42.7168 23.6252Z" fill="url(#paint0_linear_311_14211)"/>
<defs>
<linearGradient id="paint0_linear_311_14211" x1="11.6652" y1="12.1577" x2="52.0517" y2="66.4168" gradientUnits="userSpaceOnUse">
<stop stop-color="#022252"/>
<stop offset="1" stop-color="#013D70"/>
</linearGradient>
</defs>
</svg>
