<svg width="14" height="15" viewBox="0 0 14 15" fill="none" xmlns="http://www.w3.org/2000/svg">
<path d="M11.7812 5.41406C12.1198 5.58594 12.4245 5.79688 12.6953 6.04688C12.9661 6.29688 13.2005 6.57812 13.3984 6.89062C13.5964 7.20312 13.7448 7.53646 13.8438 7.89062C13.9427 8.24479 13.9948 8.61458 14 9H13C13 8.58854 12.9219 8.20052 12.7656 7.83594C12.6094 7.47135 12.3932 7.15365 12.1172 6.88281C11.8411 6.61198 11.5234 6.39844 11.1641 6.24219C10.8047 6.08594 10.4167 6.00521 10 6C9.58854 6 9.20052 6.07812 8.83594 6.23438C8.47135 6.39062 8.15365 6.60677 7.88281 6.88281C7.61198 7.15885 7.39844 7.47656 7.24219 7.83594C7.08594 8.19531 7.00521 8.58333 7 9C7 9.47396 6.89323 9.92448 6.67969 10.3516C6.46615 10.7786 6.16667 11.1328 5.78125 11.4141C6.11979 11.5859 6.42448 11.7969 6.69531 12.0469C6.96615 12.2969 7.20052 12.5781 7.39844 12.8906C7.59635 13.2031 7.74479 13.5365 7.84375 13.8906C7.94271 14.2448 7.99479 14.6146 8 15H7C7 14.5885 6.92188 14.2005 6.76562 13.8359C6.60938 13.4714 6.39323 13.1536 6.11719 12.8828C5.84115 12.612 5.52344 12.3984 5.16406 12.2422C4.80469 12.0859 4.41667 12.0052 4 12C3.58854 12 3.20052 12.0781 2.83594 12.2344C2.47135 12.3906 2.15365 12.6068 1.88281 12.8828C1.61198 13.1589 1.39844 13.4766 1.24219 13.8359C1.08594 14.1953 1.00521 14.5833 1 15H0C0 14.6198 0.0520833 14.2526 0.15625 13.8984C0.260417 13.5443 0.408854 13.2109 0.601562 12.8984C0.794271 12.5859 1.02604 12.3047 1.29688 12.0547C1.56771 11.8047 1.875 11.5911 2.21875 11.4141C1.83854 11.1328 1.54167 10.7786 1.32812 10.3516C1.11458 9.92448 1.00521 9.47396 1 9C1 8.58854 1.07812 8.20052 1.23438 7.83594C1.39062 7.47135 1.60677 7.15365 1.88281 6.88281C2.15885 6.61198 2.47656 6.39844 2.83594 6.24219C3.19531 6.08594 3.58333 6.00521 4 6C4.47396 6 4.92448 6.10677 5.35156 6.32031C5.77865 6.53385 6.13281 6.83333 6.41406 7.21875C6.61198 6.82812 6.86458 6.47917 7.17188 6.17188C7.47917 5.86458 7.82812 5.61198 8.21875 5.41406C7.83854 5.13281 7.54167 4.77865 7.32812 4.35156C7.11458 3.92448 7.00521 3.47396 7 3C7 2.58854 7.07812 2.20052 7.23438 1.83594C7.39062 1.47135 7.60677 1.15365 7.88281 0.882812C8.15885 0.611979 8.47656 0.398438 8.83594 0.242188C9.19531 0.0859375 9.58333 0.00520833 10 0C10.4115 0 10.7995 0.078125 11.1641 0.234375C11.5286 0.390625 11.8464 0.606771 12.1172 0.882812C12.388 1.15885 12.6016 1.47656 12.7578 1.83594C12.9141 2.19531 12.9948 2.58333 13 3C13 3.47396 12.8932 3.92448 12.6797 4.35156C12.4661 4.77865 12.1667 5.13281 11.7812 5.41406ZM4 11C4.27083 11 4.52865 10.9479 4.77344 10.8438C5.01823 10.7396 5.22917 10.5964 5.40625 10.4141C5.58333 10.2318 5.72656 10.0208 5.83594 9.78125C5.94531 9.54167 6 9.28125 6 9C6 8.72917 5.94792 8.47135 5.84375 8.22656C5.73958 7.98177 5.59635 7.77083 5.41406 7.59375C5.23177 7.41667 5.01823 7.27344 4.77344 7.16406C4.52865 7.05469 4.27083 7 4 7C3.72396 7 3.46615 7.05208 3.22656 7.15625C2.98698 7.26042 2.77604 7.40365 2.59375 7.58594C2.41146 7.76823 2.26823 7.98177 2.16406 8.22656C2.0599 8.47135 2.00521 8.72917 2 9C2 9.27604 2.05208 9.53385 2.15625 9.77344C2.26042 10.013 2.40365 10.224 2.58594 10.4062C2.76823 10.5885 2.97917 10.7318 3.21875 10.8359C3.45833 10.9401 3.71875 10.9948 4 11ZM8 3C8 3.27604 8.05208 3.53385 8.15625 3.77344C8.26042 4.01302 8.40365 4.22396 8.58594 4.40625C8.76823 4.58854 8.97917 4.73177 9.21875 4.83594C9.45833 4.9401 9.71875 4.99479 10 5C10.2708 5 10.5286 4.94792 10.7734 4.84375C11.0182 4.73958 11.2292 4.59635 11.4062 4.41406C11.5833 4.23177 11.7266 4.02083 11.8359 3.78125C11.9453 3.54167 12 3.28125 12 3C12 2.72917 11.9479 2.47135 11.8438 2.22656C11.7396 1.98177 11.5964 1.77083 11.4141 1.59375C11.2318 1.41667 11.0182 1.27344 10.7734 1.16406C10.5286 1.05469 10.2708 1 10 1C9.72396 1 9.46615 1.05208 9.22656 1.15625C8.98698 1.26042 8.77604 1.40365 8.59375 1.58594C8.41146 1.76823 8.26823 1.98177 8.16406 2.22656C8.0599 2.47135 8.00521 2.72917 8 3Z" fill="#1A2C37"/>
</svg>
