<svg width="1440" height="64" viewBox="0 0 1440 64" fill="none" xmlns="http://www.w3.org/2000/svg">
<path d="M0 16.8842V82.8842H174V16.8842C160 17.3842 150 18.032 133 10.8603C97.5 -4.1158 75.5 -3.11585 41 10.8603C25.4071 17.1771 7 16.7175 0 16.8842Z" fill="#4C4C4C" fill-opacity="0.08"/>
<path d="M174 16.8842V82.8842H348V16.8842C334 17.3842 324 18.032 307 10.8603C271.5 -4.1158 249.5 -3.11585 215 10.8603C199.407 17.1771 181 16.7175 174 16.8842Z" fill="#4C4C4C" fill-opacity="0.08"/>
<path d="M348 16.8842V82.8842H522V16.8842C508 17.3842 498 18.032 481 10.8603C445.5 -4.1158 423.5 -3.11585 389 10.8603C373.407 17.1771 355 16.7175 348 16.8842Z" fill="#4C4C4C" fill-opacity="0.08"/>
<path d="M522 16.8842V82.8842H696V16.8842C682 17.3842 672 18.032 655 10.8603C619.5 -4.1158 597.5 -3.11585 563 10.8603C547.407 17.1771 529 16.7175 522 16.8842Z" fill="#4C4C4C" fill-opacity="0.08"/>
<path d="M696 16.8842V82.8842H870V16.8842C856 17.3842 846 18.032 829 10.8603C793.5 -4.1158 771.5 -3.11585 737 10.8603C721.407 17.1771 703 16.7175 696 16.8842Z" fill="#4C4C4C" fill-opacity="0.08"/>
<path d="M870 16.8842V82.8842H1044V16.8842C1030 17.3842 1020 18.032 1003 10.8603C967.5 -4.1158 945.5 -3.11585 911 10.8603C895.407 17.1771 877 16.7175 870 16.8842Z" fill="#4C4C4C" fill-opacity="0.08"/>
<path d="M1044 16.8842V82.8842H1218V16.8842C1204 17.3842 1194 18.032 1177 10.8603C1141.5 -4.1158 1119.5 -3.11585 1085 10.8603C1069.41 17.1771 1051 16.7175 1044 16.8842Z" fill="#4C4C4C" fill-opacity="0.08"/>
<path d="M1218 16.8842V82.8842H1392V16.8842C1378 17.3842 1368 18.032 1351 10.8603C1315.5 -4.1158 1293.5 -3.11585 1259 10.8603C1243.41 17.1771 1225 16.7175 1218 16.8842Z" fill="#4C4C4C" fill-opacity="0.08"/>
<path d="M1392 16.8842V82.8842H1566V16.8842C1552 17.3842 1542 18.032 1525 10.8603C1489.5 -4.1158 1467.5 -3.11585 1433 10.8603C1417.41 17.1771 1399 16.7175 1392 16.8842Z" fill="#4C4C4C" fill-opacity="0.08"/>
</svg>
