<svg width="14" height="14" viewBox="0 0 14 14" fill="none" xmlns="http://www.w3.org/2000/svg">
<path d="M3.33333 1.99992H8V0.333252L10.3333 2.66659L8 4.99992V3.33325H3.33333V4.99992L1 2.66659L3.33333 0.333252V1.99992ZM0 11.3333V4.33325H1.33333V11.3333C1.33333 11.6869 1.47381 12.026 1.72386 12.2761C1.97391 12.5261 2.31304 12.6666 2.66667 12.6666H9.66667V13.9999H2.66667C1.95942 13.9999 1.28115 13.719 0.781048 13.2189C0.280951 12.7188 0 12.0405 0 11.3333ZM12 10.6666V5.99992H13.6667L11.3333 3.66659L9 5.99992H10.6667V10.6666H9L11.3333 12.9999L13.6667 10.6666H12Z" fill="#1A2C37"/>
</svg>
