<svg width="1440" height="57" viewBox="0 0 1440 57" fill="none" xmlns="http://www.w3.org/2000/svg">
<path d="M-71 16.8842V82.8842H103V16.8842C89 17.3842 79 18.032 62 10.8603C26.5 -4.1158 4.5 -3.11585 -30 10.8603C-45.5929 17.1771 -64 16.7175 -71 16.8842Z" fill="#4C4C4C" fill-opacity="0.08"/>
<path d="M103 16.8842V82.8842H277V16.8842C263 17.3842 253 18.032 236 10.8603C200.5 -4.1158 178.5 -3.11585 144 10.8603C128.407 17.1771 110 16.7175 103 16.8842Z" fill="#4C4C4C" fill-opacity="0.08"/>
<path d="M277 16.8842V82.8842H451V16.8842C437 17.3842 427 18.032 410 10.8603C374.5 -4.1158 352.5 -3.11585 318 10.8603C302.407 17.1771 284 16.7175 277 16.8842Z" fill="#4C4C4C" fill-opacity="0.08"/>
<path d="M451 16.8842V82.8842H625V16.8842C611 17.3842 601 18.032 584 10.8603C548.5 -4.1158 526.5 -3.11585 492 10.8603C476.407 17.1771 458 16.7175 451 16.8842Z" fill="#4C4C4C" fill-opacity="0.08"/>
<path d="M625 16.8842V82.8842H799V16.8842C785 17.3842 775 18.032 758 10.8603C722.5 -4.1158 700.5 -3.11585 666 10.8603C650.407 17.1771 632 16.7175 625 16.8842Z" fill="#4C4C4C" fill-opacity="0.08"/>
<path d="M799 16.8842V82.8842H973V16.8842C959 17.3842 949 18.032 932 10.8603C896.5 -4.1158 874.5 -3.11585 840 10.8603C824.407 17.1771 806 16.7175 799 16.8842Z" fill="#4C4C4C" fill-opacity="0.08"/>
<path d="M973 16.8842V82.8842H1147V16.8842C1133 17.3842 1123 18.032 1106 10.8603C1070.5 -4.1158 1048.5 -3.11585 1014 10.8603C998.407 17.1771 980 16.7175 973 16.8842Z" fill="#4C4C4C" fill-opacity="0.08"/>
<path d="M1147 16.8842V82.8842H1321V16.8842C1307 17.3842 1297 18.032 1280 10.8603C1244.5 -4.1158 1222.5 -3.11585 1188 10.8603C1172.41 17.1771 1154 16.7175 1147 16.8842Z" fill="#4C4C4C" fill-opacity="0.08"/>
<path d="M1321 16.8842V82.8842H1495V16.8842C1481 17.3842 1471 18.032 1454 10.8603C1418.5 -4.1158 1396.5 -3.11585 1362 10.8603C1346.41 17.1771 1328 16.7175 1321 16.8842Z" fill="#4C4C4C" fill-opacity="0.08"/>
</svg>
