<svg width="11" height="11" viewBox="0 0 11 11" fill="none" xmlns="http://www.w3.org/2000/svg">
<path d="M5.49996 8.79688L2.90621 10.3594C2.79163 10.4323 2.67184 10.4635 2.54684 10.4531C2.42184 10.4427 2.31246 10.401 2.21871 10.3281C2.12496 10.2552 2.05204 10.1642 1.99996 10.055C1.94788 9.94583 1.93746 9.82333 1.96871 9.6875L2.65621 6.73438L0.359336 4.75C0.25517 4.65625 0.19017 4.54938 0.164336 4.42937C0.138503 4.30937 0.146211 4.19229 0.187461 4.07813C0.228711 3.96396 0.291211 3.87021 0.374961 3.79688C0.458711 3.72354 0.573295 3.67667 0.718711 3.65625L3.74996 3.39062L4.92184 0.609375C4.97392 0.484375 5.05475 0.390625 5.16434 0.328125C5.27392 0.265625 5.38579 0.234375 5.49996 0.234375C5.61413 0.234375 5.726 0.265625 5.83559 0.328125C5.94517 0.390625 6.026 0.484375 6.07809 0.609375L7.24996 3.39062L10.2812 3.65625C10.427 3.67708 10.5416 3.72396 10.625 3.79688C10.7083 3.86979 10.7708 3.96354 10.8125 4.07813C10.8541 4.19271 10.862 4.31 10.8362 4.43C10.8104 4.55 10.7452 4.65667 10.6406 4.75L8.34371 6.73438L9.03121 9.6875C9.06246 9.82292 9.05204 9.94542 8.99996 10.055C8.94788 10.1646 8.87496 10.2556 8.78121 10.3281C8.68746 10.4006 8.57809 10.4423 8.45309 10.4531C8.32809 10.464 8.20829 10.4327 8.09371 10.3594L5.49996 8.79688Z" fill="#F9C148"/>
</svg>
