<svg width="62" height="66" viewBox="0 0 62 66" fill="none" xmlns="http://www.w3.org/2000/svg">
<path d="M56.7706 28.8343C56.2236 28.2879 55.4742 27.4127 54.3263 27.2982C53.7987 27.2414 53.1139 27.4741 52.6266 27.8847C51.5787 28.7538 48.4271 32.2341 47.261 34.372C46.799 35.2161 46.8981 35.7755 47.1882 36.0685C47.5292 36.4069 47.9396 36.4535 48.7573 36.2864C49.4361 36.1479 50.0995 35.7634 50.726 36.0914C51.9788 36.7474 49.3762 42.0631 49.1383 42.5279C48.0455 44.6558 46.7421 46.713 44.9676 48.4144C43.5502 49.764 40.4594 51.4097 38.6812 50.0542C37.186 48.9285 36.5579 46.6421 35.8599 45.0286C34.7599 42.4792 33.7159 39.9357 32.6871 37.3497C32.2537 36.265 31.503 34.8297 31.9152 33.6189C32.5186 31.8368 38.1714 29.3651 38.7585 29.0186C39.9176 28.3301 40.2882 27.5664 39.9319 26.3128C39.6185 25.2102 38.7585 24.3284 37.4484 24.5048C36.0534 24.6891 34.6063 25.1494 33.242 25.5372C32.2063 25.837 29.8491 26.2348 28.9469 25.6642C28.646 25.4668 28.4214 25.1171 28.2896 24.8063C27.7758 23.5921 26.8715 21.961 27.3177 20.5828C27.5675 19.8153 28.3094 19.3052 28.8257 18.6905C29.1388 18.4328 29.4412 18.1565 29.7277 17.8628C32.9719 14.4596 33.7959 9.16516 31.6848 5.22182C29.2834 0.73529 23.5587 -0.875111 18.2994 0.43468C13.1374 2.08681 9.11539 6.4674 9.4362 11.5398C9.71975 16.0026 13.2002 20.0736 17.7493 21.2619C18.1439 21.3674 18.55 21.4369 18.9518 21.4914C19.7142 21.7427 20.6149 21.7913 21.2296 22.3077C22.334 23.2452 22.4228 25.1081 22.6244 26.4111C22.6771 26.7497 22.6701 27.1653 22.5165 27.4864C22.0508 28.4513 19.8352 29.3476 18.8017 29.6359C17.4374 30.0237 15.9645 30.3933 14.6812 30.9703C13.4741 31.5092 13.2064 32.7116 13.5198 33.8142C13.8761 35.0677 14.5929 35.5224 15.9359 35.4998C16.6189 35.4907 22.7252 34.6148 24.1758 35.8131C25.1617 36.6211 25.2796 38.2417 25.4814 39.3923C25.9651 42.1277 26.4114 44.8466 26.8166 47.5935C27.0766 49.3315 27.7413 51.6128 27.0653 53.3502C26.2608 55.4397 22.7716 55.6643 20.8562 55.2619C18.4471 54.7496 16.2566 53.6854 14.2129 52.4489C13.7661 52.1787 8.75672 49.0265 9.47732 47.8096C9.83763 47.2012 10.599 47.1806 11.2543 46.94C12.0376 46.6521 12.3622 46.3966 12.4742 45.9294C12.5668 45.5277 12.3569 44.9997 11.52 44.5248C9.40374 43.3198 4.89285 42.0174 3.54441 41.8293C2.91405 41.7364 2.20424 41.9 1.79041 42.2244C0.874254 42.9255 0.698693 44.0691 0.519365 44.8165C0.162089 46.3545 -0.197273 52.5181 0.547147 53.8355C0.886368 54.4355 1.7418 54.4971 2.4126 53.9473C3.04381 53.4306 3.28858 51.6307 4.60591 51.9582C4.99399 52.0601 5.33967 52.6638 5.53989 52.9279C5.83412 53.3122 6.17148 53.6952 6.45638 54.0658C10.2915 58.9828 15.6404 63.0996 22.1245 64.5485C26.7026 65.5707 31.7481 65.5187 36.4572 64.3218C41.092 62.863 45.412 60.2586 48.7668 56.9763C53.513 52.33 55.8985 46.0204 56.5743 39.8214C56.6267 39.3549 56.7072 38.8532 56.7603 38.3701C56.7931 38.0452 56.7632 37.3464 57.0447 37.0542C57.9979 36.0813 59.1477 37.4848 59.9563 37.5924C60.816 37.7071 61.5111 37.2049 61.4841 36.5161C61.4294 35.0027 57.882 29.9495 56.7706 28.8343ZM16.8385 11.8736C16.1531 9.46211 17.5527 6.9586 19.9592 6.27463C22.3656 5.59067 24.8742 6.98885 25.5582 9.39532C26.2421 11.8018 24.8439 14.3103 22.4375 14.9943C20.0324 15.6833 17.5225 14.2801 16.8385 11.8736Z" fill="#4C4C4C" fill-opacity="0.08"/>
</svg>
