<svg width="33" height="33" viewBox="0 0 33 33" fill="none" xmlns="http://www.w3.org/2000/svg">
<path d="M27.4179 16.0651H28.1748C29.5901 16.0651 30.297 16.0651 30.8238 16.3693C31.1689 16.5686 31.4555 16.8552 31.6548 17.2003C31.959 17.7271 31.959 18.434 31.959 19.8493C31.959 21.2646 31.959 21.9715 31.6548 22.4983C31.4555 22.8434 31.1689 23.13 30.8238 23.3293C30.297 23.6336 29.5901 23.6336 28.1748 23.6336H27.4179M6.22615 16.0651H5.46931C4.054 16.0651 3.3471 16.0651 2.82033 16.3693C2.47519 16.5686 2.18859 16.8552 1.98931 17.2003C1.68506 17.7271 1.68506 18.434 1.68506 19.8493C1.68506 21.2646 1.68506 21.9715 1.98931 22.4983C2.18859 22.8434 2.47519 23.13 2.82033 23.3293C3.3471 23.6336 4.054 23.6336 5.46931 23.6336H6.22615M16.822 6.22603C17.4242 6.22603 18.0018 5.98682 18.4276 5.561C18.8534 5.13519 19.0926 4.55767 19.0926 3.95548C19.0926 3.3533 18.8534 2.77578 18.4276 2.34996C18.0018 1.92415 17.4242 1.68494 16.822 1.68494C16.2199 1.68494 15.6423 1.92415 15.2165 2.34996C14.7907 2.77578 14.5515 3.3533 14.5515 3.95548C14.5515 4.55767 14.7907 5.13519 15.2165 5.561C15.6423 5.98682 16.2199 6.22603 16.822 6.22603ZM16.822 6.22603V10.7671M12.2809 16.8219V18.3356M21.3631 16.8219V18.3356M15.3083 10.7671H18.3357C22.6165 10.7671 24.7584 10.7671 26.0874 12.0977C27.4179 13.4267 27.4179 15.5686 27.4179 19.8493C27.4179 24.1301 27.4179 26.2719 26.0874 27.601C24.7584 28.9315 22.6165 28.9315 18.3357 28.9315H16.822C16.822 28.9315 16.0652 31.9589 10.7673 31.9589C10.7673 31.9589 12.2809 30.4316 12.2809 28.9058C9.93018 28.8346 8.52698 28.5728 7.5567 27.601C6.22615 26.2719 6.22615 24.1301 6.22615 19.8493C6.22615 15.5686 6.22615 13.4267 7.5567 12.0977C8.88572 10.7671 11.0276 10.7671 15.3083 10.7671Z" stroke="white" stroke-width="1.5" stroke-linecap="round" stroke-linejoin="round"/>
</svg>
