<svg width="90" height="90" viewBox="0 0 90 90" fill="none" xmlns="http://www.w3.org/2000/svg">
<path fill-rule="evenodd" clip-rule="evenodd" d="M31.0067 10.238C28.6962 11.1163 25.0904 13.0456 22.4812 14.7995C19.3595 16.898 15.0704 20.9002 12.9345 23.7078C9.09792 28.7506 7.09089 33.8797 5.93761 41.5895C5.16198 46.7739 5.10683 48.0902 5.03526 63.138C4.95917 79.1417 4.88979 78.1372 6.15792 79.4051C7.38151 80.6289 6.65761 80.5739 21.5617 80.5739C35.9565 80.5739 35.4526 80.6033 36.6418 79.6961C36.9456 79.4645 37.3839 78.952 37.6161 78.5573L38.0379 77.8395L38.0803 64.2044L38.1228 50.5692L37.7851 49.7844C37.3887 48.863 36.3007 47.8361 35.479 47.6078C35.1421 47.5144 32.335 47.4503 28.5457 47.4498L22.1785 47.4489V46.4664C22.1785 44.2294 22.8164 40.433 23.6148 37.9177C24.6762 34.5736 26.2957 31.8773 28.6417 29.5487C30.5556 27.6489 32.7718 26.1402 35.8873 24.6158C38.1654 23.5012 38.5071 23.2247 39.1331 21.9886C39.2989 21.6613 39.4093 21.0778 39.4148 20.5011C39.4226 19.6662 39.3186 19.3272 38.549 17.6802C35.6206 11.4128 35.3811 11.0152 34.1578 10.3911C33.2607 9.93344 31.9726 9.87094 31.0067 10.238ZM77.2117 10.1234C76.3457 10.2833 72.274 12.2758 70.0692 13.6186C63.3801 17.6925 58.1587 23.1505 55.1032 29.2625C52.869 33.7317 51.7623 38.2464 50.9829 46.0723C50.7757 48.152 50.7164 51.2616 50.6604 62.9805C50.5831 79.1598 50.5131 78.1353 51.7829 79.4051C53.0065 80.6287 52.2836 80.5739 67.1786 80.5739C81.6968 80.5739 81.1879 80.6055 82.3686 79.6323C82.6783 79.377 83.1137 78.8026 83.3364 78.3559L83.7411 77.5437L83.7376 64.0198C83.7342 50.752 83.7281 50.4825 83.4159 49.7927C83.0501 48.9844 82.4922 48.3548 81.7098 47.8676C81.1756 47.5348 81.0078 47.5252 74.4464 47.4489L67.7298 47.3708L67.7775 46.1208C67.9007 42.8922 68.6801 39.0498 69.7626 36.3355C70.8756 33.5445 72.2086 31.5087 74.2314 29.5106C76.0723 27.6922 77.9518 26.3964 80.9022 24.912C83.7304 23.4891 84.5209 22.8333 84.8411 21.6445C85.22 20.2375 85.0204 19.5286 83.1556 15.652C82.1148 13.4886 81.1912 11.7852 80.835 11.372C79.93 10.3225 78.6056 9.8661 77.2117 10.1234Z" fill="#007ADB"/>
</svg>
