<svg width="42" height="40" viewBox="0 0 42 40" fill="none" xmlns="http://www.w3.org/2000/svg">
<path d="M5 25L3 21H39L37 25M25 21H7L25 1V21ZM25 21H35L25 8V21ZM1 31L3.5 32.351C5.1 33.216 6.9 33.216 8.5 32.351C10.1 31.487 11.9 31.487 13.5 32.351C15.1 33.216 16.9 33.216 18.5 32.351C20.1 31.487 21.9 31.487 23.5 32.351C25.1 33.216 26.9 33.216 28.5 32.351C30.1 31.487 31.9 31.487 33.5 32.351C35.1 33.216 36.9 33.216 38.5 32.351L41 31M1 37L3.5 38.351C5.1 39.216 6.9 39.216 8.5 38.351C10.1 37.487 11.9 37.487 13.5 38.351C15.1 39.216 16.9 39.216 18.5 38.351C20.1 37.487 21.9 37.487 23.5 38.351C25.1 39.216 26.9 39.216 28.5 38.351C30.1 37.487 31.9 37.487 33.5 38.351C35.1 39.216 36.9 39.216 38.5 38.351L41 37" stroke="#001B48" stroke-width="2" stroke-miterlimit="2" stroke-linecap="round" stroke-linejoin="round"/>
</svg>
