<svg width="21" height="20" viewBox="0 0 21 20" fill="none" xmlns="http://www.w3.org/2000/svg">
<path d="M4.5 14.3283L4.0025 11.5425C3.93229 11.1499 4.00518 10.7452 4.20793 10.4018C4.41068 10.0583 4.72985 9.799 5.1075 9.67083L5.24917 9.6225M5.24917 9.6225L9.965 8.0225C10.312 7.9049 10.688 7.9049 11.035 8.0225L15.75 9.6225M5.24917 9.6225L5.25 6.45583C5.25 6.01381 5.42559 5.58988 5.73816 5.27732C6.05072 4.96476 6.47464 4.78917 6.91667 4.78917H9M15.75 9.6225L15.8917 9.67083C16.2695 9.79885 16.5888 10.0581 16.7917 10.4016C16.9947 10.745 17.0677 11.1498 16.9975 11.5425L16.5 14.3275M15.75 9.6225V6.45583C15.75 6.01381 15.5744 5.58988 15.2618 5.27732C14.9493 4.96476 14.5254 4.78917 14.0833 4.78917H12M9 4.78917H12M9 4.78917V4C9 3.60218 9.15804 3.22064 9.43934 2.93934C9.72064 2.65804 10.1022 2.5 10.5 2.5C10.8978 2.5 11.2794 2.65804 11.5607 2.93934C11.842 3.22064 12 3.60218 12 4V4.78917M3 16.9992C3.53917 17.5467 4.85167 17.7017 6.10417 17.1792C6.96417 16.8208 8.05083 16.8117 8.93 17.12C9.94781 17.4676 11.0522 17.4676 12.07 17.12C12.9492 16.8117 14.0358 16.82 14.895 17.1783C16.1483 17.7017 17.4617 17.5467 18 16.9983" stroke="#C3974C" stroke-width="1.5" stroke-linecap="round" stroke-linejoin="round"/>
</svg>
