<svg width="14" height="18" viewBox="0 0 14 18" fill="none" xmlns="http://www.w3.org/2000/svg">
<path d="M7.46648 16.35C7.33048 16.4477 7.16726 16.5002 6.99982 16.5002C6.83237 16.5002 6.66915 16.4477 6.53315 16.35C2.50898 13.4817 -1.76185 7.58167 2.55565 3.31833C3.74094 2.15237 5.33718 1.49927 6.99982 1.5C8.66648 1.5 10.2657 2.15417 11.444 3.3175C15.7615 7.58083 11.4907 13.48 7.46648 16.35Z" stroke="#C3974C" stroke-width="1.5" stroke-linecap="round" stroke-linejoin="round"/>
<path d="M6.99967 8.99984C7.4417 8.99984 7.86563 8.82424 8.17819 8.51168C8.49075 8.19912 8.66634 7.7752 8.66634 7.33317C8.66634 6.89114 8.49075 6.46722 8.17819 6.15466C7.86563 5.8421 7.4417 5.6665 6.99967 5.6665C6.55765 5.6665 6.13372 5.8421 5.82116 6.15466C5.5086 6.46722 5.33301 6.89114 5.33301 7.33317C5.33301 7.7752 5.5086 8.19912 5.82116 8.51168C6.13372 8.82424 6.55765 8.99984 6.99967 8.99984Z" stroke="#C3974C" stroke-width="1.5" stroke-linecap="round" stroke-linejoin="round"/>
</svg>
