<svg width="120" height="25" viewBox="0 0 120 25" fill="none" xmlns="http://www.w3.org/2000/svg">
<path d="M11.9998 17.7752L7.84984 20.2752C7.66651 20.3919 7.47484 20.4419 7.27484 20.4252C7.07484 20.4085 6.89984 20.3419 6.74984 20.2252C6.59984 20.1085 6.48317 19.9629 6.39984 19.7882C6.31651 19.6135 6.29984 19.4175 6.34984 19.2002L7.44984 14.4752L3.77484 11.3002C3.60817 11.1502 3.50417 10.9792 3.46284 10.7872C3.42151 10.5952 3.43384 10.4079 3.49984 10.2252C3.56584 10.0425 3.66584 9.89253 3.79984 9.7752C3.93384 9.65786 4.11717 9.58286 4.34984 9.5502L9.19984 9.1252L11.0748 4.6752C11.1582 4.4752 11.2875 4.3252 11.4628 4.2252C11.6382 4.1252 11.8172 4.0752 11.9998 4.0752C12.1825 4.0752 12.3615 4.1252 12.5368 4.2252C12.7122 4.3252 12.8415 4.4752 12.9248 4.6752L14.7998 9.1252L19.6498 9.5502C19.8832 9.58353 20.0665 9.65853 20.1998 9.7752C20.3332 9.89186 20.4332 10.0419 20.4998 10.2252C20.5665 10.4085 20.5792 10.5962 20.5378 10.7882C20.4965 10.9802 20.3922 11.1509 20.2248 11.3002L16.5498 14.4752L17.6498 19.2002C17.6998 19.4169 17.6832 19.6129 17.5998 19.7882C17.5165 19.9635 17.3998 20.1092 17.2498 20.2252C17.0998 20.3412 16.9248 20.4079 16.7248 20.4252C16.5248 20.4425 16.3332 20.3925 16.1498 20.2752L11.9998 17.7752Z" fill="#F9C148"/>
<path d="M35.9998 17.7752L31.8498 20.2752C31.6665 20.3919 31.4748 20.4419 31.2748 20.4252C31.0748 20.4085 30.8998 20.3419 30.7498 20.2252C30.5998 20.1085 30.4832 19.9629 30.3998 19.7882C30.3165 19.6135 30.2998 19.4175 30.3498 19.2002L31.4498 14.4752L27.7748 11.3002C27.6082 11.1502 27.5042 10.9792 27.4628 10.7872C27.4215 10.5952 27.4338 10.4079 27.4998 10.2252C27.5658 10.0425 27.6658 9.89253 27.7998 9.7752C27.9338 9.65786 28.1172 9.58286 28.3498 9.5502L33.1998 9.1252L35.0748 4.6752C35.1582 4.4752 35.2875 4.3252 35.4628 4.2252C35.6382 4.1252 35.8172 4.0752 35.9998 4.0752C36.1825 4.0752 36.3615 4.1252 36.5368 4.2252C36.7122 4.3252 36.8415 4.4752 36.9248 4.6752L38.7998 9.1252L43.6498 9.5502C43.8832 9.58353 44.0665 9.65853 44.1998 9.7752C44.3332 9.89186 44.4332 10.0419 44.4998 10.2252C44.5665 10.4085 44.5792 10.5962 44.5378 10.7882C44.4965 10.9802 44.3922 11.1509 44.2248 11.3002L40.5498 14.4752L41.6498 19.2002C41.6998 19.4169 41.6832 19.6129 41.5998 19.7882C41.5165 19.9635 41.3998 20.1092 41.2498 20.2252C41.0998 20.3412 40.9248 20.4079 40.7248 20.4252C40.5248 20.4425 40.3332 20.3925 40.1498 20.2752L35.9998 17.7752Z" fill="#F9C148"/>
<path d="M59.9998 17.7752L55.8498 20.2752C55.6665 20.3919 55.4748 20.4419 55.2748 20.4252C55.0748 20.4085 54.8998 20.3419 54.7498 20.2252C54.5998 20.1085 54.4832 19.9629 54.3998 19.7882C54.3165 19.6135 54.2998 19.4175 54.3498 19.2002L55.4498 14.4752L51.7748 11.3002C51.6082 11.1502 51.5042 10.9792 51.4628 10.7872C51.4215 10.5952 51.4338 10.4079 51.4998 10.2252C51.5658 10.0425 51.6658 9.89253 51.7998 9.7752C51.9338 9.65786 52.1172 9.58286 52.3498 9.5502L57.1998 9.1252L59.0748 4.6752C59.1582 4.4752 59.2875 4.3252 59.4628 4.2252C59.6382 4.1252 59.8172 4.0752 59.9998 4.0752C60.1825 4.0752 60.3615 4.1252 60.5368 4.2252C60.7122 4.3252 60.8415 4.4752 60.9248 4.6752L62.7998 9.1252L67.6498 9.5502C67.8832 9.58353 68.0665 9.65853 68.1998 9.7752C68.3332 9.89186 68.4332 10.0419 68.4998 10.2252C68.5665 10.4085 68.5792 10.5962 68.5378 10.7882C68.4965 10.9802 68.3922 11.1509 68.2248 11.3002L64.5498 14.4752L65.6498 19.2002C65.6998 19.4169 65.6832 19.6129 65.5998 19.7882C65.5165 19.9635 65.3998 20.1092 65.2498 20.2252C65.0998 20.3412 64.9248 20.4079 64.7248 20.4252C64.5248 20.4425 64.3332 20.3925 64.1498 20.2752L59.9998 17.7752Z" fill="#F9C148"/>
<path d="M83.9998 17.7752L79.8498 20.2752C79.6665 20.3919 79.4748 20.4419 79.2748 20.4252C79.0748 20.4085 78.8998 20.3419 78.7498 20.2252C78.5998 20.1085 78.4832 19.9629 78.3998 19.7882C78.3165 19.6135 78.2998 19.4175 78.3498 19.2002L79.4498 14.4752L75.7748 11.3002C75.6082 11.1502 75.5042 10.9792 75.4628 10.7872C75.4215 10.5952 75.4338 10.4079 75.4998 10.2252C75.5658 10.0425 75.6658 9.89253 75.7998 9.7752C75.9338 9.65786 76.1172 9.58286 76.3498 9.5502L81.1998 9.1252L83.0748 4.6752C83.1582 4.4752 83.2875 4.3252 83.4628 4.2252C83.6382 4.1252 83.8172 4.0752 83.9998 4.0752C84.1825 4.0752 84.3615 4.1252 84.5368 4.2252C84.7122 4.3252 84.8415 4.4752 84.9248 4.6752L86.7998 9.1252L91.6498 9.5502C91.8832 9.58353 92.0665 9.65853 92.1998 9.7752C92.3332 9.89186 92.4332 10.0419 92.4998 10.2252C92.5665 10.4085 92.5792 10.5962 92.5378 10.7882C92.4965 10.9802 92.3922 11.1509 92.2248 11.3002L88.5498 14.4752L89.6498 19.2002C89.6998 19.4169 89.6832 19.6129 89.5998 19.7882C89.5165 19.9635 89.3998 20.1092 89.2498 20.2252C89.0998 20.3412 88.9248 20.4079 88.7248 20.4252C88.5248 20.4425 88.3332 20.3925 88.1498 20.2752L83.9998 17.7752Z" fill="#F9C148"/>
<path d="M108.258 17.3469L108 17.1915L107.742 17.3469L103.592 19.8469L103.592 19.8468L103.581 19.8534C103.482 19.9165 103.398 19.9337 103.316 19.9269C103.207 19.9178 103.126 19.8842 103.057 19.8305C102.969 19.7625 102.902 19.6787 102.851 19.5729C102.824 19.5154 102.808 19.4374 102.837 19.3129C102.837 19.3127 102.837 19.3125 102.837 19.3123L103.937 14.5886L104.005 14.2943L103.777 14.0968L100.106 10.9255C100.008 10.8367 99.9676 10.7561 99.9516 10.682C99.9298 10.5805 99.9363 10.4886 99.9701 10.3951C100.01 10.2846 100.065 10.208 100.129 10.1514C100.169 10.1165 100.249 10.0709 100.408 10.0471L105.243 9.62329L105.544 9.59699L105.661 9.31934L107.536 4.86934L107.536 4.8675C107.581 4.76161 107.639 4.70058 107.711 4.65952L107.465 4.22846L107.711 4.65952C107.819 4.59793 107.913 4.5752 108 4.5752C108.087 4.5752 108.181 4.59793 108.289 4.65952C108.361 4.70058 108.419 4.76161 108.463 4.8675L108.464 4.86934L110.339 9.31934L110.456 9.59699L110.756 9.62329L115.591 10.047C115.752 10.0716 115.832 10.1173 115.871 10.1515C115.934 10.2072 115.989 10.2838 116.03 10.3961C116.064 10.4903 116.071 10.5823 116.049 10.683C116.033 10.7565 115.993 10.8365 115.895 10.9248L112.223 14.0968L111.994 14.2943L112.063 14.5886L113.163 19.3126C113.163 19.3128 113.163 19.313 113.163 19.3132C113.191 19.4364 113.176 19.5148 113.148 19.5736C113.098 19.6797 113.03 19.7629 112.944 19.8297C112.874 19.8835 112.792 19.9175 112.682 19.9271C112.601 19.9341 112.518 19.9173 112.419 19.8541L112.419 19.8539L112.408 19.8469L108.258 17.3469Z" fill="#F9C148" stroke="#F9C148"/>
</svg>
