<svg width="20" height="18" viewBox="0 0 20 18" fill="none" xmlns="http://www.w3.org/2000/svg">
<path d="M13.9132 1.5C12.2098 1.5 10.739 2.4975 9.99984 3.9525C9.26067 2.4975 7.78984 1.5 6.0865 1.5C3.64484 1.5 1.6665 3.5475 1.6665 6.0675C1.6665 8.5875 3.18067 10.8975 5.13734 12.795C7.094 14.6925 9.99984 16.5 9.99984 16.5C9.99984 16.5 12.8115 14.7225 14.8623 12.795C17.0498 10.74 18.3332 8.595 18.3332 6.0675C18.3332 3.54 16.3548 1.5 13.9132 1.5Z" fill="#F9C148" fill-opacity="0.16"/>
<path d="M13.9132 1.5C12.2098 1.5 10.739 2.4975 9.99984 3.9525C9.26067 2.4975 7.78984 1.5 6.0865 1.5C3.64484 1.5 1.6665 3.5475 1.6665 6.0675C1.6665 8.5875 3.18067 10.8975 5.13734 12.795C7.094 14.6925 9.99984 16.5 9.99984 16.5C9.99984 16.5 12.8115 14.7225 14.8623 12.795C17.0498 10.74 18.3332 8.595 18.3332 6.0675C18.3332 3.54 16.3548 1.5 13.9132 1.5Z" stroke="#C3974C" stroke-width="1.5" stroke-linecap="round" stroke-linejoin="round"/>
</svg>
