<svg width="20" height="21" viewBox="0 0 20 21" fill="none" xmlns="http://www.w3.org/2000/svg">
<path d="M7.3 19.5H12.7C17.2 19.5 19 17.7 19 13.2V7.8C19 3.3 17.2 1.5 12.7 1.5H7.3C2.8 1.5 1 3.3 1 7.8V13.2C1 17.7 2.8 19.5 7.3 19.5Z" stroke="#001B48" stroke-width="1.5" stroke-linecap="round" stroke-linejoin="round"/>
<path d="M13.2129 16.3496V12.8396" stroke="#001B48" stroke-width="1.5" stroke-miterlimit="10" stroke-linecap="round" stroke-linejoin="round"/>
<path d="M13.2129 6.40502V4.65002" stroke="#001B48" stroke-width="1.5" stroke-miterlimit="10" stroke-linecap="round" stroke-linejoin="round"/>
<path d="M13.2133 11.0843C14.5056 11.0843 15.5533 10.0367 15.5533 8.74434C15.5533 7.45195 14.5056 6.4043 13.2133 6.4043C11.9209 6.4043 10.8733 7.45195 10.8733 8.74434C10.8733 10.0367 11.9209 11.0843 13.2133 11.0843Z" stroke="#001B48" stroke-width="1.5" stroke-miterlimit="10" stroke-linecap="round" stroke-linejoin="round"/>
<path d="M6.78711 16.3507V14.5957" stroke="#001B48" stroke-width="1.5" stroke-miterlimit="10" stroke-linecap="round" stroke-linejoin="round"/>
<path d="M6.78711 8.16002V4.65002" stroke="#001B48" stroke-width="1.5" stroke-miterlimit="10" stroke-linecap="round" stroke-linejoin="round"/>
<path d="M6.78702 14.5947C8.07937 14.5947 9.12706 13.547 9.12706 12.2547C9.12706 10.9624 8.07937 9.91467 6.78702 9.91467C5.49468 9.91467 4.44702 10.9624 4.44702 12.2547C4.44702 13.547 5.49468 14.5947 6.78702 14.5947Z" stroke="#001B48" stroke-width="1.5" stroke-miterlimit="10" stroke-linecap="round" stroke-linejoin="round"/>
</svg>
