<svg width="16" height="10" viewBox="0 0 16 10" fill="none" xmlns="http://www.w3.org/2000/svg">
<path d="M10.4076 7.29952C10.3385 7.23311 10.3659 7.14327 10.4701 7.099C10.5742 7.05473 10.7135 7.07296 10.7839 7.13806C11.276 7.60681 11.0391 7.98702 10.8112 8.3516C10.6393 8.62765 10.474 8.89197 10.7786 9.15759C10.8529 9.2227 10.8307 9.31254 10.7305 9.35942C10.6302 9.40629 10.4883 9.39327 10.4141 9.32817C9.96224 8.93363 10.1719 8.5964 10.3919 8.24483C10.5755 7.94926 10.7682 7.64197 10.4076 7.29952ZM1.89714 4.27087H11.487C11.612 4.27087 11.7135 4.37244 11.7135 4.49744V6.09379H14.8555C15.0456 6.09379 15.2188 6.01567 15.3438 5.89067C15.4688 5.76567 15.5469 5.59249 15.5469 5.40238V1.75655C15.5469 1.56645 15.4688 1.39327 15.3438 1.26827C15.2188 1.14327 15.0456 1.06514 14.8555 1.06514H1.14583C0.955729 1.06514 0.782552 1.14327 0.657552 1.26827C0.53125 1.39327 0.453125 1.56645 0.453125 1.75655V5.40238C0.453125 5.59249 0.53125 5.76567 0.65625 5.89067C0.78125 6.01567 0.954427 6.09379 1.14453 6.09379H1.66927V4.49744C1.67057 4.37244 1.77214 4.27087 1.89714 4.27087ZM11.2604 4.724H2.1237V6.0378H11.2604V4.724ZM1.98047 2.38676C1.85547 2.38676 1.75391 2.2852 1.75391 2.1602C1.75391 2.0352 1.85547 1.93363 1.98047 1.93363H14.1862C14.3112 1.93363 14.4128 2.0352 14.4128 2.1602C14.4128 2.2852 14.3112 2.38676 14.1862 2.38676H1.98047ZM12.8359 4.77608C13.013 4.77608 13.1563 4.91931 13.1563 5.0964C13.1563 5.27348 13.013 5.41671 12.8359 5.41671C12.6589 5.41671 12.5156 5.27348 12.5156 5.0964C12.5156 4.91931 12.6602 4.77608 12.8359 4.77608ZM14.1732 4.77608C14.3503 4.77608 14.4935 4.91931 14.4935 5.0964C14.4935 5.27348 14.3503 5.41671 14.1732 5.41671C13.9961 5.41671 13.8529 5.27348 13.8529 5.0964C13.8529 4.91931 13.9961 4.77608 14.1732 4.77608ZM1.14583 0.610718H14.8555C15.1706 0.610718 15.457 0.739624 15.6641 0.946655C15.8711 1.15369 16 1.44014 16 1.75525V5.40238C16 5.71749 15.8711 6.00395 15.6641 6.21098C15.457 6.41801 15.1706 6.54692 14.8555 6.54692H1.14583C0.830729 6.54692 0.544271 6.41801 0.33724 6.21098C0.128906 6.00395 0 5.71749 0 5.40238V1.75655C0 1.44145 0.128906 1.15499 0.335938 0.947957C0.544271 0.739624 0.830729 0.610718 1.14583 0.610718ZM1.98047 3.44405C1.85547 3.44405 1.75391 3.34249 1.75391 3.21749C1.75391 3.09249 1.85547 2.99093 1.98047 2.99093H14.1862C14.3112 2.99093 14.4128 3.09249 14.4128 3.21749C14.4128 3.34249 14.3112 3.44405 14.1862 3.44405H1.98047ZM2.78255 7.29952C2.71354 7.23311 2.74089 7.14327 2.84505 7.099C2.94922 7.05473 3.08854 7.07296 3.15885 7.13806C3.65104 7.60681 3.41406 7.98702 3.1862 8.3516C3.01432 8.62765 2.84896 8.89197 3.15365 9.15759C3.22786 9.2227 3.20573 9.31254 3.10547 9.35942C3.00521 9.40629 2.86328 9.39327 2.78906 9.32817C2.33724 8.93363 2.54688 8.5964 2.76693 8.24483C2.95052 7.94926 3.14193 7.64197 2.78255 7.29952ZM4.6888 7.29952C4.61979 7.23311 4.64714 7.14327 4.7513 7.099C4.85547 7.05473 4.99479 7.07296 5.0651 7.13806C5.55729 7.60681 5.32031 7.98702 5.09245 8.3516C4.92057 8.62765 4.75521 8.89197 5.0599 9.15759C5.13412 9.2227 5.11198 9.31254 5.01172 9.35942C4.91146 9.40629 4.76953 9.39327 4.69531 9.32817C4.24349 8.93363 4.45313 8.5964 4.67318 8.24483C4.85677 7.94926 5.04818 7.64197 4.6888 7.29952ZM6.59505 7.29952C6.52604 7.23311 6.55339 7.14327 6.65755 7.099C6.76172 7.05473 6.90104 7.07296 6.97135 7.13806C7.46354 7.60681 7.22656 7.98702 6.9987 8.3516C6.82682 8.62765 6.66146 8.89197 6.96615 9.15759C7.04037 9.2227 7.01823 9.31254 6.91797 9.35942C6.81771 9.40629 6.67578 9.39327 6.60156 9.32817C6.14974 8.93363 6.35938 8.5964 6.57943 8.24483C6.76302 7.94926 6.95573 7.64197 6.59505 7.29952ZM8.5013 7.29952C8.43229 7.23311 8.45964 7.14327 8.5638 7.099C8.66797 7.05473 8.80729 7.07296 8.8776 7.13806C9.36979 7.60681 9.13281 7.98702 8.90495 8.3516C8.73307 8.62765 8.56771 8.89197 8.8724 9.15759C8.94662 9.2227 8.92448 9.31254 8.82422 9.35942C8.72396 9.40629 8.58203 9.39327 8.50781 9.32817C8.05599 8.93363 8.26693 8.5964 8.48568 8.24483C8.66927 7.94926 8.86198 7.64197 8.5013 7.29952Z" fill="#1E1E1E"/>
</svg>
