<svg width="22" height="25" viewBox="0 0 22 25" fill="none" xmlns="http://www.w3.org/2000/svg">
<path d="M11.0561 5.46078C10.3481 5.46078 9.76442 4.87422 9.76442 4.15518C9.76442 3.43134 10.3481 2.85006 11.0561 2.85006C11.7766 2.85006 12.3545 3.43134 12.3545 4.15518C12.3545 4.87422 11.7766 5.46078 11.0561 5.46078ZM21.5374 16.8877L20.8457 12.5547C20.767 12.1496 20.4147 11.8414 19.9956 11.8414C19.7407 11.8414 19.5137 11.9499 19.3491 12.127L16.1623 15.1318C16.1124 15.1774 16.0611 15.2283 16.015 15.2917C15.7155 15.7016 15.8009 16.2833 16.2089 16.5915C16.2867 16.6477 16.3731 16.688 16.458 16.7225L17.2563 16.9909C16.4873 19.1792 14.2726 21.1587 11.9599 21.62V7.21998C13.0932 6.73518 14.2135 5.46702 14.2135 4.15518C14.2135 2.39934 12.8014 0.97998 11.0561 0.97998C9.31706 0.97998 7.89962 2.39934 7.89962 4.15518C7.89962 5.46702 8.91146 6.73518 10.0395 7.21998V21.62C7.67594 21.1923 5.52458 19.22 4.73642 16.9904L5.54186 16.7221C5.62682 16.6875 5.7113 16.6472 5.79098 16.591C6.1985 16.2829 6.28922 15.7011 5.98394 15.2912C5.93786 15.2278 5.89322 15.1769 5.8361 15.1313L2.64986 12.1265C2.49098 11.9494 2.25866 11.8409 2.00906 11.8409C1.58426 11.8409 1.22666 12.1491 1.15322 12.5542L0.461541 16.8872C0.445701 16.9558 0.439941 17.0297 0.439941 17.1046C0.439941 17.6163 0.853701 18.0339 1.36442 18.0339C1.46042 18.0339 1.55114 18.0219 1.6361 17.9931L2.38442 17.7483C3.57482 21.3857 6.98042 24.02 10.9999 24.02C15.019 24.02 18.426 21.3857 19.6164 17.7425L20.3652 17.9926C20.4492 18.0214 20.5414 18.0334 20.6364 18.0334C21.1467 18.0334 21.5604 17.6163 21.5604 17.1041C21.5599 17.0297 21.5547 16.9558 21.5374 16.8877Z" fill="#001B48"/>
</svg>
