<svg width="11" height="14" viewBox="0 0 11 14" fill="none" xmlns="http://www.w3.org/2000/svg">
<path d="M3.75556 9.20007L1.97778 13.1112" stroke="#1E1E1E" stroke-linejoin="round"/>
<path d="M6.59985 9.20007L8.37763 13.1112" stroke="#1E1E1E" stroke-linejoin="round"/>
<path d="M5.17773 13.1112V9.20007" stroke="#1E1E1E" stroke-linejoin="round"/>
<path d="M1.2666 5.64453C1.2666 7.80453 3.01771 9.55564 5.17771 9.55564C7.33771 9.55564 9.08882 7.80453 9.08882 5.64453" stroke="#1E1E1E" stroke-linejoin="round"/>
<path d="M7.6665 11.3334H2.68872" stroke="#1E1E1E" stroke-linejoin="round"/>
<path d="M1.62217 6.71118H0.199951" stroke="#1E1E1E" stroke-linejoin="round"/>
<path d="M10.1556 6.71118H8.7334" stroke="#1E1E1E" stroke-linejoin="round"/>
<path d="M4.00624 5.28894C2.74296 5.28894 0.911133 5.28894 0.911133 5.28894" stroke="#1E1E1E" stroke-linejoin="round"/>
<path d="M9.44449 5.28894C9.44449 5.28894 8.48698 5.28894 7.49854 5.28894" stroke="#1E1E1E" stroke-linejoin="round"/>
<path d="M6.59999 7.06669C6.59999 5.34829 8.0183 4.87398 8.02008 3.15558C8.02186 1.43718 6.59999 0.992738 6.59999 -0.755528C6.59999 -2.50379 8.02186 -2.94824 8.02008 -4.66664V-4.69011C8.02186 -6.40851 6.59999 -6.85295 6.59999 -8.60122C6.59999 -10.3495 8.02186 -10.7939 8.02008 -12.5123M4.82221 7.06669C4.82221 5.34829 6.24052 4.87398 6.2423 3.15558C6.24408 1.43718 4.82221 0.992738 4.82221 -0.755528C4.82221 -2.50379 6.24408 -2.94824 6.2423 -4.66664V-4.69011C6.24408 -6.40851 4.82221 -6.85295 4.82221 -8.60122C4.82221 -10.3495 6.24408 -10.7939 6.2423 -12.5123M3.04443 7.06669C3.04443 5.34829 4.46274 4.87398 4.46452 3.15558C4.4663 1.43718 3.04443 0.992738 3.04443 -0.755528C3.04443 -2.50379 4.4663 -2.94824 4.46452 -4.66664V-4.69011C4.4663 -6.40851 3.04443 -6.85295 3.04443 -8.60122C3.04443 -10.3495 4.4663 -10.7939 4.46452 -12.5123" stroke="#1E1E1E" stroke-linejoin="round"/>
</svg>
