<svg width="13" height="8" viewBox="0 0 13 8" fill="none" xmlns="http://www.w3.org/2000/svg">
<path d="M0.666748 0.666687V7.33335" stroke="#888888" stroke-linecap="round" stroke-linejoin="round"/>
<path d="M12.0001 7.33333V6.01005C12.0001 4.89005 12.0001 4.33011 11.8504 3.87992C11.5824 3.07363 10.9801 2.43966 10.2142 2.15752C9.78648 2 9.25453 2 8.19053 2C7.76499 2 7.55219 2 7.38109 2.06301C7.07469 2.17587 6.83384 2.42945 6.72659 2.75197C6.66675 2.93204 6.66675 3.15604 6.66675 3.60399V6.21053" stroke="#888888" stroke-linecap="round" stroke-linejoin="round"/>
<path d="M0.666748 6H12.0001" stroke="#888888" stroke-linecap="round" stroke-linejoin="round"/>
<path d="M4.66667 3.33333C4.66667 4.06971 4.06971 4.66667 3.33333 4.66667C2.59695 4.66667 2 4.06971 2 3.33333C2 2.59695 2.59695 2 3.33333 2C4.06971 2 4.66667 2.59695 4.66667 3.33333Z" stroke="#888888"/>
</svg>
