<svg width="16" height="17" viewBox="0 0 16 17" fill="none" xmlns="http://www.w3.org/2000/svg">
<path d="M12.6667 1.83333V0.5H11.3333V1.83333H4.66667V0.5H3.33333V1.83333H0V5.8V7.13333V16.5H16V7.13333V5.8V1.83333H12.6667ZM14.6667 15.1667H1.33333V7.13333H14.6667V15.1667ZM1.33333 5.8V3.16667H3.33333V4.5H4.66667V3.16667H11.3333V4.5H12.6667V3.16667H14.6667V5.8H1.33333Z" fill="#012A50"/>
<path d="M4.5 8.5H2.5V10.5H4.5V8.5Z" fill="#012A50"/>
<path d="M7.55591 8.5H5.55591V10.5H7.55591V8.5Z" fill="#012A50"/>
<path d="M10.5273 8.5H8.52734V10.5H10.5273V8.5Z" fill="#012A50"/>
<path d="M13.5 8.5H11.5V10.5H13.5V8.5Z" fill="#012A50"/>
<path d="M4.5 11.5H2.5V13.5H4.5V11.5Z" fill="#012A50"/>
<path d="M7.55591 11.5H5.55591V13.5H7.55591V11.5Z" fill="#012A50"/>
<path d="M10.5273 11.5H8.52734V13.5H10.5273V11.5Z" fill="#012A50"/>
<path d="M13.5 11.5H11.5V13.5H13.5V11.5Z" fill="#012A50"/>
</svg>
