<svg width="20" height="20" viewBox="0 0 20 20" fill="none" xmlns="http://www.w3.org/2000/svg">
<path d="M8 8C10.2055 8 12 6.2055 12 4C12 1.7945 10.2055 0 8 0C5.7945 0 4 1.7945 4 4C4 6.2055 5.7945 8 8 8ZM8 2C9.103 2 10 2.897 10 4C10 5.103 9.103 6 8 6C6.897 6 6 5.103 6 4C6 2.897 6.897 2 8 2Z" fill="#005292"/>
<path d="M18.1865 9.41895L13.4855 15.9999H2.58547L0.292969 18.2929L1.70697 19.7069L3.41447 17.9999H14.0855L15.793 19.7069L17.207 18.2929L15.5145 16.5999L19.8135 10.5809L18.1865 9.41895Z" fill="#005292"/>
<path d="M15.6455 7.733C15.8995 7.909 16.1945 8.0005 16.4965 8.0005C16.5865 8.0005 16.6775 7.992 16.768 7.976C17.1615 7.904 17.504 7.684 17.732 7.3555C18.204 6.677 18.035 5.7405 17.3545 5.2665C17.0245 5.0385 16.6265 4.9535 16.232 5.024C15.838 5.096 15.495 5.3165 15.267 5.646C14.796 6.326 14.966 7.262 15.6455 7.733Z" fill="#005292"/>
<path d="M6.49989 12.144L10.3674 14.2925C10.4914 14.4525 10.6324 14.6 10.8034 14.7185C11.1499 14.9585 11.5469 15.074 11.9399 15.074C12.5739 15.074 13.1984 14.7735 13.5864 14.2145L15.8654 10.9265C16.1689 10.4885 16.2834 9.95747 16.1884 9.43097C16.0929 8.90397 15.7989 8.44697 15.3614 8.14397C14.9229 7.84047 14.3919 7.72397 13.8654 7.82097C13.3389 7.91647 12.8819 8.20997 12.5784 8.64797L10.2994 11.936C10.2944 11.9435 10.2914 11.952 10.2864 11.9595L6.49989 9.85597L0.639893 13.1115L1.61139 14.86L6.49989 12.144Z" fill="#005292"/>
</svg>
