<svg width="24" height="24" viewBox="0 0 24 24" fill="none" xmlns="http://www.w3.org/2000/svg">
<path d="M19.4838 0.909227C19.3794 1.01963 18.6126 1.92755 17.7784 2.92163C16.7906 4.09355 16.2016 4.84187 16.1034 5.05667C15.809 5.70083 15.9438 6.57827 16.4346 7.25915C16.5513 7.42475 16.6862 7.61507 16.7414 7.68851C16.8333 7.81739 16.7906 7.87859 15.2015 9.80507C13.2261 12.1919 13.4224 11.9771 13.312 11.8849C13.2383 11.8297 12.4346 12.5291 8.77216 15.8665C6.32416 18.0937 4.25056 20.0079 4.16464 20.1121C3.82096 20.5662 3.80872 21.2041 4.13392 21.8667C4.36096 22.3268 4.73512 22.6335 5.20744 22.7439C5.60008 22.8359 6.08464 22.7072 6.46504 22.4127C6.6676 22.2594 13.7966 13.5047 14.2322 12.8787C14.3181 12.7499 14.3181 12.7316 14.2014 12.6335C14.0726 12.5231 14.091 12.4986 15.7965 10.4495C16.7414 9.30827 17.5449 8.38811 17.5878 8.40635C18.3609 8.75003 18.459 8.77451 19.0358 8.78051C19.3672 8.78051 19.7166 8.74379 19.8455 8.70083C20.3486 8.52299 20.416 8.44931 23.4714 4.68227C23.631 4.48595 23.7599 4.27115 23.7599 4.20371C23.7599 4.01963 23.4899 3.78035 23.2814 3.78035C23.0666 3.78035 23.0666 3.77411 21.6738 5.49827C21.0542 6.25907 20.5389 6.88475 20.5142 6.89099C20.4957 6.90323 20.3608 6.80507 20.2197 6.67619L19.9619 6.44915L20.9742 5.25275C22.3362 3.65147 22.4711 3.47963 22.4711 3.34475C22.4711 3.16067 22.1951 2.92139 21.9863 2.92139C21.8207 2.92139 21.6734 3.07475 20.5631 4.39379C19.876 5.20355 19.293 5.86619 19.2686 5.86619C19.1949 5.86619 18.79 5.54099 18.79 5.48579C18.79 5.46731 19.3422 4.79243 20.0171 3.99491C21.0602 2.75555 21.2442 2.51027 21.2442 2.34467C21.2442 2.09315 21.0849 1.93979 20.8209 1.93979C20.5878 1.93979 20.6738 1.85387 19.2136 3.58403L18.0846 4.93379L17.8516 4.74971C17.7167 4.63931 17.6308 4.52891 17.6493 4.47971C17.6678 4.43075 18.269 3.70067 18.9806 2.85395C20.3855 1.19123 20.453 1.07483 20.1462 0.823307C19.9319 0.651709 19.7049 0.682188 19.4838 0.909227ZM19.8213 7.71923C19.582 7.90331 19.0852 7.98299 18.7108 7.89707C18.2507 7.79267 17.9562 7.62707 17.5451 7.22843C16.9254 6.61499 16.6679 5.86019 16.9194 5.37563L17.0114 5.19155L18.49 6.40019L19.9624 7.60883L19.8213 7.71923Z" fill="#005292"/>
<path d="M0.274855 1.49209C0.483415 2.24665 1.04166 3.44305 2.23206 5.67001C5.64918 12.0504 6.88854 13.9586 7.97454 14.5106C8.14638 14.5966 8.3487 14.6395 8.57574 14.6395C8.91318 14.6395 8.93166 14.6335 9.29958 14.2836C9.50814 14.0873 9.92526 13.7131 10.2197 13.4494C10.7228 13.0138 10.772 12.983 10.8701 13.069C10.9683 13.1549 11.0173 13.1242 11.4958 12.6948C11.7781 12.4373 12.0173 12.2102 12.0296 12.1855C12.0358 12.167 11.5143 11.6518 10.8639 11.0506C6.26886 6.75601 0.464935 1.40617 0.293335 1.30801C0.225655 1.27105 0.225655 1.30801 0.274855 1.49209Z" fill="#005292"/>
<path d="M13.3917 14.7317C13.0787 15.1181 12.8395 15.4741 12.8579 15.517C12.8887 15.5907 14.1647 17.3698 15.6187 19.3577C17.2814 21.6461 18.3182 22.8118 18.9439 23.1123C19.5943 23.4253 20.1832 23.3149 20.6863 22.7993C21.1463 22.3208 21.3242 21.4251 21.0667 20.8669C20.9378 20.5846 19.6862 19.3393 16.6125 16.4434C14.3855 14.3451 14.0419 14.0261 13.9867 14.0261C13.9682 14.0261 13.6984 14.3451 13.3917 14.7317Z" fill="#005292"/>
</svg>
