<svg width="24" height="24" viewBox="0 0 24 24" fill="none" xmlns="http://www.w3.org/2000/svg">
<path d="M12 5.42004L6.30005 8.71004V15.29L12 18.58L17.7 15.29V8.71004L12 5.42004Z" stroke="#005292" stroke-linecap="round" stroke-linejoin="round"/>
<path d="M4.03498 8.95497C4.89378 8.95497 5.58998 8.25877 5.58998 7.39997C5.58998 6.54117 4.89378 5.84497 4.03498 5.84497C3.17618 5.84497 2.47998 6.54117 2.47998 7.39997C2.47998 8.25877 3.17618 8.95497 4.03498 8.95497Z" stroke="#005292" stroke-linecap="round" stroke-linejoin="round"/>
<path d="M11.9999 4.36C12.8587 4.36 13.5549 3.6638 13.5549 2.805C13.5549 1.9462 12.8587 1.25 11.9999 1.25C11.1411 1.25 10.4449 1.9462 10.4449 2.805C10.4449 3.6638 11.1411 4.36 11.9999 4.36Z" stroke="#005292" stroke-linecap="round" stroke-linejoin="round"/>
<path d="M19.965 8.95497C20.8238 8.95497 21.52 8.25877 21.52 7.39997C21.52 6.54117 20.8238 5.84497 19.965 5.84497C19.1062 5.84497 18.41 6.54117 18.41 7.39997C18.41 8.25877 19.1062 8.95497 19.965 8.95497Z" stroke="#005292" stroke-linecap="round" stroke-linejoin="round"/>
<path d="M19.965 18.155C20.8238 18.155 21.52 17.4588 21.52 16.6C21.52 15.7412 20.8238 15.045 19.965 15.045C19.1062 15.045 18.41 15.7412 18.41 16.6C18.41 17.4588 19.1062 18.155 19.965 18.155Z" stroke="#005292" stroke-linecap="round" stroke-linejoin="round"/>
<path d="M11.9999 22.75C12.8587 22.75 13.5549 22.0538 13.5549 21.195C13.5549 20.3362 12.8587 19.64 11.9999 19.64C11.1411 19.64 10.4449 20.3362 10.4449 21.195C10.4449 22.0538 11.1411 22.75 11.9999 22.75Z" stroke="#005292" stroke-linecap="round" stroke-linejoin="round"/>
<path d="M4.03498 18.155C4.89378 18.155 5.58998 17.4588 5.58998 16.6C5.58998 15.7412 4.89378 15.045 4.03498 15.045C3.17618 15.045 2.47998 15.7412 2.47998 16.6C2.47998 17.4588 3.17618 18.155 4.03498 18.155Z" stroke="#005292" stroke-linecap="round" stroke-linejoin="round"/>
<path d="M6.3 15.29L5.38 15.82" stroke="#005292" stroke-linecap="round" stroke-linejoin="round"/>
<path d="M12 18.58V19.64" stroke="#005292" stroke-linecap="round" stroke-linejoin="round"/>
<path d="M12 5.41998V4.35498" stroke="#005292" stroke-linecap="round" stroke-linejoin="round"/>
<path d="M17.7 15.29L18.62 15.82" stroke="#005292" stroke-linecap="round" stroke-linejoin="round"/>
<path d="M17.7 8.71005L18.62 8.18005" stroke="#005292" stroke-linecap="round" stroke-linejoin="round"/>
<path d="M6.3 8.71005L5.38 8.18005" stroke="#005292" stroke-linecap="round" stroke-linejoin="round"/>
<path d="M8.21966 9.38318H12V10.1972C12 11.2404 11.1531 12.0874 10.1098 12.0874C9.06661 12.0874 8.2196 11.2404 8.2196 10.1972L8.21966 9.38318Z" stroke="#005292" stroke-linecap="round" stroke-linejoin="round"/>
<path d="M12 9.38318H15.7804V10.1972C15.7804 11.2404 14.9334 12.0874 13.8902 12.0874C12.847 12.0874 12 11.2404 12 10.1972L12 9.38318Z" stroke="#005292" stroke-linecap="round" stroke-linejoin="round"/>
<path d="M14.4965 13.6499C13.7525 14.2277 12.9693 14.4854 12 14.4854C11.0308 14.4854 10.2475 14.2277 9.50354 13.6499" stroke="#005292" stroke-linecap="round" stroke-linejoin="round"/>
</svg>
