<svg width="14" height="16" viewBox="0 0 14 16" fill="none" xmlns="http://www.w3.org/2000/svg">
<path d="M14 7C14 3.15 10.85 0 7 0C3.15 0 0 3.15 0 7C0 10.525 2.6 13.45 6 13.925V14.5H4C3.625 14.5 3.25 14.875 3.25 15.25C3.25 15.625 3.625 16 4 16H10C10.4 16 10.75 15.675 10.75 15.25C10.75 14.825 10.4 14.5 10 14.5H8V13.925C11.4 13.45 14 10.525 14 7ZM0.5 7C0.5 3.425 3.425 0.5 7 0.5C10.575 0.5 13.5 3.425 13.5 7C13.5 10.575 10.575 13.5 7 13.5C3.425 13.5 0.5 10.575 0.5 7ZM10 15C10.15 15 10.25 15.125 10.25 15.25C10.25 15.375 10.15 15.5 10 15.5H4C3.9 15.5 3.75 15.35 3.75 15.25C3.75 15.15 3.9 15 4 15H6H8H10ZM7.5 14.5H6.5V13.975C6.675 13.975 6.825 14 7 14C7.175 14 7.325 14 7.5 13.975V14.5Z" fill="#1E1E1E"/>
<path d="M8.80005 8.77502C8.62505 8.37502 8.27505 7.97502 8.02505 7.70002C8.12505 7.55002 8.20005 7.35002 8.22505 7.15002C8.45005 7.15002 8.72505 7.22502 9.35005 7.72502C9.37505 7.75002 9.42505 7.77502 9.47505 7.82502C9.80005 8.07502 10.3 8.50002 10.9 8.50002C11.125 8.50002 11.375 8.42502 11.625 8.27502C12.05 7.97502 12.3 7.45002 12.3 6.72502C12.3 5.77502 11.8 4.47502 10.875 3.87502C9.47505 2.97502 8.15005 3.55002 7.50005 4.55002C7.27505 4.87502 7.07505 5.37502 6.95005 5.77502C6.77505 5.77502 6.62505 5.82502 6.47505 5.87502C6.35005 5.67502 6.25005 5.40002 6.32505 4.60002C6.32505 4.55002 6.32505 4.50002 6.35005 4.45002C6.40005 3.87502 6.52505 2.82502 5.55005 2.40002C5.07505 2.20002 4.47505 2.30002 3.90005 2.67502C3.10005 3.20002 2.30005 4.32502 2.30005 5.42502C2.30005 7.10002 3.52505 7.87502 4.70005 7.90002C4.72505 7.90002 4.72505 7.90002 4.75005 7.90002C5.17505 7.90002 5.65005 7.77502 5.97505 7.70002C6.05005 7.82502 6.15005 7.90002 6.25005 8.00002C6.12505 8.20002 5.87505 8.47502 5.12505 8.77502C5.07505 8.80002 5.02505 8.80002 4.97505 8.82502C4.45005 9.02502 3.45005 9.40002 3.50005 10.45C3.52505 10.975 3.87505 11.45 4.47505 11.8C4.97505 12.1 5.70005 12.3 6.40005 12.3C6.82505 12.3 7.27505 12.225 7.65005 12.025C9.15005 11.275 9.30005 9.85002 8.80005 8.77502ZM6.25005 7.00002C6.25005 6.57502 6.57505 6.25002 7.00005 6.25002C7.42505 6.25002 7.75005 6.57502 7.75005 7.00002C7.75005 7.42502 7.42505 7.75002 7.00005 7.75002C6.57505 7.75002 6.25005 7.42502 6.25005 7.00002ZM7.90005 4.80002C8.40005 4.07502 9.40005 3.50002 10.6 4.27502C11.275 4.70002 11.775 5.75002 11.8 6.70002C11.8 7.00002 11.75 7.57502 11.35 7.82502C10.825 8.17502 10.325 7.82502 9.80005 7.40002C9.75005 7.37502 9.70005 7.32502 9.67505 7.30002C8.92505 6.72502 8.55005 6.65002 8.20005 6.62502C8.10005 6.25002 7.82505 5.95002 7.45005 5.82502C7.55005 5.50002 7.72505 5.07502 7.90005 4.80002ZM4.70005 7.40002C3.82505 7.37502 2.80005 6.85002 2.77505 5.42502C2.77505 4.62502 3.37505 3.62502 4.15005 3.10002C4.40005 2.92502 4.90005 2.67502 5.32505 2.85002C5.90005 3.10002 5.90005 3.72502 5.82505 4.37502C5.82505 4.42502 5.82505 4.50002 5.80005 4.55002C5.72505 5.55002 5.90005 5.90002 6.05005 6.15002C5.87505 6.37502 5.75005 6.67502 5.75005 7.00002C5.75005 7.07502 5.75005 7.15002 5.77505 7.22502C5.47505 7.30002 5.05005 7.40002 4.70005 7.40002ZM4.72505 11.35C4.45005 11.2 4.00005 10.875 4.00005 10.4C3.97505 9.77502 4.52505 9.50002 5.15005 9.27502C5.20005 9.25002 5.25005 9.22502 5.30005 9.22502C6.25005 8.85002 6.52505 8.47502 6.67505 8.22502C6.77505 8.25002 6.87505 8.27502 7.00005 8.27502C7.25005 8.27502 7.47505 8.20002 7.67505 8.07502C7.87505 8.30002 8.20005 8.67502 8.35005 9.00002C8.72505 9.80002 8.70005 10.95 7.42505 11.6C6.70005 11.925 5.55005 11.825 4.72505 11.35Z" fill="#1E1E1E"/>
</svg>
