<svg width="16" height="16" viewBox="0 0 16 16" fill="none" xmlns="http://www.w3.org/2000/svg">
<path d="M6.8335 1.83331H2.8335V3.16665H6.8335V1.83331Z" fill="#888888"/>
<path d="M4.16683 4.49998H0.833496V5.83331H4.16683V4.49998Z" fill="#888888"/>
<path d="M5.50016 12.5H2.16683V13.8333H5.50016V12.5Z" fill="#888888"/>
<path d="M14.9735 12.24L13.4535 9.50665C13.2735 9.18665 12.9668 8.95331 12.6135 8.85998L10.8202 8.41331C10.8068 8.09998 10.7268 7.79998 10.5735 7.52665L13.2135 3.13331C13.6468 2.41331 13.4135 1.47998 12.6935 1.04665C12.4535 0.89998 12.1802 0.833313 11.9135 0.833313C11.5402 0.833313 11.1668 0.973313 10.8735 1.24665L8.58683 3.38665C8.32016 3.63331 8.16683 3.98665 8.16683 4.35331V6.61998C7.8535 6.73331 7.5735 6.91998 7.34683 7.16665H2.3535C1.5135 7.16665 0.833496 7.84665 0.833496 8.68665C0.833496 9.36665 1.28016 9.95998 1.9335 10.1466L4.94016 11.0066C5.06016 11.04 5.18683 11.06 5.30683 11.06C5.54683 11.06 5.78683 10.9933 5.9935 10.8666L7.48683 9.97331C7.68016 10.1466 7.90683 10.2866 8.16683 10.38V13.8333C7.4335 13.8333 6.8335 14.4333 6.8335 15.1666H10.8335C10.8335 14.4333 10.2335 13.8333 9.50016 13.8333V10.98L12.5735 14.0533C12.8735 14.3533 13.2602 14.5 13.6468 14.5C14.0335 14.5 14.4268 14.3533 14.7202 14.0533C15.2002 13.5733 15.3068 12.8333 14.9735 12.24ZM5.3135 9.72665L2.30016 8.86665C2.22016 8.84665 2.16683 8.76665 2.16683 8.68665C2.16683 8.58665 2.2535 8.49998 2.3535 8.49998H6.84016C6.84016 8.59998 6.84683 8.69998 6.86016 8.79331L5.3135 9.72665ZM8.8335 9.16665C8.46683 9.16665 8.16683 8.86665 8.16683 8.49998C8.16683 8.13331 8.46683 7.83331 8.8335 7.83331C9.20016 7.83331 9.50016 8.13331 9.50016 8.49998C9.50016 8.86665 9.20016 9.16665 8.8335 9.16665ZM9.50016 6.59331V4.35331L11.7868 2.21331C11.8202 2.17998 11.9135 2.13331 12.0135 2.18665C12.1002 2.23998 12.1335 2.35331 12.0802 2.43998L9.58683 6.59998L9.50016 6.59331ZM13.7802 13.1133C13.7468 13.1466 13.6202 13.22 13.5135 13.1133L10.2802 9.87998C10.3335 9.81998 10.3868 9.75998 10.4402 9.69331L12.2935 10.1533L13.8135 12.8866C13.8535 12.96 13.8402 13.0533 13.7802 13.1133Z" fill="#888888"/>
</svg>
