<svg width="14" height="15" viewBox="0 0 14 15" fill="none" xmlns="http://www.w3.org/2000/svg">
<path d="M13.9848 14.4263L12.8853 10.4613C12.8641 10.3885 12.8243 10.3225 12.7697 10.2699C12.7152 10.2173 12.6478 10.1798 12.5743 10.1613C12.3745 9.44705 11.791 7.40155 10.6515 3.74705C9.70228 0.703804 7.23203 -0.291696 5.20378 0.0713036C3.19678 0.430804 1.89928 2.04155 2.04878 3.98805L2.17253 3.97905V4.63905C2.0826 4.56663 1.96998 4.52829 1.85453 4.5308C1.60928 4.53305 1.41228 4.7018 1.41478 4.90705C1.41553 4.9548 1.46603 5.0168 1.54103 5.08355C0.619032 5.6968 -0.0294678 7.44755 0.00103216 9.5078C0.0200322 10.8198 0.646282 11.9956 1.25278 12.8331C0.540282 13.1711 0.0632821 13.8146 0.0737821 14.5486C0.0785321 14.8846 0.307782 15.0001 0.620532 15.0001C1.30628 15.0001 2.39378 14.4443 2.39378 14.4443C2.39378 14.4443 3.46878 14.9643 4.15603 14.9643C4.48228 14.9643 4.72103 14.8471 4.71578 14.5016C4.70553 13.7673 4.21003 13.1338 3.48803 12.8103C4.07028 11.9613 4.66203 10.7728 4.64303 9.4608C4.61428 7.4403 3.94078 5.73255 3.02853 5.10655C3.12578 5.0238 3.19378 4.94605 3.19278 4.8893C3.18978 4.6833 2.98778 4.51855 2.74203 4.5213C2.62689 4.52117 2.51543 4.56192 2.42753 4.6363V3.96005L2.55778 3.95055C2.40603 1.9723 3.82428 0.820054 5.29728 0.556304C7.10128 0.233304 9.30453 1.13855 10.1625 3.88955C10.977 6.50105 11.5068 8.2883 11.8148 9.35405C11.3195 8.74105 10.4363 8.51455 9.67553 8.85755C8.79053 9.2558 8.40778 10.2718 8.82053 11.1268C8.86653 11.2218 8.92103 11.3098 8.98178 11.3926L7.62528 12.7031H7.21603V13.3106H8.67628V12.7031H8.49653L9.42053 11.8106C9.67626 11.98 9.97073 12.082 10.2765 12.1071C10.5823 12.1321 10.8894 12.0793 11.1693 11.9536C11.5346 11.7908 11.8326 11.5069 12.0128 11.1498L12.9923 14.6831C13.0558 14.9116 13.2985 15.0468 13.5348 14.9858L13.6715 14.9501C13.908 14.8888 14.048 14.6543 13.9848 14.4263ZM3.41103 11.9741C3.31728 12.0316 3.19978 12.0678 3.06728 12.0663C2.75028 12.0633 2.50503 11.8851 2.49153 11.6513C2.48528 11.5211 2.22103 11.5238 2.21828 11.6546C2.21378 11.8788 1.97278 12.0823 1.65778 12.0791C1.53275 12.0794 1.40982 12.0469 1.30128 11.9848C1.11777 11.6785 0.960462 11.3573 0.831032 11.0246C1.01378 11.1117 1.21465 11.1541 1.41703 11.1483C1.82453 11.1391 2.16578 10.9706 2.34278 10.7268C2.52853 10.9696 2.87378 11.1413 3.27828 11.1316C3.47945 11.1283 3.67751 11.0814 3.85878 10.9941C3.7379 11.333 3.5881 11.6608 3.41103 11.9741ZM3.98528 10.5816C3.86328 10.7828 3.59628 10.9311 3.27528 10.9293C2.83628 10.9268 2.48803 10.6781 2.47353 10.3581C2.46828 10.2271 2.19778 10.2291 2.19728 10.3601C2.19378 10.6708 1.85303 10.9486 1.41403 10.9461C1.09078 10.9441 0.817282 10.8078 0.690032 10.6086C0.602287 10.3108 0.547213 10.0044 0.525782 9.6948C0.730282 9.8753 1.02053 9.99155 1.34853 9.98355C1.78103 9.9733 2.14378 9.7733 2.32278 9.4868C2.51078 9.7718 2.87853 9.9748 3.31028 9.96455C3.63803 9.9573 3.92478 9.83955 4.12378 9.6593C4.11173 9.97088 4.06528 10.2802 3.98528 10.5816ZM4.20403 14.4631C4.18806 14.4641 4.17204 14.4646 4.15603 14.4646C3.74453 14.4646 2.99503 14.1771 2.62003 13.9961L2.38753 13.8838L2.15778 14.0013C1.90428 14.1303 1.07828 14.5001 0.620532 14.5001C0.607032 14.5001 0.594782 14.4996 0.584282 14.4991C0.596032 14.0031 0.933782 13.5396 1.47528 13.2831L2.01828 13.0256L1.66903 12.5436C1.60412 12.4537 1.5411 12.3625 1.48003 12.2701C1.53853 12.2786 1.59903 12.2833 1.66153 12.2816C1.96178 12.2733 2.21578 12.1568 2.36128 11.9831C2.51278 12.1573 2.77028 12.2776 3.07003 12.2693C3.13178 12.2673 3.19128 12.2606 3.24853 12.2503C3.18653 12.3493 3.12478 12.4438 3.06453 12.5321L2.72953 13.0208L3.27578 13.2656C3.82503 13.5113 4.17678 13.9671 4.20403 14.4631ZM3.91053 7.65355C3.62803 7.97605 3.23078 8.22405 2.76803 8.3368C2.10203 8.4988 1.39653 8.3943 0.832782 8.05805C0.706032 7.9823 0.587532 8.1588 0.713532 8.2338C1.32028 8.59605 2.11928 8.7158 2.83403 8.53105C3.27703 8.4173 3.66753 8.20155 3.96878 7.9153C4.05103 8.32005 4.10478 8.7628 4.12378 9.23555C4.03328 9.52955 3.70878 9.76355 3.30678 9.7618C2.83578 9.75955 2.45803 9.4678 2.44403 9.0938C2.43978 8.96355 2.18978 8.9658 2.18853 9.0963C2.18603 9.46005 1.81728 9.78305 1.34553 9.78055C0.941782 9.77855 0.609282 9.5638 0.512032 9.2678C0.529782 7.72955 0.949782 6.3373 1.60578 5.6788C1.73903 5.54505 1.87353 5.4563 2.00803 5.40355C2.17553 5.50205 2.31353 5.5733 2.31353 5.5733C2.31353 5.5733 2.42978 5.51005 2.57728 5.4203C3.10278 5.65755 3.62453 6.47355 3.91053 7.65355ZM10.7965 11.1791C10.6822 11.2301 10.5586 11.2568 10.4334 11.2576C10.3082 11.2584 10.1843 11.2333 10.0693 11.1838L10.775 10.5021L10.3393 10.0808L9.62503 10.7711C9.62403 10.7691 9.62253 10.7678 9.62178 10.7661C9.41553 10.3383 9.60678 9.83005 10.049 9.6308C10.4918 9.43155 11.0175 9.61655 11.224 10.0441C11.4305 10.4718 11.2388 10.9796 10.7965 11.1791Z" fill="#1E1E1E"/>
</svg>
