<svg width="16" height="16" viewBox="0 0 16 16" fill="none" xmlns="http://www.w3.org/2000/svg">
<path d="M10.4151 0H5.58495C4.48523 0 3.59058 0.894531 3.59058 1.99403V9.98244V14.0059C3.59058 15.1054 4.48523 16 5.58495 16H10.4151C11.5149 16 12.4095 15.1054 12.4095 14.0059V9.98247V1.99403C12.4095 0.894531 11.5149 0 10.4151 0ZM11.7078 9.63159H11.3553C11.1615 9.63159 11.0044 9.78869 11.0044 9.98247C11.0044 10.1762 11.1615 10.3333 11.3553 10.3333H11.7078V14.006C11.7078 14.7185 11.1279 15.2983 10.4151 15.2983H5.58495C4.8722 15.2983 4.29233 14.7185 4.29233 14.006V10.3333H9.23251C9.42626 10.3333 9.58339 10.1762 9.58339 9.98247C9.58339 9.78869 9.42626 9.63159 9.23251 9.63159H4.29233V1.99403C4.29233 1.28147 4.8722 0.70175 5.58495 0.70175H10.4151C11.1279 0.70175 11.7078 1.28147 11.7078 1.99403V9.63159Z" fill="#1E1E1E"/>
<path d="M10.3553 9.63159H10.2793C10.0856 9.63159 9.92847 9.78869 9.92847 9.98247C9.92847 10.1762 10.0856 10.3333 10.2793 10.3333H10.3553C10.5491 10.3333 10.7062 10.1762 10.7062 9.98247C10.7062 9.78869 10.5491 9.63159 10.3553 9.63159Z" fill="#1E1E1E"/>
<path d="M8.60657 2.12451H7.39604C7.20229 2.12451 7.04517 2.28161 7.04517 2.47539V4.75607C7.04517 4.94986 7.20229 5.10695 7.39604 5.10695H8.60657C8.80032 5.10695 8.95745 4.94986 8.95745 4.75607V2.47539C8.95745 2.28161 8.80038 2.12451 8.60657 2.12451ZM8.2557 4.4052H7.74692V2.82626H8.2557V4.4052Z" fill="#1E1E1E"/>
<path d="M9.81572 2.1228C9.62197 2.1228 9.46484 2.2799 9.46484 2.47368V2.53227C9.46484 2.72605 9.62197 2.88315 9.81572 2.88315C10.0095 2.88315 10.1666 2.72605 10.1666 2.53227V2.47368C10.1666 2.2799 10.0095 2.1228 9.81572 2.1228Z" fill="#1E1E1E"/>
<path d="M9.81572 3.23401C9.62197 3.23401 9.46484 3.3911 9.46484 3.58488V3.64313C9.46484 3.83692 9.62197 3.99401 9.81572 3.99401C10.0095 3.99401 10.1666 3.83692 10.1666 3.64313V3.58488C10.1666 3.3911 10.0095 3.23401 9.81572 3.23401Z" fill="#1E1E1E"/>
<path d="M9.81572 4.34485C9.62197 4.34485 9.46484 4.50194 9.46484 4.69572V4.75432C9.46484 4.9481 9.62197 5.10519 9.81572 5.10519C10.0095 5.10519 10.1666 4.9481 10.1666 4.75432V4.69572C10.1666 4.50194 10.0095 4.34485 9.81572 4.34485Z" fill="#1E1E1E"/>
<path d="M5.35087 7.57898C5.15712 7.57898 5 7.73607 5 7.92985V8.51617C5 8.70995 5.15712 8.86704 5.35087 8.86704C5.54462 8.86704 5.70175 8.70995 5.70175 8.51617V7.92985C5.70175 7.73607 5.54462 7.57898 5.35087 7.57898Z" fill="#1E1E1E"/>
<path d="M5.35087 11.0979C5.15712 11.0979 5 11.255 5 11.4488V12.0351C5 12.2289 5.15712 12.386 5.35087 12.386C5.54462 12.386 5.70175 12.2289 5.70175 12.0351V11.4488C5.70175 11.255 5.54462 11.0979 5.35087 11.0979Z" fill="#1E1E1E"/>
</svg>
