<svg width="24" height="25" viewBox="0 0 24 25" fill="none" xmlns="http://www.w3.org/2000/svg">
<g clip-path="url(#clip0_334_10738)">
<path d="M7.23767 17.5125C7.62819 17.122 8.26136 17.122 8.65188 17.5125C9.01236 17.873 9.04009 18.4402 8.73507 18.8325L8.65188 18.9267L6.35378 21.2248C5.89817 21.6805 5.17835 21.7108 4.68752 21.3159L4.58602 21.2248L3.34856 19.9874C2.95803 19.5968 2.95803 18.9637 3.34856 18.5731C3.70904 18.2126 4.27628 18.1849 4.66856 18.4899L4.76277 18.5731L5.4699 19.2803L7.23767 17.5125ZM20.0002 18.4999C20.5525 18.4999 21.0002 18.9477 21.0002 19.4999C21.0002 20.0522 20.5525 20.4999 20.0002 20.4999H11.0002C10.4479 20.4999 10.0002 20.0522 10.0002 19.4999C10.0002 18.9477 10.4479 18.4999 11.0002 18.4999H20.0002ZM8.65188 10.5125C9.0424 10.903 9.0424 11.5362 8.65188 11.9267L6.35378 14.2248C5.86563 14.713 5.07417 14.713 4.58602 14.2248L3.34856 12.9873C2.95803 12.5968 2.95803 11.9637 3.34856 11.5731C3.73908 11.1826 4.37225 11.1826 4.76277 11.5731L5.4699 12.2803L7.23767 10.5125C7.62819 10.122 8.26136 10.122 8.65188 10.5125ZM20.0002 11.4999C20.5525 11.4999 21.0002 11.9477 21.0002 12.4999C21.0002 13.0128 20.6142 13.4354 20.1168 13.4932L20.0002 13.4999H11.0002C10.4479 13.4999 10.0002 13.0522 10.0002 12.4999C10.0002 11.9871 10.3862 11.5644 10.8836 11.5066L11.0002 11.4999H20.0002ZM7.23767 3.5125C7.62819 3.12197 8.26136 3.12197 8.65188 3.5125C9.01236 3.87298 9.04009 4.44022 8.73507 4.83251L8.65188 4.92671L6.35378 7.22481C5.89817 7.68042 5.17835 7.71079 4.68752 7.31593L4.58602 7.22481L3.34856 5.98735C2.95803 5.59683 2.95803 4.96366 3.34856 4.57314C3.70904 4.21265 4.27628 4.18492 4.66856 4.48995L4.76277 4.57314L5.4699 5.28026L7.23767 3.5125ZM20.0002 4.49995C20.5525 4.49995 21.0002 4.94766 21.0002 5.49995C21.0002 6.01278 20.6142 6.43546 20.1168 6.49322L20.0002 6.49995H11.0002C10.4479 6.49995 10.0002 6.05223 10.0002 5.49995C10.0002 4.98711 10.3862 4.56444 10.8836 4.50668L11.0002 4.49995H20.0002Z" fill="#C3974C"/>
</g>
<defs>
<clipPath id="clip0_334_10738">
<rect width="24" height="24" fill="white" transform="translate(0 0.5)"/>
</clipPath>
</defs>
</svg>
