<svg width="16" height="16" viewBox="0 0 16 16" fill="none" xmlns="http://www.w3.org/2000/svg">
<path d="M8.00008 5.33335C6.52675 5.33335 5.33341 6.52669 5.33341 8.00002C5.33341 9.47335 6.52675 10.6667 8.00008 10.6667C9.47341 10.6667 10.6667 9.47335 10.6667 8.00002C10.6667 6.52669 9.47341 5.33335 8.00008 5.33335ZM13.9601 7.33335C13.6534 4.55335 11.4467 2.34669 8.66675 2.04002V1.33335C8.66675 0.966687 8.36675 0.666687 8.00008 0.666687C7.63341 0.666687 7.33341 0.966687 7.33341 1.33335V2.04002C4.55341 2.34669 2.34675 4.55335 2.04008 7.33335H1.33341C0.966748 7.33335 0.666748 7.63335 0.666748 8.00002C0.666748 8.36669 0.966748 8.66669 1.33341 8.66669H2.04008C2.34675 11.4467 4.55341 13.6534 7.33341 13.96V14.6667C7.33341 15.0334 7.63341 15.3334 8.00008 15.3334C8.36675 15.3334 8.66675 15.0334 8.66675 14.6667V13.96C11.4467 13.6534 13.6534 11.4467 13.9601 8.66669H14.6667C15.0334 8.66669 15.3334 8.36669 15.3334 8.00002C15.3334 7.63335 15.0334 7.33335 14.6667 7.33335H13.9601ZM8.00008 12.6667C5.42008 12.6667 3.33341 10.58 3.33341 8.00002C3.33341 5.42002 5.42008 3.33335 8.00008 3.33335C10.5801 3.33335 12.6667 5.42002 12.6667 8.00002C12.6667 10.58 10.5801 12.6667 8.00008 12.6667Z" fill="#888888"/>
</svg>
