<svg width="13" height="14" viewBox="0 0 13 14" fill="none" xmlns="http://www.w3.org/2000/svg">
<path d="M3.68701 3.89905C3.68701 3.17161 3.0973 2.58191 2.36987 2.58191C1.64244 2.58191 1.05273 3.17161 1.05273 3.89905V10.7548C1.05273 11.4822 1.64244 12.0719 2.36987 12.0719C3.0973 12.0719 3.68701 11.4822 3.68701 10.7548V3.89905Z" stroke="#1E1E1E" stroke-width="0.75" stroke-miterlimit="10"/>
<path d="M6.32666 3.89905C6.32666 3.17161 5.73695 2.58191 5.00952 2.58191C4.28208 2.58191 3.69238 3.17161 3.69238 3.89905V10.7548C3.69238 11.4822 4.28208 12.0719 5.00952 12.0719C5.73695 12.0719 6.32666 11.4822 6.32666 10.7548V3.89905Z" stroke="#1E1E1E" stroke-width="0.75" stroke-miterlimit="10"/>
<path d="M8.96093 3.89905C8.96093 3.17161 8.37123 2.58191 7.6438 2.58191C6.91636 2.58191 6.32666 3.17161 6.32666 3.89905V10.7548C6.32666 11.4822 6.91636 12.0719 7.6438 12.0719C8.37123 12.0719 8.96093 11.4822 8.96093 10.7548V3.89905Z" stroke="#1E1E1E" stroke-width="0.75" stroke-miterlimit="10"/>
<path d="M11.5952 3.89905C11.5952 3.17161 11.0055 2.58191 10.2781 2.58191C9.55064 2.58191 8.96094 3.17161 8.96094 3.89905V10.7548C8.96094 11.4822 9.55064 12.0719 10.2781 12.0719C11.0055 12.0719 11.5952 11.4822 11.5952 10.7548V3.89905Z" stroke="#1E1E1E" stroke-width="0.75" stroke-miterlimit="10"/>
<path d="M0 4.69299H1.05261" stroke="#1E1E1E" stroke-width="0.75" stroke-miterlimit="10"/>
<path d="M0 9.9613H1.05261" stroke="#1E1E1E" stroke-width="0.75" stroke-miterlimit="10"/>
<path d="M11.6006 4.69299H12.6532" stroke="#1E1E1E" stroke-width="0.75" stroke-miterlimit="10"/>
<path d="M11.6006 9.9613H12.6532" stroke="#1E1E1E" stroke-width="0.75" stroke-miterlimit="10"/>
<path d="M2.1106 12.0724V13.125" stroke="#1E1E1E" stroke-width="0.75" stroke-miterlimit="10"/>
<path d="M10.5427 12.0724V13.125" stroke="#1E1E1E" stroke-width="0.75" stroke-miterlimit="10"/>
<path d="M10.019 1.00049V2.58215" stroke="#1E1E1E" stroke-width="0.75" stroke-miterlimit="10"/>
<path d="M8.96094 1.00049H11.0717" stroke="#1E1E1E" stroke-width="0.75" stroke-miterlimit="10"/>
</svg>
