<svg width="14" height="14" viewBox="0 0 14 14" fill="none" xmlns="http://www.w3.org/2000/svg">
<path d="M10.2724 8.31562L9.35731 6.14951C9.35356 6.14068 9.34946 6.13207 9.34498 6.12359C9.16106 5.7778 8.79663 5.57365 8.40701 5.59219C8.35265 5.58347 8.29739 5.57893 8.24169 5.57893H7.90924L7.89278 5.51347H9.43456C9.6124 5.51347 9.75661 5.36929 9.75661 5.19142V2.75674C9.75661 1.23665 8.51996 0 6.99987 0C5.47978 0 4.24314 1.23665 4.24314 2.75674V5.19142C4.24314 5.36929 4.38735 5.51347 4.56519 5.51347H6.09256L6.07618 5.57893H5.75803C5.70236 5.57893 5.64704 5.58347 5.59266 5.59222C5.20317 5.57379 4.83871 5.77786 4.65474 6.12362C4.65026 6.13209 4.64616 6.14071 4.64241 6.14954L4.23559 7.11258C3.6456 7.20807 3.1022 7.33363 2.62062 7.48632C0.454671 8.17308 0 9.27747 0 10.083C0 10.8886 0.454671 11.9929 2.62076 12.6798C2.85824 12.7551 3.11382 12.8246 3.38034 12.8865C3.40486 12.8922 3.42936 12.895 3.45348 12.895C3.59988 12.895 3.73233 12.7944 3.76689 12.6457C3.80714 12.4724 3.6993 12.2994 3.52605 12.2591C3.27588 12.201 3.03682 12.1359 2.81541 12.0658C1.39491 11.6154 0.64408 10.9297 0.64408 10.083C0.64408 9.23634 1.39491 8.55067 2.81541 8.10029C3.15666 7.99209 3.53258 7.89814 3.937 7.81964L3.72749 8.31554C2.02286 8.69267 1.08705 9.31747 1.08705 10.0831C1.08705 10.7177 1.73099 11.2573 2.94926 11.6436C4.03587 11.9881 5.4744 12.1779 6.9999 12.1779C8.5254 12.1779 9.96393 11.9881 11.0505 11.6436C12.2688 11.2573 12.9128 10.7177 12.9128 10.0831C12.9128 9.31752 11.977 8.69275 10.2724 8.31562ZM8.82438 6.54296L9.69982 8.61526C9.70061 8.6172 9.70148 8.61917 9.70233 8.62105C9.71116 8.64085 9.7186 8.66127 9.72473 8.68217C9.72486 8.68269 9.72492 8.68315 9.72505 8.68367C9.76068 8.80669 9.74857 8.94972 9.69156 9.09443C9.69142 9.09475 9.69126 9.09511 9.69115 9.09541C9.68305 9.11589 9.67409 9.13637 9.66421 9.15685L8.42844 10.5636L8.15006 10.3164L9.04195 9.26781C9.12079 9.17512 9.14067 9.04587 9.09328 8.93376L8.30299 7.06435L8.82438 6.54296ZM4.88736 4.86934V2.75671C4.88736 1.59181 5.83509 0.64408 6.99998 0.64408C8.16488 0.64408 9.11261 1.59181 9.11261 2.75671V4.86934H8.2952C8.29678 4.86775 8.29823 4.86605 8.29985 4.86447C8.32 4.84426 8.33974 4.82359 8.35894 4.80234C8.36296 4.79794 8.36678 4.79335 8.37075 4.78889C8.38664 4.77095 8.40214 4.75266 8.41734 4.73401C8.42205 4.72824 8.42678 4.72253 8.43143 4.71668C8.44939 4.69404 8.46697 4.67101 8.48395 4.64733C8.48644 4.64389 8.48879 4.64028 8.49125 4.63681C8.50599 4.61597 8.52029 4.59467 8.53424 4.57309C8.53856 4.56639 8.54288 4.5597 8.54709 4.55297C8.56284 4.52787 8.57823 4.50249 8.59292 4.47649C8.59327 4.47583 8.5936 4.4752 8.59398 4.47455C8.60834 4.44901 8.62201 4.4229 8.63533 4.39645C8.63899 4.38921 8.64257 4.38191 8.64615 4.37455C8.65794 4.35041 8.66937 4.32591 8.68033 4.30105C8.68189 4.2975 8.68356 4.29405 8.68509 4.29052C8.69721 4.26258 8.70861 4.23406 8.71963 4.20524C8.7225 4.19767 8.72529 4.19004 8.7281 4.18244C8.73705 4.15813 8.74566 4.13352 8.75383 4.10863C8.75578 4.10273 8.75783 4.09693 8.75969 4.09103C8.76917 4.06125 8.77809 4.03101 8.78643 4.00044C8.78845 3.993 8.79034 3.98548 8.79228 3.97801C8.79895 3.95267 8.80519 3.92707 8.81106 3.90121C8.81276 3.89371 8.81454 3.88622 8.81618 3.8787C8.82304 3.84712 8.82933 3.81515 8.83499 3.78283C8.83614 3.77624 8.83715 3.76955 8.83824 3.7629C8.84278 3.73569 8.84691 3.70821 8.8506 3.68049C8.85175 3.6719 8.85293 3.66332 8.85399 3.6547C8.85812 3.62126 8.86176 3.58757 8.86469 3.55345C8.86507 3.54888 8.86529 3.54423 8.86567 3.53967C8.86808 3.50934 8.86996 3.47869 8.87141 3.44782C8.87182 3.43852 8.87226 3.42923 8.87261 3.4199C8.8739 3.38463 8.8748 3.34914 8.8748 3.31323V2.70301C8.8748 2.52513 8.73059 2.38095 8.55275 2.38095H5.44733C5.26948 2.38095 5.12527 2.52513 5.12527 2.70301V3.31321C5.12527 3.34949 5.12615 3.38537 5.12741 3.42097C5.12773 3.4304 5.12814 3.43978 5.12855 3.44916C5.12998 3.48066 5.13181 3.51189 5.13419 3.54281C5.13451 3.547 5.13471 3.55129 5.13506 3.55544C5.13791 3.5899 5.14143 3.62389 5.14551 3.65757C5.14655 3.66616 5.14767 3.67472 5.14879 3.68328C5.15245 3.71169 5.15655 3.73982 5.16109 3.76766C5.16208 3.7737 5.16292 3.77983 5.16396 3.78582C5.16954 3.81846 5.17572 3.85067 5.18245 3.88253C5.18403 3.88997 5.18573 3.89732 5.18737 3.90473C5.19322 3.93117 5.19948 3.95731 5.20616 3.98321C5.20791 3.99002 5.20957 3.99691 5.21138 4.00366C5.21964 4.03448 5.22839 4.06491 5.23779 4.09488C5.23965 4.10084 5.24165 4.10667 5.24359 4.1126C5.25171 4.13778 5.26024 4.16264 5.26916 4.18722C5.2717 4.19422 5.27419 4.20127 5.27678 4.20819C5.28767 4.23718 5.29899 4.26578 5.31099 4.29386C5.31266 4.2978 5.31446 4.30163 5.31619 4.30556C5.32691 4.3302 5.33809 4.35445 5.34966 4.37835C5.35294 4.38513 5.35622 4.39194 5.35958 4.39864C5.37306 4.42574 5.38695 4.45245 5.40155 4.47857C5.40221 4.47969 5.40287 4.48078 5.40352 4.4819C5.41755 4.5069 5.43221 4.53129 5.44724 4.55538C5.45121 4.56172 5.45523 4.56804 5.45925 4.57432C5.47423 4.59768 5.48957 4.62067 5.50549 4.64315C5.50658 4.64471 5.50762 4.64629 5.50871 4.64785C5.52569 4.67161 5.54333 4.69472 5.56138 4.71744C5.56592 4.72318 5.57056 4.72884 5.57516 4.7345C5.59094 4.75392 5.60707 4.77295 5.62367 4.79157C5.62665 4.79491 5.62952 4.79841 5.63255 4.80171C5.65175 4.82293 5.67149 4.84355 5.69167 4.8637C5.69353 4.86556 5.69528 4.86756 5.69714 4.86944H4.88736V4.86934ZM6.32757 6.22301C6.47526 6.22301 6.60405 6.12252 6.63998 5.97924L6.81782 5.2697L6.86715 5.0728C6.87248 5.05142 6.8756 5.03001 6.87655 5.00882C6.88328 4.86042 6.78613 4.7225 6.63702 4.68313C6.34335 4.60558 6.1479 4.44174 6.01832 4.24924C5.99672 4.21716 5.97695 4.18424 5.95887 4.15085C5.94982 4.13415 5.94118 4.1173 5.93298 4.10035C5.79317 3.81231 5.76935 3.49545 5.76935 3.31323V3.02509H8.23067V3.31323C8.23067 3.60466 8.16969 4.23764 7.67409 4.54993C7.58229 4.60777 7.4756 4.65461 7.35165 4.68622C7.30869 4.69721 7.26995 4.71632 7.23667 4.74153C7.22005 4.75416 7.20479 4.7683 7.19103 4.7837C7.18417 4.79138 7.17766 4.79942 7.17162 4.80773C7.12905 4.86584 7.10608 4.93778 7.10947 5.01242C7.11042 5.03375 7.11351 5.05533 7.11893 5.07685L7.16749 5.26995C7.16749 5.26995 7.16749 5.26995 7.16749 5.26998L7.34591 5.97949C7.38192 6.12263 7.5106 6.22301 7.65823 6.22301H8.23348L7.97194 6.48458L6.99998 7.45654L6.02802 6.48458L5.76648 6.22301H6.32757ZM6.18842 7.55593L6.77224 8.1397C6.83267 8.20007 6.91456 8.23403 6.99996 8.23403C7.08538 8.23403 7.16727 8.2001 7.22767 8.1397L7.81143 7.55593L8.42265 9.00181L7.79268 9.74244C7.26894 9.76651 6.73089 9.76651 6.20715 9.74244L5.57718 9.00181L6.18842 7.55593ZM4.27491 8.68362C4.27508 8.68307 4.27513 8.68252 4.27527 8.68195C4.28139 8.66114 4.2888 8.64082 4.29758 8.62108C4.29843 8.61914 4.29927 8.61722 4.3001 8.61528L5.17553 6.54302L5.69692 7.06446L4.90663 8.93386C4.85922 9.04597 4.87913 9.1752 4.95796 9.26792L5.84985 10.3165L5.57147 10.5637L4.3357 9.15696C4.32585 9.13654 4.31691 9.11608 4.30884 9.09569C4.30868 9.09527 4.30849 9.09481 4.30833 9.0944C4.25134 8.94964 4.23928 8.80663 4.27491 8.68362ZM10.856 11.0295C9.8306 11.3546 8.4612 11.5336 7.00001 11.5336C5.53882 11.5336 4.16936 11.3546 3.14406 11.0295C2.10128 10.6989 1.73129 10.313 1.73129 10.083C1.73129 9.7758 2.32626 9.32513 3.6217 9.00206C3.63545 9.10247 3.6614 9.20361 3.69924 9.30426C3.70048 9.30757 3.70176 9.31085 3.70302 9.31419C3.70917 9.33027 3.71551 9.34629 3.72227 9.36234C3.72623 9.37177 3.73047 9.38118 3.73465 9.39059C3.73969 9.40188 3.74458 9.41323 3.74991 9.42449C3.75984 9.44552 3.7702 9.46646 3.78119 9.48733C3.78155 9.48798 3.78185 9.48864 3.78215 9.4893C3.79394 9.51161 3.80835 9.53247 3.82497 9.55145L5.30131 11.2321C5.35786 11.2965 5.43776 11.3357 5.52334 11.341C5.53001 11.3414 5.53663 11.3416 5.54328 11.3416C5.54565 11.3416 5.54803 11.3413 5.55047 11.3412C5.5543 11.3411 5.55812 11.3409 5.56192 11.3407C5.56857 11.3403 5.57513 11.3398 5.58169 11.339C5.58525 11.3386 5.58878 11.3381 5.59233 11.3375C5.59897 11.3365 5.60554 11.3353 5.6121 11.3338C5.61557 11.3331 5.61904 11.3323 5.62249 11.3314C5.62889 11.3298 5.63523 11.3279 5.64158 11.3259C5.64502 11.3248 5.64849 11.3237 5.65191 11.3224C5.65806 11.3203 5.66408 11.3177 5.6701 11.3152C5.67351 11.3137 5.67693 11.3123 5.68027 11.3108C5.68623 11.308 5.69203 11.3049 5.69779 11.3017C5.70099 11.2999 5.70425 11.2984 5.70737 11.2965C5.71341 11.2929 5.71926 11.2889 5.72511 11.2849C5.72776 11.2831 5.73044 11.2815 5.73304 11.2796C5.74133 11.2736 5.74936 11.2672 5.7571 11.2603L6.51332 10.5888C6.52106 10.582 6.52828 10.5748 6.53519 10.5674C6.53749 10.5649 6.53952 10.5623 6.5417 10.5598C6.54616 10.5547 6.55053 10.5497 6.55461 10.5443C6.55696 10.5413 6.55915 10.5381 6.56142 10.5349C6.56497 10.53 6.56844 10.525 6.57167 10.5199C6.5738 10.5165 6.5758 10.5131 6.5778 10.5097C6.5808 10.5045 6.58362 10.4993 6.58633 10.494C6.5881 10.4906 6.58983 10.4871 6.59147 10.4836C6.59404 10.478 6.59639 10.4724 6.59866 10.4667C6.59997 10.4634 6.60137 10.4601 6.60257 10.4567C6.60489 10.4502 6.60689 10.4437 6.60878 10.4371C6.60954 10.4344 6.61045 10.4318 6.61113 10.4292C6.61353 10.4199 6.61564 10.4105 6.61723 10.401C6.87229 10.4064 7.12781 10.4064 7.38285 10.401C7.38444 10.4105 7.38651 10.4199 7.38895 10.4292C7.38963 10.4319 7.39053 10.4344 7.3913 10.4371C7.39319 10.4437 7.39518 10.4503 7.39751 10.4567C7.39871 10.4601 7.40008 10.4634 7.40142 10.4667C7.40366 10.4724 7.40601 10.478 7.40861 10.4836C7.41025 10.4871 7.41194 10.4905 7.41372 10.494C7.41643 10.4993 7.41927 10.5045 7.42225 10.5097C7.42425 10.5131 7.42624 10.5165 7.42838 10.5198C7.43163 10.5249 7.43508 10.53 7.43863 10.5349C7.44087 10.5381 7.44309 10.5412 7.44541 10.5443C7.44951 10.5496 7.45389 10.5547 7.45832 10.5598C7.46051 10.5623 7.46253 10.5649 7.46483 10.5673C7.47172 10.5747 7.47896 10.5819 7.4867 10.5888L8.24292 11.2603C8.25057 11.2671 8.25861 11.2735 8.26682 11.2795C8.27007 11.2818 8.27349 11.2839 8.27682 11.2862C8.28185 11.2896 8.28686 11.293 8.29205 11.2961C8.29629 11.2986 8.30069 11.3008 8.30499 11.3032C8.3095 11.3056 8.31401 11.3081 8.3186 11.3102C8.32328 11.3125 8.32807 11.3144 8.33288 11.3164C8.33739 11.3183 8.34193 11.3202 8.34652 11.3219C8.35131 11.3236 8.35623 11.3252 8.36112 11.3267C8.36596 11.3282 8.37078 11.3296 8.37567 11.3309C8.3804 11.3321 8.38513 11.3332 8.38994 11.3342C8.39525 11.3353 8.40058 11.3363 8.40594 11.3372C8.41045 11.3379 8.41499 11.3386 8.41953 11.3391C8.4253 11.3398 8.4311 11.3402 8.43692 11.3406C8.44127 11.3408 8.44559 11.3411 8.44996 11.3412C8.45221 11.3412 8.45448 11.3415 8.45672 11.3415C8.46331 11.3415 8.46998 11.3413 8.47665 11.3409C8.56218 11.3356 8.64213 11.2964 8.69868 11.232L10.175 9.55139C10.1917 9.53242 10.2061 9.51158 10.2178 9.48924C10.2182 9.48856 10.2185 9.4879 10.2188 9.48725C10.2298 9.46646 10.2401 9.44557 10.25 9.4246C10.2555 9.41306 10.2605 9.40152 10.2656 9.38996C10.2697 9.38083 10.2738 9.37169 10.2776 9.36256C10.2845 9.34629 10.291 9.32999 10.2972 9.31367C10.2983 9.31066 10.2995 9.30768 10.3006 9.30467C10.3385 9.20391 10.3645 9.10268 10.3783 9.00217C11.6739 9.3251 12.2687 9.77569 12.2687 10.083C12.2687 10.313 11.8987 10.6989 10.856 11.0295Z" fill="#1E1E1E"/>
<path d="M4.73949 12.6944C4.73528 12.6738 4.72918 12.6535 4.72114 12.6342C4.7131 12.6145 4.70307 12.5958 4.69147 12.5784C4.67958 12.5607 4.66607 12.5443 4.65122 12.5295C4.6364 12.5147 4.62 12.5012 4.60228 12.4896C4.58489 12.478 4.56621 12.468 4.54688 12.4599C4.52725 12.4519 4.50696 12.4454 4.48667 12.4416C4.44514 12.4332 4.40229 12.4332 4.36075 12.4416C4.34014 12.4454 4.31985 12.4519 4.30054 12.4599C4.28088 12.468 4.26226 12.478 4.24487 12.4896C4.22712 12.5012 4.21069 12.5147 4.1959 12.5295C4.18108 12.5443 4.16757 12.5607 4.15598 12.5784C4.14441 12.5958 4.1344 12.6145 4.12634 12.6342C4.1183 12.6535 4.1122 12.6738 4.10802 12.6944C4.1038 12.715 4.10156 12.7362 4.10156 12.7572C4.10156 12.7781 4.10378 12.7994 4.10802 12.8203C4.1122 12.8406 4.1183 12.8609 4.12634 12.8805C4.13437 12.8999 4.14441 12.9185 4.15598 12.9359C4.16757 12.9536 4.18111 12.97 4.1959 12.9849C4.21072 12.9997 4.22712 13.0132 4.24487 13.0251C4.26226 13.0367 4.28091 13.0467 4.30054 13.0548C4.3199 13.0628 4.34016 13.0689 4.36075 13.0731C4.38137 13.0773 4.40262 13.0792 4.42356 13.0792C4.44445 13.0792 4.46575 13.0773 4.48667 13.0731C4.50696 13.0689 4.52725 13.0628 4.54688 13.0548C4.56621 13.0467 4.58489 13.0367 4.60228 13.0251C4.62 13.0132 4.6364 12.9997 4.65122 12.9849C4.71144 12.925 4.74562 12.8422 4.74562 12.7572C4.74562 12.7362 4.74365 12.715 4.73949 12.6944Z" fill="#1E1E1E"/>
<path d="M12.3876 7.89245C12.2292 7.81148 12.0352 7.87413 11.9542 8.03245C11.8731 8.1908 11.9358 8.3848 12.0942 8.46587C12.9314 8.89427 13.3559 9.43838 13.3559 10.083C13.3559 10.9298 12.6051 11.6154 11.1846 12.0658C10.0559 12.4236 8.56978 12.6207 7.00003 12.6207C6.82219 12.6207 6.67798 12.7649 6.67798 12.9428C6.67798 13.1206 6.82219 13.2648 7.00003 13.2648C8.63401 13.2648 10.1893 13.057 11.3793 12.6797C13.5453 11.9929 14 10.8885 14 10.083C14 9.46009 13.7202 8.5744 12.3876 7.89245Z" fill="#1E1E1E"/>
<path d="M11.6237 7.73865C11.6199 7.71804 11.6138 7.69775 11.6057 7.67844C11.5977 7.65911 11.5876 7.64043 11.5761 7.62272C11.5641 7.60533 11.5506 7.58859 11.5358 7.57377C11.4759 7.51386 11.3928 7.47974 11.3081 7.47974C11.2234 7.47974 11.1403 7.51386 11.0804 7.57377C11.0656 7.58892 11.0521 7.60533 11.0405 7.62272C11.0289 7.64043 11.019 7.65911 11.0109 7.67844C11.0028 7.69777 10.9967 7.71806 10.9925 7.73865C10.9884 7.7596 10.9861 7.78052 10.9861 7.80176C10.9861 7.82271 10.9883 7.84363 10.9925 7.86457C10.9967 7.88519 11.0028 7.90548 11.0109 7.92481C11.0189 7.94414 11.0289 7.96282 11.0405 7.98054C11.0521 7.99793 11.0657 8.01466 11.0804 8.02948C11.1403 8.08939 11.2234 8.12384 11.3081 8.12384C11.3928 8.12384 11.4759 8.08939 11.5358 8.02948C11.5506 8.01466 11.5641 7.99825 11.5761 7.98054C11.5876 7.96282 11.5976 7.94414 11.6057 7.92481C11.6137 7.90548 11.6199 7.88519 11.6237 7.86457C11.6279 7.84363 11.6302 7.82271 11.6302 7.80176C11.6302 7.78052 11.628 7.75957 11.6237 7.73865Z" fill="#1E1E1E"/>
</svg>
