<svg width="16" height="16" viewBox="0 0 16 16" fill="none" xmlns="http://www.w3.org/2000/svg">
<path d="M15.85 14.0026L13.9782 12.1308C13.9463 12.0989 13.9065 12.0764 13.8629 12.0655L12.3654 11.6911C12.2721 11.6678 12.1842 11.702 12.1181 11.7681L10.4076 10.0576C10.8328 9.61985 11.2364 9.15778 11.6094 8.68113C11.6939 8.57319 11.6748 8.41719 11.5669 8.33275C11.4589 8.24822 11.303 8.26735 11.2185 8.37525C10.8578 8.83613 10.4677 9.2831 10.0566 9.70663L9.64959 9.29963C10.3003 8.47563 10.2461 7.27325 9.48581 6.513C9.08893 6.11615 8.56127 5.89756 8.00005 5.89756C7.52187 5.89756 7.0684 6.05672 6.69908 6.34909L6.29243 5.94243C7.19718 5.06396 8.18909 4.29971 9.25059 3.65855C9.98212 3.86877 10.6523 4.26337 11.1939 4.80499C11.7356 5.34671 12.1303 6.01715 12.3405 6.74903C12.1676 7.03481 11.9856 7.31625 11.7943 7.593C11.7154 7.70709 11.7493 7.87272 11.868 7.94509C11.9781 8.01222 12.129 7.98163 12.2026 7.87522C13.5564 5.91656 14.465 3.73296 14.9032 1.38517C14.9347 1.21658 14.7822 1.06442 14.6137 1.09567C11.3327 1.70796 8.33965 3.26099 5.94149 5.59159L4.23292 3.88302C4.29905 3.8169 4.33327 3.72899 4.30989 3.63565L3.93555 2.13811C3.92464 2.09449 3.90211 2.05468 3.87027 2.02283L1.99842 0.150953C1.79845 -0.0490157 1.47304 -0.0490157 1.2731 0.150953L0.149977 1.27408C-0.0499923 1.47408 -0.0499923 1.79946 0.149977 1.99943L2.02182 3.87124C2.05364 3.90305 2.09351 3.92562 2.13711 3.93652L3.63455 4.3109C3.72798 4.33424 3.81583 4.30002 3.88192 4.2339L5.59064 5.94262C5.32755 6.21353 5.0718 6.49368 4.82908 6.77903C4.74149 6.88203 4.7543 7.04128 4.85733 7.12884C4.96033 7.21647 5.11955 7.20362 5.20714 7.10059C5.4413 6.82531 5.68786 6.555 5.94161 6.29353L6.34846 6.70037C5.69986 7.52428 5.75477 8.72497 6.51424 9.48441C6.91111 9.88126 7.43877 10.0998 7.99999 10.0998C8.47709 10.0998 8.92956 9.94141 9.29837 9.65029L9.70531 10.0572C8.80124 10.9347 7.81002 11.6982 6.7494 12.3389C6.01789 12.1286 5.34771 11.734 4.80617 11.1924C4.26514 10.6514 3.87077 9.98197 3.66033 9.25122C3.94423 8.7796 4.25152 8.32244 4.58158 7.88287C4.66274 7.77478 4.6403 7.61656 4.53214 7.53541C4.42402 7.45425 4.26586 7.47678 4.18467 7.58487C3.82833 8.05947 3.49773 8.55394 3.19364 9.06466C3.18845 9.0716 3.18311 9.0785 3.17861 9.0861C2.76142 9.78741 2.39173 10.5274 2.07992 11.2855C2.07542 11.2964 2.07201 11.3077 2.06914 11.3189C1.63473 12.3802 1.3071 13.4855 1.09685 14.6122C1.06535 14.7809 1.21785 14.933 1.38635 14.9017C4.6663 14.2896 7.65849 12.7374 10.0562 10.4081L11.7671 12.1189C11.701 12.185 11.6667 12.2729 11.6901 12.3663L12.0645 13.8638C12.0754 13.9074 12.0979 13.9472 12.1297 13.979L14.0016 15.8509C14.199 16.0482 14.5295 16.0482 14.7269 15.8509L15.85 14.7278C16.05 14.528 16.05 14.2026 15.85 14.0026ZM14.3437 1.65508C14.1697 2.48627 13.9338 3.29537 13.6381 4.07971C13.4058 3.74637 13.144 3.43259 12.8551 3.14368C12.5667 2.85524 12.2534 2.59383 11.9207 2.36186C12.7049 2.06599 13.5142 1.82905 14.3437 1.65508ZM11.3601 2.5858C11.7732 2.8428 12.1576 3.14808 12.5041 3.49468C12.8506 3.84115 13.1559 4.22556 13.4129 4.63865C13.1926 5.16287 12.9439 5.67753 12.6704 6.17537C12.4196 5.53306 12.0366 4.94571 11.5447 4.45393C11.053 3.96212 10.4656 3.57912 9.82334 3.32827C10.3212 3.05483 10.8358 2.80618 11.3601 2.5858ZM3.61864 3.79537L2.32417 3.47168L0.500915 1.64843C0.499727 1.64724 0.496071 1.64358 0.496071 1.63671C0.496071 1.62986 0.499696 1.62624 0.500915 1.62502L1.62401 0.501954C1.6252 0.500767 1.62885 0.49711 1.63573 0.49711C1.6426 0.49711 1.64623 0.500735 1.64745 0.501954L3.4707 2.32518L3.79433 3.61965L3.61864 3.79537ZM7.99999 9.60357C7.5713 9.60357 7.1683 9.43663 6.86518 9.1335C6.29955 8.56788 6.24533 7.68159 6.70236 7.05437L8.9444 9.29641C8.67171 9.49575 8.34421 9.60357 7.99999 9.60357ZM9.29574 8.94575L7.05293 6.70294C7.32615 6.50237 7.65474 6.39387 8.00002 6.39387C8.42871 6.39387 8.83171 6.56081 9.13484 6.86394C9.70124 7.43037 9.75484 8.31841 9.29574 8.94575ZM1.65642 14.3424C1.82961 13.5192 2.06742 12.7094 2.36507 11.9222C2.59658 12.2539 2.85729 12.5662 3.14489 12.8538C3.43333 13.1422 3.74655 13.4036 4.07927 13.6356C3.29514 13.9315 2.48589 14.1684 1.65642 14.3424ZM4.63992 13.4117C4.22683 13.1547 3.84242 12.8494 3.49589 12.5028C3.15008 12.157 2.84533 11.7734 2.58867 11.3613C2.80933 10.8366 3.0573 10.3236 3.3307 9.82485C3.58155 10.4661 3.96414 11.0525 4.45524 11.5435C4.94705 12.0353 5.53436 12.4184 6.17664 12.6692C5.67883 12.9426 5.16417 13.1913 4.63992 13.4117ZM15.4991 14.377L14.376 15.5C14.3748 15.5012 14.3711 15.5049 14.3643 15.5049C14.3574 15.5049 14.3538 15.5013 14.3525 15.5L12.5293 13.6768L12.2057 12.3824L12.3813 12.2066L13.6758 12.5303L15.499 14.3535C15.5002 14.3547 15.5039 14.3584 15.5039 14.3653C15.5039 14.3721 15.5003 14.3758 15.4991 14.377Z" fill="#1E1E1E"/>
</svg>
