<svg width="16" height="13" viewBox="0 0 16 13" fill="none" xmlns="http://www.w3.org/2000/svg">
<path d="M0.96 0.560059C0.43375 0.560059 0 0.993809 0 1.52006V10.4801C0 11.0063 0.43375 11.4401 0.96 11.4401H1.6V11.7601C1.6 12.1101 1.89 12.4001 2.24 12.4001H3.2C3.55 12.4001 3.84 12.1101 3.84 11.7601V11.4401H12.16V11.7601C12.16 12.1101 12.45 12.4001 12.8 12.4001H13.76C14.11 12.4001 14.4 12.1101 14.4 11.7601V11.4401H15.04C15.5663 11.4401 16 11.0063 16 10.4801V1.52006C16 0.993809 15.5663 0.560059 15.04 0.560059H0.96ZM0.96 1.20006H15.04C15.22 1.20006 15.36 1.34006 15.36 1.52006V10.4801C15.36 10.6601 15.22 10.8001 15.04 10.8001H12.54C12.4975 10.7913 12.4525 10.7913 12.41 10.8001H1.98C1.9375 10.7913 1.8925 10.7913 1.85 10.8001H0.96C0.78 10.8001 0.64 10.6601 0.64 10.4801V1.52006C0.64 1.34006 0.78 1.20006 0.96 1.20006ZM1.6 2.16006V9.84006H12.8V2.16006H1.6ZM2.24 2.80006H12.16V9.20006H2.24V2.80006ZM14.08 3.12006C13.7263 3.12006 13.44 3.40631 13.44 3.76006C13.44 4.11381 13.7263 4.40006 14.08 4.40006C14.4338 4.40006 14.72 4.11381 14.72 3.76006C14.72 3.40631 14.4338 3.12006 14.08 3.12006ZM10.93 4.38006C10.8663 4.37881 10.8038 4.39631 10.75 4.43006C10.75 4.43006 9.26875 5.04006 8.36 5.04006C7.90625 5.04006 7.6 4.91006 7.23 4.75006C6.86 4.59006 6.42125 4.40006 5.83 4.40006C4.6475 4.40006 3.38 5.07006 3.38 5.07006C3.22 5.14756 3.1525 5.34006 3.23 5.50006C3.3075 5.66006 3.5 5.72756 3.66 5.65006C3.66 5.65006 4.90625 5.04006 5.83 5.04006C6.2925 5.04006 6.60125 5.17006 6.97 5.33006C7.33875 5.49006 7.775 5.68006 8.36 5.68006C9.53125 5.68006 11.01 5.01006 11.01 5.01006C11.1663 4.97006 11.2688 4.82006 11.2475 4.66006C11.2275 4.50006 11.0913 4.38006 10.93 4.38006ZM14.08 5.36006C13.7263 5.36006 13.44 5.64631 13.44 6.00006C13.44 6.35381 13.7263 6.64006 14.08 6.64006C14.4338 6.64006 14.72 6.35381 14.72 6.00006C14.72 5.64631 14.4338 5.36006 14.08 5.36006ZM10.93 6.30006C10.8663 6.29881 10.8038 6.31631 10.75 6.35006C10.75 6.35006 9.26875 6.96006 8.36 6.96006C7.90625 6.96006 7.6 6.83006 7.23 6.67006C6.86 6.51006 6.42125 6.32006 5.83 6.32006C4.6475 6.32006 3.38 6.99006 3.38 6.99006C3.22 7.06756 3.1525 7.26006 3.23 7.42006C3.3075 7.58006 3.5 7.64756 3.66 7.57006C3.66 7.57006 4.90625 6.96006 5.83 6.96006C6.2925 6.96006 6.60125 7.09006 6.97 7.25006C7.33875 7.41006 7.775 7.60006 8.36 7.60006C9.53125 7.60006 11.01 6.93006 11.01 6.93006C11.1663 6.89006 11.2688 6.74006 11.2475 6.58006C11.2275 6.42006 11.0913 6.30006 10.93 6.30006ZM14.08 7.60006C13.7263 7.60006 13.44 7.88631 13.44 8.24006C13.44 8.59381 13.7263 8.88006 14.08 8.88006C14.4338 8.88006 14.72 8.59381 14.72 8.24006C14.72 7.88631 14.4338 7.60006 14.08 7.60006ZM2.24 11.4401H3.2V11.7601H2.24V11.4401ZM12.8 11.4401H13.76V11.7601H12.8V11.4401Z" fill="#1E1E1E"/>
</svg>
