<svg width="16" height="16" viewBox="0 0 16 16" fill="none" xmlns="http://www.w3.org/2000/svg">
<g clip-path="url(#clip0_710_34687)">
<path d="M15.9496 3.57639L14.211 0.240957C14.1354 0.0929255 13.9843 0.00158691 13.8173 0.00158691H2.18268C2.01575 0.00158691 1.86457 0.0929255 1.78898 0.240957L0.0503937 3.57639C0.0472441 3.58269 0 3.66458 0 3.78111V15.5543C0 15.8 0.198425 15.9984 0.444095 15.9984H15.5559C15.8016 15.9984 16 15.8 16 15.5543V3.78111C16 3.66773 15.9528 3.58269 15.9496 3.57639ZM2.45354 0.889776H13.5496L14.8252 3.33702H1.17795L2.45354 0.889776ZM15.1118 15.1134H0.888189V6.6819H15.1118V15.1134ZM15.1118 5.79056H0.888189V4.22521H15.1118V5.79056Z" fill="#1E1E1E"/>
<path d="M13.7796 7.57007H2.22367C1.978 7.57007 1.77958 7.76849 1.77958 8.01416V13.7811C1.77643 14.0236 1.978 14.2252 2.22367 14.2252H13.7796C14.0252 14.2252 14.2237 14.0268 14.2237 13.7811V8.01416C14.2237 7.76849 14.0252 7.57007 13.7796 7.57007ZM13.3323 13.3338H2.66777V8.45826H4.14178V9.14172C4.14178 9.38739 4.34021 9.58582 4.58588 9.58582C4.83155 9.58582 5.02997 9.38739 5.02997 9.14172V8.45826H5.91816V10.0331C5.91816 10.2787 6.11659 10.4772 6.36225 10.4772C6.60792 10.4772 6.80635 10.2787 6.80635 10.0331V8.45826H13.3323V13.3338Z" fill="#1E1E1E"/>
<path d="M2.73702 4.56531H2.22364C1.97797 4.56531 1.77954 4.76373 1.77954 5.0094C1.77954 5.25507 1.97797 5.4535 2.22364 5.4535H2.73702C2.98269 5.4535 3.18112 5.25507 3.18112 5.0094C3.18112 4.76373 2.98269 4.56531 2.73702 4.56531Z" fill="#1E1E1E"/>
<path d="M6.41573 4.56531H5.90235C5.65668 4.56531 5.45825 4.76373 5.45825 5.0094C5.45825 5.25507 5.65668 5.4535 5.90235 5.4535H6.41573C6.6614 5.4535 6.85983 5.25507 6.85983 5.0094C6.85983 4.76373 6.6614 4.56531 6.41573 4.56531Z" fill="#1E1E1E"/>
<path d="M10.0944 4.56531H9.58106C9.33539 4.56531 9.13696 4.76373 9.13696 5.0094C9.13696 5.25507 9.33854 5.4535 9.58106 5.4535H10.0944C10.3401 5.4535 10.5385 5.25507 10.5385 5.0094C10.5385 4.76373 10.3401 4.56531 10.0944 4.56531Z" fill="#1E1E1E"/>
<path d="M13.7763 4.56531H13.2629C13.0173 4.56531 12.8188 4.76373 12.8188 5.0094C12.8188 5.25507 13.0173 5.4535 13.2629 5.4535H13.7763C14.022 5.4535 14.2204 5.25507 14.2204 5.0094C14.2204 4.76373 14.022 4.56531 13.7763 4.56531Z" fill="#1E1E1E"/>
<path d="M6.03454 1.6709H3.76367C3.51801 1.6709 3.31958 1.86932 3.31958 2.11499C3.31958 2.36066 3.51801 2.55909 3.76367 2.55909H6.03454C6.28021 2.55909 6.47864 2.36066 6.47864 2.11499C6.47864 1.86932 6.28021 1.6709 6.03454 1.6709Z" fill="#1E1E1E"/>
<path d="M12.2362 1.6709H9.96533C9.71967 1.6709 9.52124 1.86932 9.52124 2.11499C9.52124 2.36066 9.71967 2.55909 9.96533 2.55909H12.2362C12.4819 2.55909 12.6803 2.36066 12.6803 2.11499C12.6803 1.86932 12.4819 1.6709 12.2362 1.6709Z" fill="#1E1E1E"/>
</g>
<defs>
<clipPath id="clip0_710_34687">
<rect width="16" height="16" fill="white"/>
</clipPath>
</defs>
</svg>
