<svg width="12" height="14" viewBox="0 0 12 14" fill="none" xmlns="http://www.w3.org/2000/svg">
<path d="M9.10539 5.19088C10.0653 5.79076 10.5451 6.0907 10.7097 6.47476C10.8535 6.8101 10.8535 7.18976 10.7097 7.52516C10.5451 7.90916 10.0653 8.2091 9.10539 8.80903L4.59725 11.6266C3.53195 12.2924 2.9993 12.6254 2.55974 12.59C2.17659 12.5592 1.82537 12.3646 1.59619 12.056C1.33325 11.702 1.33325 11.0738 1.33325 9.81756V4.18234C1.33325 2.92609 1.33325 2.29797 1.59619 1.94395C1.82537 1.63536 2.17659 1.4407 2.55974 1.4099C2.9993 1.37456 3.53195 1.70747 4.59725 2.37328L9.10539 5.19088Z" stroke="#1E1E1E" stroke-linejoin="round"/>
</svg>
