<svg width="18" height="21" viewBox="0 0 18 21" fill="none" xmlns="http://www.w3.org/2000/svg">
<path d="M1 19.5C1 15.9735 3.60771 13.0561 7 12.5709M13.4976 14.7119C12.7978 13.9328 11.6309 13.7232 10.7541 14.4367C9.8774 15.1501 9.7539 16.343 10.4425 17.1868C10.8312 17.6632 11.7548 18.4983 12.4854 19.1353C12.8319 19.4374 13.0051 19.5885 13.2147 19.6503C13.3934 19.703 13.6018 19.703 13.7805 19.6503C13.9901 19.5885 14.1633 19.4374 14.5098 19.1353C15.2404 18.4983 16.164 17.6632 16.5527 17.1868C17.2413 16.343 17.1329 15.1426 16.2411 14.4367C15.3492 13.7307 14.1974 13.9328 13.4976 14.7119ZM12 5.5C12 7.70914 10.2091 9.5 8 9.5C5.79086 9.5 4 7.70914 4 5.5C4 3.29086 5.79086 1.5 8 1.5C10.2091 1.5 12 3.29086 12 5.5Z" stroke="#001B48" stroke-width="1.5" stroke-linecap="round" stroke-linejoin="round"/>
</svg>
