<svg width="12" height="14" viewBox="0 0 12 14" fill="none" xmlns="http://www.w3.org/2000/svg">
<path d="M9.6425 8.85974V8.60719C9.6425 8.4684 9.52601 8.35585 9.38236 8.35585H8.34178C8.19813 8.35585 8.08164 8.4684 8.08164 8.60719V8.85526C7.85492 8.85569 7.528 8.85635 7.30121 8.85677V8.18854C8.00783 7.73218 8.47061 6.94864 8.47185 6.06945C8.47185 5.9761 8.47185 5.80369 8.47185 5.59113H8.732C9.16233 5.59113 9.51243 5.25288 9.51243 4.83711C9.51243 4.42135 9.16233 4.0831 8.732 4.0831H8.47185C8.47185 3.87647 8.47185 3.70898 8.47185 3.61724C8.74953 3.61646 9.01043 3.51165 9.20681 3.32194C9.56849 2.97248 9.61269 2.40911 9.3097 2.01159C7.64509 -0.175762 4.28892 -0.234123 2.54299 1.89019C2.50688 1.94828 2.22839 2.18599 2.22839 2.62043C2.22839 3.17008 2.69124 3.61724 3.26013 3.61724H3.26897V4.0831H3.00883C2.5785 4.0831 2.22839 4.42135 2.22839 4.83711C2.22839 5.25288 2.5785 5.59113 3.00883 5.59113H3.26897V6.09381C3.26897 6.99066 3.75536 7.78137 4.49165 8.22639V8.8568C4.25169 8.85635 3.89888 8.85569 3.65919 8.85524V8.62205C3.65919 8.48326 3.54272 8.37071 3.39904 8.37071H2.35847C2.21479 8.37071 2.09832 8.48326 2.09832 8.62205V8.89563C1.27353 9.0691 0.667528 9.77906 0.667528 10.6141L0.666748 12.8819C0.666696 13.0204 0.78298 13.1333 0.926892 13.1333C1.3528 13.1333 10.7321 13.1333 11.0725 13.1333C11.2161 13.1333 11.3326 13.0208 11.3327 12.882L11.3334 10.6141C11.3334 9.68632 10.5861 8.92446 9.6425 8.85974ZM9.12222 8.85853V9.10987C9.12222 9.24846 9.00551 9.36121 8.86207 9.36121C8.71863 9.36121 8.60193 9.24846 8.60193 9.10987V9.10861C8.60224 9.08391 8.60193 9.19691 8.60193 8.85853H9.12222ZM6.40181 9.82108L7.12171 9.35978C7.44379 9.35915 7.70768 9.35865 7.92087 9.35822L7.44142 10.2871C7.21861 10.1872 6.58935 9.90516 6.40181 9.82108ZM4.66829 9.3598L5.34932 9.81649L4.2994 10.2871L3.81993 9.35822C4.12133 9.35877 4.50132 9.3595 4.66829 9.3598ZM5.59323 11.3719H6.12418L6.55129 12.6306H5.18467L5.59323 11.3719ZM6.12395 10.8692H5.56495L5.32016 10.3837L5.87044 10.1371L6.30511 10.3319L6.12395 10.8692ZM7.69142 3.10288C7.83487 3.10288 7.95157 3.21563 7.95157 3.35421C7.95157 3.35675 7.95157 3.36844 7.95157 3.3659V3.60945H3.78926C3.78926 3.59661 3.78926 3.34079 3.78926 3.35421C3.78926 3.21563 3.90596 3.10288 4.0494 3.10288C4.45369 3.10288 7.27392 3.10288 7.69142 3.10288ZM8.732 4.58577C8.87544 4.58577 8.99214 4.69852 8.99214 4.83711C8.99214 4.9757 8.87544 5.08845 8.732 5.08845H8.47185C8.47185 4.92262 8.47185 4.75133 8.47185 4.58577H8.732ZM3.26013 3.11456C2.83185 3.11456 2.59551 2.63463 2.85943 2.31337C2.90258 2.27929 3.89071 0.799482 5.94773 0.83756C7.12212 0.858622 8.19472 1.39508 8.89063 2.3095C9.14035 2.63712 8.90179 3.11454 8.46873 3.11454H8.43119C8.32732 2.81605 8.03525 2.60032 7.69176 2.60017C7.69283 2.60017 7.15823 2.60017 6.49845 2.60017L6.70472 2.40089C6.80631 2.30274 6.80631 2.14359 6.70472 2.04542C6.60311 1.9473 6.43844 1.9473 6.3368 2.04542L6.13056 2.24471V1.59484C6.13056 1.45605 6.01406 1.3435 5.87041 1.3435C5.72676 1.3435 5.61027 1.45605 5.61027 1.59484V2.24476L5.404 2.04547C5.30241 1.94735 5.13769 1.94735 5.03608 2.04547C4.93449 2.14362 4.93449 2.30276 5.03608 2.40094L5.24235 2.60022C4.58413 2.60022 4.05055 2.60022 4.0494 2.60022C3.70578 2.60022 3.41353 2.816 3.30963 3.11459L3.26013 3.11456ZM3.00883 5.08845C2.86538 5.08845 2.74868 4.9757 2.74868 4.83711C2.74868 4.69852 2.86538 4.58577 3.00883 4.58577H3.26897V5.08845H3.00883ZM3.78926 6.09381C3.78926 5.87366 3.78926 5.40227 3.78926 5.00752C4.87908 5.38556 6.86169 5.38558 7.95157 5.00752C7.95157 5.23111 7.95157 5.84302 7.95157 6.06588C7.95157 7.1673 7.07301 8.06214 5.9514 8.10303C4.76597 8.14692 3.78926 7.23101 3.78926 6.09381ZM2.61861 8.87339H3.1389V9.12473C3.1389 9.26331 3.0222 9.37606 2.87875 9.37606C2.73531 9.37606 2.61861 9.26331 2.61861 9.12473V8.87339ZM1.18782 10.6141C1.18782 10.0407 1.5965 9.54481 2.15256 9.40034C2.35389 9.89375 3.00266 10.0367 3.40513 9.68089L3.9467 10.7301C4.00918 10.8512 4.16051 10.9034 4.28897 10.8459L4.8481 10.5953L5.12302 11.1406L4.63938 12.6306H2.48854V11.6233C2.48854 11.4845 2.37207 11.3719 2.22839 11.3719C2.08472 11.3719 1.96825 11.4845 1.96825 11.6233V12.6306H1.18714L1.18782 10.6141ZM10.8125 12.6306H10.0327V11.6233C10.0327 11.4845 9.91623 11.3719 9.77258 11.3719C9.62892 11.3719 9.51243 11.4845 9.51243 11.6233V12.6306H7.09881L6.58641 11.1206L6.78047 10.545C7.46278 10.8424 7.46093 10.8693 7.56119 10.8693C7.65685 10.8693 7.74873 10.8181 7.79415 10.7301L8.341 9.67063C8.7533 10.0286 9.41228 9.86814 9.59799 9.36046C10.2754 9.40321 10.8131 9.94899 10.8131 10.6141L10.8125 12.6306Z" fill="#888888"/>
</svg>
