<svg width="14" height="16" viewBox="0 0 14 16" fill="none" xmlns="http://www.w3.org/2000/svg">
<path d="M10.8265 4.8125H3.17347C2.98246 4.81277 2.79203 4.83356 2.60547 4.8745V0.999998C2.60547 0.953055 2.58682 0.908034 2.55362 0.87484C2.52043 0.841646 2.47541 0.822998 2.42847 0.822998H1.10997C1.06298 0.822998 1.01791 0.84163 0.984632 0.87481C0.951358 0.907989 0.932599 0.953009 0.932467 0.999998V5.971C0.498235 6.55884 0.263916 7.27042 0.263916 8.00125C0.263916 8.73208 0.498235 9.44366 0.932467 10.0315V14.6625C0.932467 14.7096 0.951167 14.7547 0.984455 14.788C1.01774 14.8213 1.06289 14.84 1.10997 14.84H5.87747V15C5.8776 15.047 5.89636 15.092 5.92963 15.1252C5.9629 15.1584 6.00798 15.177 6.05497 15.177H8.54197C8.58891 15.177 8.63393 15.1583 8.66712 15.1252C8.70032 15.092 8.71897 15.0469 8.71897 15V13.007C8.71903 12.9837 8.7145 12.9606 8.70564 12.9391C8.69677 12.9176 8.68374 12.898 8.6673 12.8815C8.65086 12.865 8.63132 12.8519 8.60982 12.843C8.58831 12.8341 8.56525 12.8295 8.54197 12.8295H6.05497C6.00789 12.8295 5.96274 12.8482 5.92946 12.8815C5.89617 12.9148 5.87747 12.9599 5.87747 13.007V13.167H2.60547V11.132C3.12099 11.2457 3.65869 11.2032 4.14997 11.01L4.46647 10.886C4.48318 10.9117 4.5065 10.9324 4.53397 10.946L5.64447 11.4585C6.06804 11.6554 6.53077 11.7538 6.99783 11.7461C7.46489 11.7384 7.92412 11.6248 8.34097 11.414L9.27747 10.9435C9.30091 10.9314 9.32129 10.9141 9.33706 10.893C9.35283 10.8719 9.36357 10.8474 9.36847 10.8215L9.84997 11.01C10.2606 11.1724 10.7052 11.2303 11.1438 11.1787C11.5823 11.127 12.0013 10.9673 12.363 10.714C12.7949 10.408 13.1457 10.0012 13.385 9.52897C13.6242 9.05675 13.7447 8.5333 13.736 8.004C13.7706 7.19566 13.4842 6.40642 12.9391 5.80851C12.394 5.2106 11.6346 4.85255 10.8265 4.8125ZM6.23197 14.6625V13.184H8.36447V14.823H6.23197V14.6625ZM1.28697 1.177H2.24997V4.9795C1.89168 5.1129 1.56386 5.31694 1.28597 5.5795L1.28697 1.177ZM5.87747 13.5215V14.4855H1.28697V10.432C1.29047 10.4355 1.29497 10.4375 1.29847 10.441C1.40461 10.54 1.51773 10.6312 1.63697 10.714C1.66297 10.7315 1.69047 10.745 1.71647 10.7615C1.74247 10.778 1.75947 10.7875 1.78147 10.8005C1.93048 10.8916 2.08766 10.9686 2.25097 11.0305V13.344C2.25097 13.3911 2.26967 13.4362 2.30296 13.4695C2.33624 13.5028 2.38139 13.5215 2.42847 13.5215H5.87747ZM8.18147 11.1C7.81214 11.2867 7.40529 11.3872 6.9915 11.3941C6.57772 11.4009 6.16777 11.3139 5.79247 11.1395L4.89247 10.723L6.15447 10.23C6.69939 10.017 7.30454 10.017 7.84947 10.23L9.01197 10.684L8.18147 11.1ZM12.163 10.4235C11.8486 10.6437 11.4846 10.7826 11.1035 10.8277C10.7224 10.8728 10.336 10.8228 9.97897 10.682L7.97897 9.9C7.35102 9.65499 6.65391 9.65499 6.02597 9.9L4.02347 10.682C3.51976 10.8804 2.96221 10.8947 2.44897 10.7225C2.3535 10.691 2.26015 10.6534 2.16947 10.61C2.15497 10.603 2.13997 10.5975 2.12597 10.5905C2.02015 10.5373 1.91823 10.4766 1.82097 10.409C1.80097 10.395 1.78297 10.378 1.76297 10.3635C1.68282 10.3049 1.60603 10.2418 1.53297 10.1745C1.51147 10.155 1.49247 10.133 1.47147 10.1125C1.40229 10.0443 1.33686 9.97232 1.27547 9.897C0.861803 9.37029 0.632072 8.72258 0.621417 8.05294C0.610762 7.38329 0.81977 6.7286 1.21647 6.189C1.22964 6.18089 1.24174 6.17115 1.25247 6.16C1.56445 5.75078 1.99419 5.44684 2.48397 5.289C2.49447 5.286 2.49997 5.276 2.50997 5.2705C2.72587 5.20473 2.95027 5.17104 3.17597 5.1705H10.8265C11.5405 5.21056 12.2098 5.53126 12.6884 6.06268C13.167 6.5941 13.4161 7.29317 13.3815 8.0075C13.3897 8.4785 13.283 8.94441 13.0707 9.36493C12.8584 9.78546 12.5468 10.1479 12.163 10.421V10.4235Z" fill="#1E1E1E"/>
</svg>
