<svg width="12" height="14" viewBox="0 0 12 14" fill="none" xmlns="http://www.w3.org/2000/svg">
<path d="M8.76008 4.85998L8.74675 4.86665C8.90008 5.04665 9.03341 5.25998 9.13341 5.47998L9.19341 5.60665C9.66675 6.73331 9.33341 8.03331 8.46008 8.84665C7.66675 9.57331 6.56008 9.76665 5.53341 9.63331C4.56008 9.51331 3.66675 8.89998 3.15341 8.05331C3.00008 7.79331 2.86675 7.49998 2.80008 7.19998C2.71341 6.95331 2.68675 6.71331 2.66675 6.46665C2.60675 5.39998 3.03341 4.26665 3.84008 3.59998C3.47341 4.40665 3.56008 5.41331 4.10008 6.11331L4.17341 6.19998C4.26675 6.27998 4.38008 6.30665 4.48675 6.25998C4.58675 6.21998 4.66675 6.11998 4.66675 5.99998L4.62008 5.85331C4.03341 4.30665 4.52675 2.49998 5.77341 1.47998C6.11341 1.19998 6.53341 0.946646 6.97341 0.833313C6.52008 1.73998 6.66675 2.92665 7.39341 3.63998C7.70008 3.95331 8.06675 4.15998 8.38675 4.45331L8.76008 4.85998ZM7.24008 7.95331L7.23341 7.94665C7.53341 7.68665 7.70008 7.23998 7.68675 6.83998L7.66675 6.62665C7.53341 5.95998 6.95341 5.73998 6.58008 5.25331C6.46675 5.10665 6.36675 4.91998 6.29341 4.73331C6.14675 5.06665 6.13341 5.37998 6.19341 5.73998C6.26008 6.11998 6.41341 6.44665 6.33341 6.83998C6.22675 7.27331 5.88675 7.70665 5.29341 7.84665C5.62675 8.17331 6.16675 8.43331 6.70675 8.24665C6.88008 8.19998 7.10008 8.07331 7.24008 7.95331ZM5.33341 11V11.6666C5.33341 12.0333 5.63341 12.3333 6.00008 12.3333C6.36675 12.3333 6.66675 12.0333 6.66675 11.6666V11H8.00008V11.6666C8.00008 12.0333 8.30008 12.3333 8.66675 12.3333C9.03341 12.3333 9.33341 12.0333 9.33341 11.6666V11C10.0734 11 11.3334 11.6 11.3334 12.3333V13.6666H0.666748V12.3333C0.666748 11.6 1.93341 11 2.66675 11V11.6666C2.66675 12.0333 2.96675 12.3333 3.33341 12.3333C3.70008 12.3333 4.00008 12.0333 4.00008 11.6666V11H5.33341Z" fill="#888888"/>
</svg>
