<svg width="12" height="13" viewBox="0 0 12 13" fill="none" xmlns="http://www.w3.org/2000/svg">
<path d="M10.0905 1H1.90952C1.40721 1 1 1.44793 1 2.00048V10.9995C1 11.5521 1.40721 12 1.90952 12H10.0905C10.5928 12 11 11.5521 11 10.9995V2.00048C11 1.44793 10.5928 1 10.0905 1Z" stroke="#1E1E1E" stroke-width="0.775" stroke-miterlimit="10"/>
<path d="M7.36195 4.49902H4.63814C3.63351 4.49902 2.81909 5.39488 2.81909 6.49998C2.81909 7.60507 3.63351 8.50093 4.63814 8.50093H7.36195C8.36658 8.50093 9.181 7.60507 9.181 6.49998C9.181 5.39488 8.36658 4.49902 7.36195 4.49902Z" stroke="#1E1E1E" stroke-width="0.775" stroke-miterlimit="10"/>
<path d="M4.18091 6.5H7.819" stroke="#1E1E1E" stroke-width="0.775" stroke-miterlimit="10"/>
</svg>
