<svg width="20" height="20" viewBox="0 0 20 20" fill="none" xmlns="http://www.w3.org/2000/svg">
<path d="M19.5609 8.7386L18.2009 7.15859C17.9409 6.85859 17.7309 6.29859 17.7309 5.89859V4.19859C17.7309 3.13859 16.8609 2.26859 15.8009 2.26859H14.1009C13.7109 2.26859 13.1409 2.05859 12.8409 1.79859L11.2609 0.438594C10.5709 -0.151406 9.4409 -0.151406 8.7409 0.438594L7.17086 1.80859C6.87086 2.05859 6.30086 2.26859 5.91086 2.26859H4.18086C3.12086 2.26859 2.25086 3.13859 2.25086 4.19859V5.90859C2.25086 6.29859 2.04086 6.85859 1.79086 7.15859L0.440859 8.7486C-0.139141 9.4386 -0.139141 10.5586 0.440859 11.2486L1.79086 12.8386C2.04086 13.1386 2.25086 13.6986 2.25086 14.0886V15.7986C2.25086 16.8586 3.12086 17.7286 4.18086 17.7286H5.91086C6.30086 17.7286 6.87086 17.9386 7.17086 18.1986L8.7509 19.5586C9.4409 20.1486 10.5709 20.1486 11.2709 19.5586L12.8509 18.1986C13.1509 17.9386 13.7109 17.7286 14.1109 17.7286H15.8109C16.8709 17.7286 17.7409 16.8586 17.7409 15.7986V14.0986C17.7409 13.7086 17.9509 13.1386 18.2109 12.8386L19.5709 11.2586C20.1509 10.5686 20.1509 9.4286 19.5609 8.7386ZM14.1609 8.1086L9.3309 12.9386C9.1909 13.0786 9.0009 13.1586 8.8009 13.1586C8.6009 13.1586 8.4109 13.0786 8.2709 12.9386L5.85086 10.5186C5.56086 10.2286 5.56086 9.7486 5.85086 9.4586C6.14086 9.1686 6.62086 9.1686 6.91086 9.4586L8.8009 11.3486L13.1009 7.04859C13.3909 6.75859 13.8709 6.75859 14.1609 7.04859C14.4509 7.33859 14.4509 7.81859 14.1609 8.1086Z" fill="#00B45F"/>
</svg>
