<svg width="12" height="16" viewBox="0 0 12 16" fill="none" xmlns="http://www.w3.org/2000/svg">
<path d="M6.10366 0.101802L6.00186 0L5.90316 0.0986969C4.85026 1.15199 4.03375 2.45172 3.54201 3.85741C3.05027 5.26314 2.87848 6.78835 3.04535 8.26818L3.72743 14.3171H4.90482L4.9179 14.468C4.96294 14.9867 5.35784 15.3882 5.86081 15.4516V15.7209H5.56427C5.4872 15.7209 5.42472 15.7834 5.42472 15.8604C5.42472 15.9375 5.4872 16 5.56427 16H6.43645C6.51352 16 6.576 15.9375 6.576 15.8604C6.576 15.7834 6.51352 15.7209 6.43645 15.7209H6.13991V15.4516C6.64292 15.3882 7.03778 14.9867 7.08282 14.468L7.0959 14.3171H8.27604L8.95562 8.26009C9.12144 6.78246 8.94979 5.25958 8.4592 3.85605C7.96854 2.45246 7.15406 1.15429 6.10366 0.101802ZM8.70335 6.33757H8.5273C8.45076 5.39739 8.2421 4.47639 7.90543 3.59516H8.06347C8.10963 3.71211 8.15428 3.82957 8.19573 3.94816C8.46457 4.71729 8.63479 5.52333 8.70335 6.33757ZM8.7203 7.73308H3.27983C3.25781 7.3617 3.25698 6.98868 3.27777 6.61667H8.72271C8.7434 6.98871 8.74242 7.36173 8.7203 7.73308ZM6.14001 10.7312V8.01218H8.24328C8.23672 8.08638 8.22947 8.16125 8.22088 8.23689L7.93973 10.7312H6.14001ZM4.0612 10.7312L3.78004 8.23685C3.7715 8.16122 3.76424 8.08635 3.75765 8.01218H5.86091V10.7312H4.0612ZM5.86091 3.59516V6.33757H3.75353C3.83245 5.39613 4.04812 4.47478 4.39532 3.59516H5.86091ZM7.60561 3.59516C7.95281 4.47478 8.16848 5.39613 8.2474 6.33757H6.14001V3.59516H7.60561ZM6.00186 0.396253C6.81914 1.23903 7.48266 2.23685 7.94824 3.31606H4.05374C4.51987 2.23682 5.18399 1.23903 6.00186 0.396253ZM3.80544 3.94959C3.8471 3.83055 3.89196 3.71256 3.93836 3.59516H4.0955C3.7588 4.47639 3.55017 5.39739 3.47363 6.33757H3.29727C3.36607 5.52385 3.53653 4.71834 3.80544 3.94959ZM3.30058 8.01218H3.47764C3.48493 8.0966 3.49299 8.1819 3.50272 8.26818L3.78036 10.7312H3.60393L3.32267 8.23689C3.31423 8.16212 3.30721 8.08718 3.30058 8.01218ZM5.09548 13.2863C5.0914 13.2393 5.10668 13.1943 5.13853 13.1596C5.17038 13.1249 5.21385 13.1058 5.26099 13.1058H5.6398H6.36082H6.73963C6.78676 13.1058 6.83027 13.1249 6.86212 13.1597C6.89397 13.1944 6.90929 13.2394 6.90517 13.2863L6.8841 13.5291H5.11652L5.09548 13.2863ZM6.00036 11.594C5.80157 11.594 5.63983 11.7557 5.63983 11.9545V12.3731H4.47277C4.43098 12.3731 4.39567 12.3459 4.39567 12.3137V11.5603C4.39567 11.5281 4.43098 11.5009 4.47277 11.5009H7.52788C7.56985 11.5009 7.60533 11.5281 7.60533 11.5603V12.3137C7.60533 12.3459 7.56985 12.3731 7.52788 12.3731H6.36085V11.9545C6.36085 11.7557 6.19911 11.594 6.00036 11.594ZM5.91893 11.9545C5.91893 11.9096 5.95546 11.8731 6.00036 11.8731C6.04523 11.8731 6.08175 11.9096 6.08175 11.9545V12.8267H5.91893V11.9545ZM6.00036 15.1815C5.57826 15.1815 5.23245 14.8644 5.19596 14.4439L5.14076 13.8082H6.85988L6.80469 14.4439C6.76824 14.8643 6.42243 15.1815 6.00036 15.1815ZM8.02653 14.038H7.12015L7.18329 13.3104C7.19407 13.1864 7.152 13.0627 7.06785 12.971C6.9837 12.8793 6.86411 12.8267 6.73966 12.8267H6.36085V12.6522H7.52788C7.72447 12.6522 7.88443 12.5004 7.88443 12.3137V11.5603C7.88443 11.3736 7.72447 11.2218 7.52788 11.2218H4.47277C4.27636 11.2218 4.11657 11.3736 4.11657 11.5603V12.3137C4.11657 12.5004 4.27636 12.6522 4.47277 12.6522H5.63983V12.8267H5.26102C5.13658 12.8267 5.01698 12.8793 4.93287 12.971C4.84876 13.0627 4.80668 13.1865 4.81743 13.3104L4.88057 14.038H3.97681L3.6354 11.0103H8.36623L8.02653 14.038ZM8.39752 10.7312H8.22061L8.49824 8.26822C8.50797 8.18194 8.51607 8.0966 8.52332 8.01218H8.69944C8.69298 8.0845 8.68636 8.15682 8.67826 8.22897L8.39752 10.7312Z" fill="#1E1E1E"/>
<path d="M6.0001 2.43012C6.30787 2.43012 6.5583 2.1797 6.5583 1.87192C6.5583 1.56414 6.30787 1.31372 6.0001 1.31372C5.69232 1.31372 5.44189 1.56414 5.44189 1.87192C5.44189 2.1797 5.69228 2.43012 6.0001 2.43012ZM6.0001 1.59282C6.15398 1.59282 6.2792 1.71803 6.2792 1.87192C6.2792 2.02581 6.15398 2.15102 6.0001 2.15102C5.84621 2.15102 5.721 2.02581 5.721 1.87192C5.721 1.71803 5.84621 1.59282 6.0001 1.59282Z" fill="#1E1E1E"/>
<path d="M9.89643 1.70082C9.68404 1.42706 9.68404 1.04473 9.89643 0.771C9.94367 0.710121 9.93261 0.622449 9.87173 0.575211C9.81085 0.527938 9.72314 0.539032 9.67594 0.599911C9.38536 0.97436 9.38536 1.49746 9.67594 1.87195C9.88834 2.14568 9.88834 2.52804 9.67594 2.80177C9.38536 3.17625 9.38536 3.69932 9.67594 4.07381C9.88834 4.34753 9.88834 4.7299 9.67594 5.00363C9.38536 5.37811 9.38536 5.90118 9.67594 6.27563C9.88834 6.54939 9.88834 6.93176 9.67594 7.20549C9.38536 7.57997 9.38536 8.10308 9.67594 8.47753C9.88834 8.75125 9.88834 9.13362 9.67594 9.40735C9.38536 9.7818 9.38536 10.3049 9.67594 10.6794C9.88834 10.9531 9.88834 11.3355 9.67594 11.6092C9.38536 11.9837 9.38536 12.5068 9.67594 12.8812C9.88834 13.155 9.88834 13.5373 9.67594 13.8111C9.38536 14.1856 9.38536 14.7086 9.67594 15.0831C9.70343 15.1186 9.74467 15.1371 9.78629 15.1371C9.81616 15.1371 9.8463 15.1276 9.87173 15.1078C9.93261 15.0606 9.9437 14.9729 9.89643 14.912C9.684 14.6383 9.684 14.2559 9.89643 13.9822C10.187 13.6077 10.187 13.0846 9.89643 12.7102C9.684 12.4364 9.684 12.0541 9.89643 11.7803C10.187 11.4058 10.187 10.8828 9.89643 10.5083C9.68404 10.2345 9.68404 9.8522 9.89643 9.57847C10.187 9.20399 10.187 8.68089 9.89643 8.30644C9.68404 8.03271 9.68404 7.65034 9.89643 7.37661C10.187 7.00216 10.187 6.47906 9.89643 6.10458C9.684 5.83085 9.684 5.44848 9.89643 5.17475C10.187 4.80027 10.187 4.2772 9.89643 3.90272C9.684 3.62899 9.684 3.24662 9.89643 2.97289C10.187 2.59841 10.187 2.07531 9.89643 1.70082Z" fill="#1E1E1E"/>
<path d="M10.943 3.90268C10.7306 3.62896 10.7306 3.24659 10.943 2.97286C11.2336 2.59838 11.2336 2.07531 10.943 1.70082C10.7306 1.4271 10.7306 1.04473 10.943 0.771C10.9903 0.710086 10.9792 0.622449 10.9183 0.575211C10.8574 0.527938 10.7697 0.539032 10.7225 0.599911C10.432 0.97436 10.432 1.49746 10.7225 1.87195C10.9349 2.14568 10.9349 2.52804 10.7225 2.80177C10.432 3.17625 10.432 3.69932 10.7225 4.07381C10.9349 4.34753 10.9349 4.7299 10.7225 5.00363C10.432 5.37811 10.432 5.90118 10.7225 6.27563C10.9349 6.54939 10.9349 6.93176 10.7225 7.20549C10.432 7.57997 10.432 8.10308 10.7225 8.47753C10.9349 8.75125 10.9349 9.13362 10.7225 9.40735C10.432 9.7818 10.432 10.3049 10.7225 10.6794C10.9349 10.9531 10.9349 11.3355 10.7225 11.6092C10.432 11.9837 10.432 12.5068 10.7225 12.8812C10.9349 13.155 10.9349 13.5373 10.7225 13.8111C10.432 14.1856 10.432 14.7086 10.7225 15.0831C10.75 15.1185 10.7912 15.1371 10.8329 15.1371C10.8628 15.1371 10.8929 15.1276 10.9183 15.1078C10.9792 15.0606 10.9903 14.9729 10.943 14.912C10.7306 14.6383 10.7306 14.2559 10.943 13.9822C11.2336 13.6077 11.2336 13.0846 10.943 12.7102C10.7306 12.4364 10.7306 12.0541 10.943 11.7803C11.2336 11.4058 11.2336 10.8828 10.943 10.5083C10.7306 10.2346 10.7306 9.8522 10.943 9.57847C11.2336 9.20399 11.2336 8.68089 10.943 8.30644C10.7306 8.03271 10.7306 7.65034 10.943 7.37661C11.2336 7.00217 11.2336 6.47906 10.943 6.10458C10.7306 5.83085 10.7306 5.44848 10.943 5.17475C11.2336 4.80024 11.2336 4.27717 10.943 3.90268Z" fill="#1E1E1E"/>
<path d="M2.32414 0.599911C2.2769 0.539032 2.1893 0.527938 2.12835 0.575211C2.06747 0.622449 2.05638 0.710121 2.10365 0.771C2.31605 1.04473 2.31605 1.4271 2.10365 1.70082C1.81311 2.07531 1.81311 2.59838 2.10365 2.97286C2.31605 3.24659 2.31605 3.62896 2.10365 3.90268C1.81311 4.27717 1.81311 4.80024 2.10365 5.17472C2.31605 5.44845 2.31605 5.83081 2.10365 6.10454C1.81311 6.47903 1.81311 7.00213 2.10365 7.37658C2.31601 7.65031 2.31601 8.03271 2.10365 8.30644C1.81311 8.68089 1.81311 9.20399 2.10365 9.57847C2.31605 9.8522 2.31605 10.2346 2.10365 10.5083C1.81311 10.8828 1.81311 11.4058 2.10365 11.7803C2.31605 12.0541 2.31605 12.4364 2.10365 12.7102C1.81311 13.0846 1.81311 13.6077 2.10365 13.9822C2.31605 14.2559 2.31605 14.6383 2.10365 14.912C2.05641 14.9729 2.06747 15.0606 2.12835 15.1078C2.15378 15.1276 2.18393 15.1371 2.21379 15.1371C2.25541 15.1371 2.29665 15.1186 2.32414 15.0831C2.61468 14.7086 2.61468 14.1856 2.32414 13.8111C2.11174 13.5373 2.11174 13.155 2.32414 12.8812C2.61468 12.5068 2.61468 11.9837 2.32414 11.6092C2.11174 11.3355 2.11174 10.9531 2.32414 10.6794C2.61468 10.3049 2.61468 9.7818 2.32414 9.40735C2.11178 9.13362 2.11178 8.75122 2.32414 8.47749C2.61468 8.10304 2.61468 7.57994 2.32414 7.20545C2.11174 6.93173 2.11174 6.54936 2.32414 6.27563C2.61468 5.90115 2.61468 5.37808 2.32414 5.0036C2.11174 4.72987 2.11174 4.3475 2.32414 4.07377C2.61468 3.69929 2.61468 3.17622 2.32414 2.80174C2.11174 2.52801 2.11174 2.14564 2.32414 1.87188C2.61472 1.49743 2.61472 0.97436 2.32414 0.599911Z" fill="#1E1E1E"/>
<path d="M1.27751 0.599911C1.23027 0.539032 1.14263 0.527938 1.08172 0.575211C1.02084 0.622449 1.00975 0.710121 1.05702 0.771C1.26941 1.04473 1.26941 1.4271 1.05702 1.70082C0.766475 2.07531 0.766475 2.59838 1.05702 2.97286C1.26945 3.24659 1.26945 3.62896 1.05702 3.90268C0.766475 4.27717 0.766475 4.80024 1.05702 5.17472C1.26945 5.44845 1.26945 5.83081 1.05702 6.10454C0.766475 6.47903 0.766475 7.00213 1.05702 7.37658C1.26941 7.65031 1.26941 8.03271 1.05702 8.30644C0.766475 8.68089 0.766475 9.20399 1.05702 9.57847C1.26941 9.8522 1.26941 10.2346 1.05702 10.5083C0.766475 10.8828 0.766475 11.4058 1.05702 11.7803C1.26945 12.0541 1.26945 12.4364 1.05702 12.7102C0.766475 13.0846 0.766475 13.6077 1.05702 13.9822C1.26945 14.2559 1.26945 14.6383 1.05702 14.912C1.00978 14.9729 1.02084 15.0606 1.08172 15.1078C1.10715 15.1276 1.1373 15.1371 1.16716 15.1371C1.20878 15.1371 1.25002 15.1186 1.27751 15.0831C1.56809 14.7086 1.56809 14.1856 1.27751 13.8111C1.06511 13.5373 1.06511 13.155 1.27751 12.8812C1.56809 12.5068 1.56809 11.9837 1.27751 11.6092C1.06511 11.3355 1.06511 10.9531 1.27751 10.6794C1.56809 10.3049 1.56809 9.7818 1.27751 9.40735C1.06515 9.13362 1.06515 8.75122 1.27751 8.47749C1.56809 8.10304 1.56809 7.57994 1.27751 7.20545C1.06511 6.93173 1.06511 6.54936 1.27751 6.27563C1.56809 5.90115 1.56809 5.37808 1.27751 5.0036C1.06511 4.72987 1.06511 4.3475 1.27751 4.07377C1.56809 3.69929 1.56809 3.17622 1.27751 2.80174C1.06511 2.52801 1.06511 2.14564 1.27751 1.87191C1.56812 1.49746 1.56812 0.97436 1.27751 0.599911Z" fill="#1E1E1E"/>
</svg>
