<svg width="12" height="11" viewBox="0 0 12 11" fill="none" xmlns="http://www.w3.org/2000/svg">
<path d="M2.90176 5.84449C3.30549 5.41159 3.79365 5.06597 4.33611 4.82893C4.87858 4.59199 5.46341 4.46875 6.05543 4.46667C6.64737 4.46467 7.23341 4.58393 7.77759 4.81715C8.32168 5.05037 8.81239 5.39253 9.21911 5.82265M1 3.20471C1.64597 2.51199 2.42702 1.95897 3.29497 1.57979C4.16292 1.2006 5.10002 1.00334 6.0472 1.00004C6.99438 0.996732 7.93168 1.18762 8.80233 1.56074C9.6729 1.93383 10.4573 2.48061 11.1082 3.16883M6.07051 9.66667C5.59185 9.66667 5.20385 9.27866 5.20385 8.8C5.20385 8.32143 5.59185 7.93333 6.07051 7.93333C6.54917 7.93333 6.93718 8.32143 6.93718 8.8C6.93718 9.27866 6.54917 9.66667 6.07051 9.66667Z" stroke="#1E1E1E" stroke-linecap="round" stroke-linejoin="round"/>
</svg>
