<svg width="10" height="8" viewBox="0 0 10 8" fill="none" xmlns="http://www.w3.org/2000/svg">
<path d="M5.0001 4.66669C4.26676 4.66669 3.66676 5.26669 3.66676 6.00002C3.66676 6.73335 4.26676 7.33335 5.0001 7.33335C5.73343 7.33335 6.33343 6.73335 6.33343 6.00002C6.33343 5.26669 5.73343 4.66669 5.0001 4.66669ZM0.586765 3.58002C0.166765 3.16002 0.193431 2.44002 0.673431 2.08669C1.88676 1.19335 3.3801 0.666687 5.0001 0.666687C6.6201 0.666687 8.11343 1.19335 9.32677 2.08669C9.80676 2.44002 9.83343 3.15335 9.41343 3.58002C9.0601 3.94002 8.5001 3.96002 8.09343 3.66002C7.2201 3.03335 6.15343 2.66669 5.0001 2.66669C3.84676 2.66669 2.7801 3.03335 1.90676 3.66002C1.5001 3.95335 0.940098 3.93335 0.586765 3.58002Z" fill="#888888"/>
</svg>
