<svg width="12" height="12" viewBox="0 0 12 12" fill="none" xmlns="http://www.w3.org/2000/svg">
<path d="M6 0C2.8 0 0 2.57333 0 6C0 7.41333 0.493333 8.71333 1.31333 9.74L0 11.06L0.94 12L2.25333 10.6867C3.28667 11.5067 4.58667 12 6 12C7.53333 12 9.07333 11.4133 10.24 10.24C11.4133 9.07333 12 7.53333 12 6V0H6ZM10.6667 6C10.6667 7.24667 10.18 8.42 9.3 9.3C8.42 10.18 7.24667 10.6667 6 10.6667C3.42667 10.6667 1.33333 8.57333 1.33333 6C1.33333 4.73333 1.82667 3.54667 2.73333 2.67333C3.61333 1.80667 4.77333 1.33333 6 1.33333H10.6667V6Z" fill="#888888"/>
<path d="M3.64 6.42L6.34 6.68667L4.71333 8.90667C4.64 9.01333 4.64667 9.16 4.74 9.25333C4.84 9.35333 5.00667 9.36 5.11333 9.26L8.55333 6.17333C8.77333 5.97333 8.65333 5.60667 8.35333 5.58L5.65333 5.31333L7.28 3.09333C7.35333 2.98667 7.34667 2.84 7.25333 2.74667C7.15333 2.64667 6.98667 2.64 6.88 2.74L3.44 5.82667C3.22667 6.02667 3.34667 6.39333 3.64 6.42Z" fill="#888888"/>
</svg>
